<svg fill="none" xmlns="http://www.w3.org/2000/svg" viewBox="0 0 437 390">
  <g clip-path="url(#a)" fill="#000">
    <path d="m135 277-1 1-1-2v-3h-6l-2-2c-1 0-2-1-1-3h3c3 0 4 0 6 2l2 2 1 2-1 3ZM332 98h-3l1-1 2 1ZM314 133l2-1c1 0 2 1 1 2l-3-1ZM322 127h-2v-1c1-1 2 0 2 1ZM317 143v-2l2-1 1 3h-3ZM361 105l-2-1v-2c2 0 3 2 2 3ZM369 45l1-1h1v1l-1 2-1 1-1 1c-1 1-2 0-2-1l1-2 2-1ZM371 80h-2l-1-1-2-1 3-1 2 1v2ZM327 97v1c-1 1-3-1-2-2l2 1ZM357 58c-1 2-3 1-4-3l-2-2-2-2 2-3 2-1 2 1-1 1v1l1 4 2 4ZM365 84h-2v-1l2-1h2v2h-2ZM324 82h-2c0-1 1-2 2-1v1ZM363 93l-2 1v-3c2-1 2-2 3-1 1 0 1 1-1 3ZM359 96l1 2h-2l1-2ZM131 264l-1 1-1-3h2v2ZM122 266l-1-1v2l-1 2h-3c-1-1-1-2 1-3l2-2c-1-2 1-2 3 0l1 2h-2ZM43 247l1-2h1v2h-2ZM55 233l1 1-2-1h1ZM44 250c1 0 3 2 2 3h-2v-3ZM49 257h-2c-2-2-1-3 1-2 1 0 2 1 1 2ZM46 243v-2h2v2h-2ZM99 240c1-1 3 0 3 2h-2c-2 0-2-1-1-2ZM313 139v2l-2 1-1-2c0-1 2-2 3-1ZM256 171c-2-2 0-3 2-2l1 2h-3ZM35 238h1v1l-1-1ZM38 242h-1l-1-1h2v1ZM361 53l-1-2-1-1-1-2c0-2 0-2 2-2l1 2 1 1h1c1 1 0 2-1 3l-1 1ZM41 247l-1-1h1v1ZM125 301c1-2 3-1 3 1l-1 2h-4c0-1 0-2 2-3ZM126 294c2 0 3 2 2 3s-2 1-3-1l1-2ZM123 275c2 0 3 2 2 3s-4 0-4-2c0-1 1-2 2-1ZM117 290l2 1 1 3 2 1 3 3-1 1c-2 0-3-1-3-2l-2-1-1-2c-1-2-2-3-1-4ZM119 299l2 2h-2v-2ZM120 281c1-2 3 2 2 3v1c-2 1-3-3-2-4ZM95 245h2l-1 2h-2l1-2ZM131 308l2 2 1 3-3-1-2-2-1-2h3ZM91 242l1 1h-1v-1ZM121 290l1-2c2 0 3 3 2 4-1 0-2 0-3-2ZM331 35h3v2l-2 1c-1 0-3-3-1-3ZM280 90c1-1 3 1 2 2h-1c-2 0-2-1-1-2ZM225 351c1 0 3 2 3 4l2 2 3-1 3-1 6-1 4-2c1-2 2-6 1-8 0-1-2-3-5-3h-2l-2-1-1-1-2-2c-2 1-2 1 0 2l1 2h-1l-1 1-8 4c-3 2-3 5-1 5Zm17-7h1c1 0 3 1 2 2 0 2 0 2-2 0l-1-2Zm-6 0c2-1 3-1 4 1v1h-2v2h-1l-1-1c-2-1-1-2 0-3Zm-6 3v1h-1l1-1ZM271 100v3l-1-1v-2h1ZM208 327l-2-1 1-1c1 0 2 1 1 2ZM210 323c0 1-2 0-2-2l2-3c1 0 2 1 1 3l-1 2ZM252 334v1h-2v-1h2ZM213 326l-2-1v-1l2-1v3ZM302 77h-2l1-2 1 1v1ZM250 328h1v2h-1v-2ZM245 337l1-2h1l1 2h-3ZM227 337c-1 0-2 0-1-1l1-1c2 0 3 1 2 3l-2-1ZM219 331h3l-1 3c-1 1-2-1-2-3ZM185 285l-3-1c-1 0-1-2 1-2s3 2 2 3ZM236 113c-1-1 3-5 4-5 1 1 1 2-1 4l-1 2-2-1ZM230 86l1 1 1 1v-1l2-2v-1l1-1 1-1 2-1c1-1 2 0 2 1l-2 1-2 2c0 2-1 4-3 4v5l-1 1-1-3-1-1-2-1v-3l2-1ZM219 295h-3v-1l1-1 2-1 2 1 1-1h2c1 1 0 3-1 2l-2 1h-2ZM229 115l2-2 3-2-3 4h-2ZM223 132h-3c-1-1 0-3 1-3l2 1v2ZM205 334l-1 2 2 3c2 4 3 5 5 5h5l3-1v-3c1-2-5-8-8-8l-6 2Zm10 8v-1l1 1h-1ZM254 114c-1 0-2-1-1-2s3 1 2 2h-1ZM176 294v6h-3c-1-2-1-3-3-3l-2-1 2-2 2-1c2-1 3 0 4 1Z"/>
    <path d="M171 298v3l-1 1-2-2 3-2ZM179 289h-3l-2-1 2-2c3 1 4 2 3 3ZM341 45l2 1h3l1 1 1 1-2 1h-1l-2-1h-5c-1-1-2-1-1-2l4-1ZM336 29v3h-2v-2l2-1ZM139 183l2-1v2h-1l-1-1ZM176 178v3l-2-1 2-2ZM175 187c-2-1-1-3 1-3v3h-1ZM330 57l-3 3-5 3 4-4 2-2c0-2-4-1-6 2l-2 1v-3c-2 0-10 10-10 12l1 2h5a326 326 0 0 0 20-8l4-2 1-3-1-2-1-1-1-2-2 2-5 5 1-2c2-1 2-3 2-3h-2l-2 2Zm6 3 2-3-1 2-1 1Zm-7 2h-1l1-1v1ZM220 120l1-2 4-2 1-1c1 1-1 4-3 5h-3ZM361 66v-2l1 2h-1ZM357 54v-3l1 2 1 1c1 0 2 3 1 4s-3-1-2-3l-1-1ZM335 20l1 1 1 2v2c-1 1-2 1-3-1v-4h1ZM344 51l8 8c2 2 2 4 0 4h-1l-3-2c-3-3-3-4-2-4s1-1-1-3l-1-3ZM364 79v2c-1 1-3 0-2-1-1-2 2-3 2-1ZM177 173l1 2-1 1h-1c-1-2 0-4 1-3ZM303 69h-2v-2c1-1 3 0 2 2ZM298 81c-1 1-2 0-2-1l2-2v3ZM300 53c1-1 1 0 1 1l2 1 3 4c0 2 1 3 2 3l1-4v-7l-3-4-1-2-1 1-1 2-2 1v-2l-1-2-3 2 1 1-1 2v2l3 1Zm4-1 1 1h-1v-1ZM222 282l3 1c1 0 2 1 1 2h-3c-1-1-2-2-1-3ZM221 288h-2l1-2 1-1v3ZM224 300v2l-2-1c-1-2 1-2 2-1ZM327 40l1-2 1 2h-2ZM313 50h-3l-1-3 1-3h3v6Z"/>
    <path d="m310 54 3-2 3-1v-3c-2 0-2 0-1-1v-2c-1-1-1-2 1-3h3c2 0 2 1 2 2s0 2-2 2l-2 1 1 2h3l1-2 2-1c2 0 2 0 0-1v-3c2 0 3 1 2 2l1 1 2 2c0 2-1 2-4 3h-3l-2 1-2 1-1 1-2 1-1 1-2 1h-2v-2ZM310 62c-1-1 0-2 1-2 2 0 2 1 1 2h-2ZM331 45c1-1 4 0 4 1l-1 2h-3v-3ZM112 113c-1-1 0-2 1-5h2l-1 4-2 1ZM118 123l1 3h-1l-1-1c-1-2 0-3 1-2ZM117 99c2 0 2 1 1 2v1l-2-1c-1-1 0-3 1-2ZM142 187l1 3c-1 1-2 0-2-1-1-1 0-2 1-2ZM139 87l3-1v2c-1 1-4 0-3-1ZM116 122l-3-1-2-1-1-1v-2h3l2 2 1 3ZM153 118l3-6 1-1c2-2 3-2 3 0l-2 2-2 4-1 1h-2ZM148 120c-1-1 1-3 2-2v2h-2ZM143 122c-1-2 1-3 2-2v2h-2ZM129 132l-1 1-1-1 1-1 1 1Z"/>
    <path d="M158 86h-5l-3 1-4 2-3 2-3 1-3 2-3 2-9 5-3 3-3 4-1 2v2l1 7 1 2 2 2 1 1h3l3 2 1 1c0 2 2 4 3 2v-3l2 1h2v-5l2-2 3-2a100 100 0 0 1 11-6c2-1 4-3 5-6l1-3 1-3 2-13-4-1Zm-22 31 2-2 1-1 1 1h1l-5 4v-2Zm-8 3 2-2 1 3 1 2c2 0 1 1-1 1l-2-1-1-3Zm-6-9c-1 2-2 2-2 0l3-5 2-2c1 0-1 5-3 7Zm18-15v1l-1 2-2 3-1 3a74 74 0 0 1-10 14c-1 2-2 2-2 1-1-1 0-2 1-4l2-2 1-2 5-10h-1l-3 4-2 3v-1l1-4v-3l3-1 3-1 4-2 2-1Zm6-2-2 4-1 3-1 2-1 2-2 2v1l-6 7-2 1 3-5 4-7a206 206 0 0 1 8-12v2Zm8-3-1 2-2 3-2 2-1 2-2 4-2 3-5 6 1-2 1-2 1-3 1-3 1-1 3-4 5-8 2 1Zm1 6-1 2-6 11 1-4 1-4v-2l2-3 3-3 1-3 2-1c1 1-1 4-3 7Zm4 2-4 8-2 1 1-1 1-3 3-6 1 1ZM239 238l1-4c1-4 2-5 3-4l-1 3-1 4-2 1ZM247 173l1-3c1-2 2-2 3-1v4h-4ZM241 183v-3l3 2v2l-3-1ZM222 239h1c0 1-1 5-3 7-1 2-2 2-3 2s-1-1 1-3l2-3 2-3ZM156 83v-2c2 0 3 1 2 2h-2ZM225 245l1-3 3-4 2-2-4 10c-1 1-2 0-2-1ZM251 164c1-1 3 0 3 2l-1 2h-1c-1 0-2-3-1-4ZM107 122c-2 0-1-2 0-2l1 1v1h-1ZM211 357h2v3h-2v-3ZM254 159h-3v-2c2-2 4 1 3 2ZM254 177c-1 1-3 0-3-2l3-1v3ZM394 49v3h-1c-1-1 0-3 1-3ZM390 56c0-1 1-2 2-1v2l-2-1ZM244 232l1-2v2h-1ZM49 191l1 2-1 1-1-2 1-1ZM213 76l-2-2v-2l2-1 1 2 1 2v2c-1 1-2 1-2-1ZM76 221c7 1 9 2 8 3h-1l-5-1-3-1h-4l-1-1h6ZM51 187v3h-2c-1-1 0-4 2-3ZM246 165l-1-1 1-2c2 0 3 2 2 3h-2ZM165 255l-2-1-2-1-5-2c-2 0-3-2-2-3l2 1a132 132 0 0 1 13 7l-4-1ZM341 272v-1h1c1-1 2-6 1-7s-3 0-5 2c-1 2-2 2-4 2l-2 1v-2l2-1 3-3 3-2h4c1 1 2 2 1 3l1 2v1l-1 3-1 1-1 1-2 2v-2ZM76 185l1-2c2-1 2 1 1 2h-2ZM80 202c-1 1-2 0-2-1l1-1 1 2ZM80 146h-3v-3l3-3 1 5-1 1ZM73 152h-2c-1-1-1-1 1-3s3-2 4-1c0 1-1 4-3 4ZM88 132v-1c1-2 2-2 3-1v2c-2 2-3 2-3 0ZM84 140l-1-3 1-2h2v6l-2-1ZM69 191v-1l2-2 1 1-1 2h-2ZM102 125l1-2 1 3c-1 1-2 0-2-1ZM68 157c-1-1 0-2 1-2l1 2h-2ZM55 194l-2-1 1-2 1 2v1ZM153 84h-2v-2c2-1 4 0 2 2ZM50 271v1h-2c0-1 1-2 2-1ZM168 216l1-2 1 2h-2ZM152 198l2 2 2 2 1 1 4 2 2 1 2-1 1-4c-1-2-1-2 1-3l1-2 1-2c2-1 2-2 1-7l-1-5v-5c0-3 1-4 3-5l4-4 1-3v-2l-2-5v5l-1 2-2 2 1-3 1-3h-2l-4 8-3 6-3 6-2 3-5 5 1-3v-2l2-3 2-2 2-1a44 44 0 0 0 4-9l2-5 3-4c2-1 2-1 2-3l1-3 1-2-2-2-2-3-1-3h2v1l2 1h3c1-1 1 0 3 2l1 2h3l2 1c2 2 3 2 7 1l6 1 3 4 1 2 1 3 1 3 1 1c0 2 1 2 3 3h2l7 2 4-1 1-2 2-1 3-2 2-1 5-2 8-8 3-5h-2c-1 1-1 0-1-1l1-2 2-1 2-1 2-3c3-3 4-6 2-6l-1 1-2 2 2-5 1-2 2 1 1 2 2-3-1-2-1-3v-3l-2-1h-2c1-2 0-3-1-3l-2 2v1h-5l-2 2-2 1-2-1-1 2v1h-2c-1-1-2-1-2 1l-1 1-2 1c-2 1-2 0-2-1h-1c-2 0-2 2-1 3v4l-1 3-1 1h-1l-1 3-1 3-1 1-2 2-10 13 2-5 5-8 2-2 1-2 1-2v-1c0-1 0-1 0 0l-5 1-1 1h-2l-2 2-2 2v-4l1-1-1-1c-1 0-1-1 1-2h1l2 1 2 1h2l4-2c2 0 5-3 5-5l-3-1-2-1h-2v4l-1 3-1-2c-1-2-1-2-3-2l-1-1-2-1c-2 0-3 1-2 3h-1c-1-1-3-2-4-1l-1 1v2h-1l-2-1-1-2c-1-1-2 0-2 1h-2c-3-2-3-2-6-1l-4 1-2-1h-5l-2 2-2 1h-3l-2-1-3-1h-12l-4 1-7 7-1 3v3c-1 2 0 14 1 17l2 5 4 12v2l1 1 1 2 1 2 1 2v2l2 2Zm-10-38h-1v-1c1-1 1 0 1 1Zm107-32 1-1 2 1-3 1v-1Zm-1 4v-1 1c-1 0 0 0 0 0Zm-5 2h-2c-1 2-2 3-4 3v-1c1-1 1-2-1-1l-2 1-2 1-1 2a91 91 0 0 1-9 14l2-3 1-3 3-4c2-4 2-5 1-5h-1l-2 1 1-2v-2l2-1 1-1 3-1h3l2-1 3-1h3v3c0 1 0 2-1 1Zm3-8h-1l1-1v1Zm-14 33 2-3 3-5a115 115 0 0 1 10-16c1 1-1 4-2 6l-2 3-1 2-1 2v2l-1 1-5 7c-2 2-3 2-3 1Zm-15 9 1-3 5-7 5-9 4-6 2-2c1 1-1 4-3 7l-1 2-3 6-2 2-1 3 1 1 5-8 3-5 2-3 5-8c2-1 2 0 0 3l-2 4-3 4-5 10c1 1 0 2-1 3l-4 2-2 1-3 2c-1 1-2 2-3 1Zm-3-3 2-3 2-2c0-1 0-1 0 0l-2 5-1 1-1 1v-2Zm-5-2 5-6 2-2 4-8 4-4c1 1 0 3-2 5l-2 4a182 182 0 0 1-10 14l-1-1v-2Zm-3-10c1-2 2-2 3-2 1 1 1 2-2 4-1 2-2 2-2 1-1 0-1-1 1-3Zm-2-2v1c0 1-2 2-2 0l2-1Zm-4-9h2c2 0 3 1 1 1l-1 1-1 2-1-1v-1l-1-1 1-1Zm-8 7 1-1h3l-2 1h-2Zm-1-5h2l-1 2c-1 1-3 2-3 0l2-2Zm-4-5h2l1 1-3-1Zm-6 7h2l-1 1-1-1Zm-4-6c2-1 2 0 1 2h-2l1-2Zm-3 0 1 1c0 1-1 2-2 0l1-1Zm-12 49-1-1v-2l3-5 2-1v3l-2 2-2 4Zm0 8v-1h1l-1 1Zm-1 3v1-1Zm-18-33 6-8 2-3 1-2c1-1 2-2 3-1l-2 4-2 3-2 3-3 5c-1 3-2 5 0 5l2-4a58 58 0 0 1 9-15l1-1 1-2 1-1-1 4-2 4a83 83 0 0 1-4 7l-1 2-2 3a34 34 0 0 1-3 5l-1 2-1-1-1-4-1-5Zm4-12c0-2 0-3 1-2v1l-1 3v-2Zm-4 0 3-2-1 2h-2Zm17-10c1 1 0 2-3 4h-3l-2-1-2 1-4 2v-1l-1-2-1-1h-1l3-4c1-1 1 0 1 1l-1 2h1c2 0 3-2 4-4l3-2c1 1 0 1-1 4-2 2-2 3-1 3h4l1-2h3Zm1-2h-1l1-2v2Zm3 0h1-1Zm3 9-1 3-1 3-2 2-2 2-4 5-2 4-2 2-1 2-3 5c0 4-1 5-2 3v-2l3-5 1-3 4-8a75 75 0 0 1 8-11c2-4 4-6 5-6l-1 4Zm-9 23 5-10 2-4 5-7v2l-1 2-1 3a196 196 0 0 0-5 9l-2 1-3 4c0 1-1 1 0 0Zm-4 7 2-5c2-2 2 0 0 3-1 3-2 3-2 2Zm5 9 1-1v2l-1-1Zm-7 3 1 1 2 1h3l-2 3-1-2-3-3Zm0-7 1-2h1l-2 2Zm0-3-1 2-1-1 1-3 1-2v-1h1v2l-1 1v2ZM158 210l2-2c2 0 3 2 2 3s-4 0-4-1ZM166 209l1-1 1 2-2-1ZM169 211l1-1 1 1v1l-1 1-1-2Z"/>
    <path d="m188 160-2 4c-2 2-3 2-4 1l2-4 1-1h3ZM183 157h2v2c-1 2-3 0-2-2ZM195 246h-1 1ZM53 276h1v1h-2l1-1ZM111 201h-2l1-1 1 1ZM134 151v-2l1 2h-1ZM148 200h-2v-2c1-1 2 1 2 2ZM144 195l-1-1 1-1 1 1c0 1 0 2-1 1ZM24 254c2 3 2 3 3 2l2 1v1l-1 1h-1l-4-2c-2-3-3-5-1-5l2 2ZM104 176c-1-2 1-4 2-2l1 2h-3ZM190 159c0-1 0-2 2-2l3 1-2 1h-3ZM88 184v-3c1 0 3 2 1 3h-1ZM84 177l1 3c-1 2-3 1-3-1l2-2ZM98 179l2-1 1 2c-1 1-3 1-3-1ZM113 310h1v2c-1 2-3 0-1-2Z"/>
    <path d="m82 175 4-3v1l2 2c1 0 2-1 2-3l2-3 3-2h1c1 0 5-3 6-6 2-2 2-3 4-2l2-1 5-6 1 1c1 1 2 0 3-2l3-3 3-1c1 0 2-1 2-3v-2c1-2 1-2 2-1v2l1 1 2-2 7-8 1 1c0 2 1 1 3-1s3-3 4-2l4-2 4-2h1l2 1h10c2 1 3 1 5-1l2-2 2 1c2 0 3 0 5-3l2-2v2l1 1 3-2 1-4h-1l-3 1-1 1-1-1v-3l-1-3v-7l1-7-2-2-2-1h-5l-3 1-2 1c-2 1-2 1-2 3l-5 11-1 4c-1 4-1 5-3 6l-1 1c0 1-2 3-3 2 0-1-1-2-3-1l-1 1-1 1h-2l-3 2c0 2-1 2-2 1-2-1-3 0-4 1-1 2-2 3-3 2l-3 1v2c1 2 1 2-1 2h-2l-1 1h-2l-1 1v-7l1-1 2-1c0-2-2-1-4 0l-2 1-4-3-3-3h-2a27 27 0 0 0-9 3l-6 5v1c1 1 2 1 3-1 3-2 3-3 4-2l-1 6-2 4-3 6 1-6v-5l-2 4v2l-1 3-1 2-1 2-3 5c-2 1-2 0 0-4l1-3 3-6 1-4-1-1-3 2v1l-6 4-4 3-4 5-5 4-4 3c-2-1-2 0-2 2v2l-1-1h-3v3c1 1 0 3-2 3h-1v2c0 2 0 2-2 3l-2 2v2l-1 2-1 1c-2 0-2 1-1 3l1 2 1 3 3 3 1-2 1-1h2c1-1 1-1 2 1 0 2 1 1 3-1l3-2 4-4c4-4 5-4 6-4l3-3Zm-22 2v2l-2 6v-2c1-3 0-5-1-3l-1 1v-1l1-2 4-5-1 4Zm6 6h1-1Zm0-11c-1 5-3 7-3 5l1-3v-3l1-2 2-3-1 6Zm15-8v3c-1 4-3 6-4 4 0-2 3-8 4-7Zm-8-4-1 6-1 3-2 2v-1l1-4 1-4v-2h2Zm0 18c-1 2-2 3-3 2l1-2 1-4c0-2 1-2 1-1l1 1c1 1 1 2-1 4Zm8-25-2 4a35 35 0 0 1-2 6c-1 4-4 5-3 2l1-3 1-2v-2l1-2v-2l3-3 1-1v3Zm90-51-2 2-1 1-1-1c-2-1 0-3 3-4l2-1-1 3Zm4 8 1-2c1-2 2-2 1 0v8l1 2v2l-2 2h-2c-1-1-1-1 1-3 1-3 1-5-1-5l-1-1s0-2 2-3Zm-5 12v-3l1-3c1 0 2 1 1 4l-1 3v1h-2l1-2Zm-11 2h1l1-2 1-1 2-1 1-2c0-2 2-7 5-10l4-6 1-3 3 3-1 1-3 4-2 3-3 4-2 4-1 4v2c-1 1-2 1-2-1v-1h-1l-1 1-2 1h-1Zm-41 14c1-2 2-2 2-1v4l-1 4c-1 1-1 1-2-1l1-6Zm-1-4 1-1v1h-1Zm-4 10v-1 3l-1 1v-1l1-2Zm-2 4v1-1Zm-3-7 3-6 1-3v-3l3 2-2 3-1 3c-1 2-4 6-4 4Zm-5 11 2-4 2-4h2l-2 6-3 3c0 2-1 2-1-1Zm0-10 3-6v-2l1-4h2l-1 4a348 348 0 0 0-5 8Zm-3 10v-1l1 4v4l-1 1-1-1 1-2v-2l-3 3-1 1 4-7Zm-7 6 2-3-1 2c-1 4-2 4-1 1Zm-2 7 1-3h1l1 1-3 3v-1Zm-9 5 1-2 1-3 1-2c0-2 2-4 3-4v4l-4 7c-2 1-2 2-2 0Zm0-12 1-3v-3l4-8c2-1 3-2 3 0l-1 2a75 75 0 0 0-2 6l-1 2-1 3-1 2h-1c-1 1-1 1-1-1ZM165 87c0-1 0-2 1-1l1 2-2-1ZM166 96l-1-1 1-1 1 1-1 1ZM179 93h-1v-3l2 2-1 1ZM173 92h-1v-1l1-1c1 0 2 1 1 2h-1ZM168 91v-1l1-1v2h-1ZM202 351l1 2h-2l1-2ZM158 339v2l-1 1-2-2v-2c1-1 2 0 3 1ZM164 345c2 0 4 2 3 4l-3-1v-3ZM163 337l2 2-2 1-1-2 1-1ZM204 353c1 0 3 1 2 2h-2v-2ZM118 313c1 0 2 1 1 2l-2-1c-1-1 0-1 1-1ZM85 194v6c0 3 0 3 2 4l3 3 2 1c0 2 3 3 4 3h14l1-2-1-2-2-2-2-3-2-5-1-7h1l1 1 1-1v-2c-1-2-1-3-2-2l-2-3c-1-1-2-1-3 1l-5 3-5 3h-5l-2 1 3 3Zm17 12 2-3 1 1c1 1 1 1-1 2-1 1-2 2-2 0Zm-5 0 1-2 2-3 1-1-1 4c0 2-1 3-2 3l-1-1Zm-3-1 6-13v-1h1l-5 11v1l-2 2Zm-5-1 1-2 2-3 1-2h1l-1 3-1 3c-1 1-2 2-3 1Zm-2-3 2-3v1l-1 1v1h-1ZM198 163l-2-2h2v2ZM113 316l1 1-1 1v-2ZM210 176v-2l-1-1-1 1v1c-1 1-5-2-6-4v-5h-9l-3 1-2 3-4 5-1 9v8l2 2c4 7 4 7 7 9s4 2 4 1l2-1 1-2 1-2 1-1 3-9 5-9v3l-1 3a169 169 0 0 1-10 19l2 2 5-4 5-5 4-4 2-2c2-2 2-6 1-9l-1-1c0-2-1-3-4-4l-2-2Zm2 14 2-4c1 0 1 2-1 4-2 5-3 4-1 0Zm-1-6 2-3-1 3-1 2v-2Zm-2 7-3 5v-1l3-4Zm-15-21-2 2-1 2c-1-1-1 0-2 1l-3 4v-1c0-2 2-5 5-7l3-2v1Zm7 3-3 6a85 85 0 0 1-7 14l-2 3-1-2-2-5 1-2 1-2 6-11 3-4v-1l3 3 1 1Zm0 10-1 1-1 2-2 3-2 5-1 3-2 2h-1l1-3 1-2 1-2a191 191 0 0 0 9-16l-2 7Zm0 6-1 4-3 3 6-12-2 5Zm5-9c-1 2-2 2-2 0l2-3v3ZM238 176c1 0 2 0 2 2s-1 3-2 2h-1l-1 1-4-3-1-1-1-2c1-1 3-1 3 1v1l1-1v-4l2-1h3l-1 2-1 2c-1 1-1 1 1 1ZM216 236c2 1 3 1 5-1h6l3-1c2-2 3-4 3-9l-1-5-1-9-4-11h-2l-1-1c-2-1-3-1-4 1l-2 2-2 1-3 3-2 4v11l2 12 3 3Zm-2-25v-1 1Zm3 3-2 3h-1l1-4 2-4 1-4h1l-2 9Zm7-11-1 2-1 1v-4l2 1Zm2 14 2-4 1 3-2 3-1-1v-1Zm-3-4 2-5v5l-1 2-1 3v2l-1-1 1-6Zm-1 8v1-1Zm-2 6v-1h1l-1 1Zm-2 5h1l-1 1v-1Zm-1-5c-1 3-2 3-3 2v-1l2-6a77 77 0 0 0 5-13v-2 7l-1 3-1 4-2 6Z"/>
    <path d="m192 186-2 4-1 1-1-2 1-2 2-3 1-2 5-9h1c1 1-1 4-2 7l-4 6ZM194 241l3-1c2 0 3 0 4-2l2-2 1-1-1-3-2-4-5-8-2-1-6-7c-2-4-3-4-8-4l-2 1-1 3-2 2 1 4 1 7 2 5 2 3 2 2 2 2 4 3 5 1Zm-11-14 1-1v1h-1Zm-2-13c-2 4-3 5-3 3s1-5 3-5v2Zm3 2-2 8-2 2c0 1-1 1-1-1v-2l2-2v-2c2-2 3-6 3-7l1-1-1 5Zm4 2-1 3-1 2c-1 2-1 2-1 0v-2l1-3 1-2 1 2Zm3 3-1 3-1 3v3c-1 2-2 3-2 1l3-12 1 2Zm4 3v1-1ZM122 318h1v1h-2l1-1ZM212 132c1 0 2 1 1 2h-3l1-2h1ZM123 214l1 3c-1 1-3 0-3-1l2-2ZM148 203l1-1 1 2-2-1ZM370 75c-1-1 0-3 2-2l1-1 1-1h2l1 1v2l-4-1v2h-3ZM352 103l1-2c2 0 2 1 1 2h-2ZM348 107v-1h2v2c-1 1-3 1-2-1ZM388 60v1c-1 1-2 0-2-1s2-2 2 0ZM382 39h2v1l-2-1ZM380 68h-2v-2c2 0 2 1 2 2ZM373 67l7-6c3-1 3-2 3-4v-2l2-1c1 0 2 0 3-2s1-3-1-3h-1v-1l1-4c0-3-1-4-4-2h-1l-2-1c-3-1-4-1-3 3l1 3c1 1 0 2-1 2h-2v-3l-2 1 1 2c1 0 1 1-2 3l-6 7c-2 1-2 2-2 3l-1 3v5l1 1 2 1 2-1 5-4Zm-2-1c-3 3-4 3-5 2l2-5c0-2 1-1 1 0 0 2 0 3 1 1h2l-1 2Zm6-7v-1l2-2 1-2v4h1l-1 1h-3Zm-2-6c2-2 2 0 1 2l-1 2v-4ZM153 210l-1-3v-2c1 0 2 0 2 2l1 2 1 2c-1 1-2 0-3-1ZM382 64c0-2 1-2 2-2v3c-1 1-2 0-2-1ZM204 250h-3l2-2 2-2h2l-3 4ZM174 198h2v1l-1 1-1-2ZM324 124h-1l-1-2 2 2ZM117 187l-2 6-1 2-1 1c-1 2-1 4 1 6l5 4 4 4 3 2 5 4 5 3 3 2 2-1 3-1 3-1 1-3 1-2-1-4-6-8-5-6c-2-5-3-6-3-12v-6l1-2c0-2-1-3-2-3h-1l-2-4-1-1v-1l2 1 3 1 2-2v-2c2-2 2-3 1-3l-1-3-1-2c-1-2-3-1-2 2l1 2v2c-1 2-2 1-2 0 0-2 0-2-2-2-3-1-3 0-4 1l-1 2c1 1 1 1-1 2l-3-1-2-1-7 7-6 8h-3l-1 4h2l2 3 1 3 2 5c1 3 3 2 4-2l3-6 1 2Zm-7-1h-1l-1-2 1-2 1-1v5Zm1 2v1c-1 2-1 2-2 0l1-1h1Zm33 26 1-3v-1l1 3-2 3v-2Zm-4-6 2-3v6l-1-1-1-2Zm-22-25-1-1 1-1v-2l2-1-2 5Zm10-5v3l-1-1 1-1v-2 1Zm1-3v-1h1l-1 1Zm2 3c0 1 0 1 0 0v-1 1Zm4 31 1-3 1-3c0-2 1-2 1-1 1 2 0 6-1 7h-2Zm-6 3-1-1 1-1 3-4 1-3 1-3v-2l-1 9-1 3c0 3-1 3-3 2Zm-2-8 5-14 1 4-2 5-1 5-2 6-1-1v-5Zm-7-2v-2l6-17v3l-1 3-2 5c-2 6-3 8-2 9h1l2-4a191 191 0 0 1 7-19l-1 7-2 5-1 3v3l-1 3-1 3-1 2c-1 1-2 1-3-1l-1-3Zm-3-6 3-10 1-3 2-5h1l1 2-1 1v1l-2 7c-1 1-2 2-2 5l-4 7-1-1c-1-1-1-1 1-2l1-2Zm-2-25v2l-1 2c-1 2-2 2-2 1l4-7h2l-1 2h-2ZM173 208v1c-1 1-2-1-1-2v-2l1-2c2 0 3 2 1 4l-1 1ZM346 111l-1 1-1-3c2-1 3 1 2 2ZM336 115l1-1h2v1h-3ZM333 117l1 3-3-2 2-1ZM117 214c-2-2-1-3 1-2l1 2h-2ZM321 103l6 1 7-1 4-1-5 4-2 2h-8l2 2 2 1 2 1 5-1 11-7c7-5 8-7 10-10s2-5 1-5l-1-2 1-3a23 23 0 0 0 0-19l-1-1-1 1-1-1c-1-1-2 0-2 1l-1 1v3c1 1 2 2 2 5l1 2-1 3-1 3v-4l-1-7c-1-2-2-2-4-1v4c2 3 1 4-1 3-1-1-1-2-2-1h-4l-2 3c0 2-2 3-3 2v-3l-1-1c-2 0-5 2-6 4l-1 2-2 2-1 4 1 2 6 4h3l2 1 1-1 3-2c3-2 5-4 6-7s1-4 2-3h2l1 1-2 1h-1v4h-1c-1 0-2 1-1 2v1h-3c-1 1-1 2 1 2l-1 2h-2c-1-1-3 0-3 2v1h-1c-1-1-1-2-2-1l-1 1c1 1-1 3-5 2l-3-1-2-1v-3l1-1-2-2-1-6c1-3 0-4-2-4-1 1-2 4-1 8l-1 2-1-1v-4c0-3 1-4 3-6l2-3c2-3 3-4 5-4l5-1a92 92 0 0 1 8-4l7-2c2 0 2-1 1-2l-2-2-1-1c-2 0-4 2-6 4s-3 2-6 2l-5 2-7 4-2 3c-3 3-4 5-4 9v6l2 3 5 7Zm8-16v-2 2Zm11 14v-1h1l-1 1Zm13-14-4 6-1 1 1-2 2-4 2-2v1Zm1-6 1-4v4h-1Zm-16 24a94 94 0 0 0 16-13l-3 5-13 10-1-1 1-1ZM210 251h-3c0-1 0-2 2-3l3-3 2-1c1 1-2 5-4 7ZM228 176h-2v-2c1-1 3 1 2 2ZM229 182l2-2 2 1 1 1c2 0 2 1 2 2s0 2-2 1c-3 0-3 0-2 2 2 2 2 3 0 3-1 1-2 0-2-1-1-2-2-3-3-2l-1 1 1 3-1 1c-1 0-2-1-2-4s1-4 2-4c2 1 3-1 3-2ZM229 193v1l-2-1 1-1 1 1ZM224 177l1 1 1 2c1 0 2 1 1 2-1 2-3 1-3-1l-1-1-2-1v-2h3ZM207 224c-1 1-2 1-2-1v-2c2 0 3 3 2 3ZM275 209l-2-1 1-2c1 0 2 2 1 3ZM275 211v2h-2l-1-2 1-1 2 1ZM278 230l2 2v1c-1 1-4-1-4-2l2-1ZM238 229l1-1 1 2-2-1ZM278 236c2 0 2 2 0 4s-2 2-3 0l1-3 2-1Z"/>
    <path d="M236 190v3l-2-1c-1-2 1-4 2-2ZM238 220h1l1 2h-3l1-2ZM235 209v-2c1 0 2 1 1 2h-1ZM233 205l-1-3-1-3v-2l-1-2v-2c2-1 2 0 3 1l1 4v1l1 6h-2ZM206 205c0-2 1-2 2-2v2h-2ZM324 119c-1-1 0-2 1-2v2h-1ZM237 215h-1v-2l1 2ZM340 25h2l-1 6h-1l-1-1 1-2v-3ZM353 31l-9 1c-3 1-5 3-5 4l1 4 3 3 5 1h3l2-1 6-1 10-1 7-2c4-2 6-4 6-5l-2-1-3-1-2-1h-2a31 31 0 0 1-14 0h-6Zm19 4 2-1v1l-2 1v-1Zm-2 2h1l-1 1v-1Zm-10 2 1-1 6-3 1 1-1 1-6 2h-1Zm-1-4 1-1 1 1h-2Zm-15 4h-1c-1-1 0-1 1-1v1Zm5-6h5l4 1-4 3-3 1-1 2h1c2-1 2 0 0 1h-4l1-2 2-1 1-2v-1h-2l-2 1 1-2 1-1ZM345 29c-1-1-2-2-1-3h2l2 2v1h-3ZM261 170l2-2 2 2-1 1c-1 1-3 0-3-1ZM297 164l1 2-1 1-1-1c-1-2-1-3 1-2ZM47 163h-2c0-1 1-2 2-1v1ZM50 163l1-2c0-1 3-1 3 1l-1 1-1 1-1 2-2-1c-1-1 0-2 1-2ZM274 168v-3c2 0 3 2 2 3h-2ZM48 160c-1-1 1-2 2-2v1l-1 1h-1ZM43 170l-2-2 1-1 2-1 3 2 2 3-1 1-3-1-2-1ZM285 163l-3-3 1-1 2 1 1 1c2 0 2 1 3 2l-1 2h-1l-2-2ZM294 149v-2l1-1h3l-1 2c-1 1 0 1 1 1l2 1c1 1 1 2-1 3h-1l-2-1c-2-1-3-2-2-3ZM290 158h-3v-1l2-2h2l-1-1v-3c2 0 4 2 2 3l1 1 1 2 1 2-1 2-1 1-1-2v-2h-2ZM292 168c-1-1-1-2 1-2l1 1v1h-2ZM279 168v-2h7c1 1-1 3-2 2h-1l-1 1c-1 1-2 1-3-1ZM76 205v3l-2-2 2-1ZM84 208v-2c1-1 2 1 2 2h-2ZM259 151l2 4 2 2c2 1 3 0 4-1l2-2 2-2 5-4 3-3c1 0 2-1 1-4v-5l-1-3 1-1h2l1-1 1-1 2 1h-1c-1 0-2 1-1 3l2 4c2 2 3 2 3-1l1-3h2l3-1 2-2 2-1c3 0 3-3 0-6l-2 1c-1 2-1 2-2 1h-2l-1 2 1 1h-1l-1 1-1 2v-2l1-5-2 1h-2l-2-5c0-2-2-3-2-3l-2 1 1 3v1h-2l-2-1v-3h2v-2l1-3 1-3 1-1 2-2v-1a2 2 0 0 0-3 1l-1 1-2 1-1 2v3l-1 4-1 1 1 2 1 2c0 2 0 3 2 3 1 0 2 1 1 2l-2 1h-1v1h-1l-3-4-1-3v-5c0-3-1-4-2-3-1 0 1-5 3-7l2-1 2-2 4-1 1-1v1h4l1-2-1-1c-2 0-2-1 0-2s3-1 3 1v1l1 1h5c1-1 2-1 2 1l1 4 1 2 1 1 2 1h4l1-1v3l1 3c2 0 2 1 1 3 0 1 0 2-2 3-1 2-1 2-2 1l-1-1-1-1-1-2-2-3c0-1 1-1 2 1 0 1 0 2 1 1l2-1c0-3 0-4-1-3l-2-1h-5v1c0 2-1 2-3 3-3 2-3 1-5 0l-2-1-1 3 1 4h5l3-1 3-1 2 2 3 4 2-1v-1l-1 4-1 3 3-1 2-1a27 27 0 0 0 7-8l4-9-1-5-6-9-3-4-1-4c-1-2-1-2 1-2l1-1c1-2-1-3-2-2h-1l1-3c2 0 2-2 2-3v-2l2-1 3-2v-1c-1-1-3 0-4 1h-3l-2-1-2-1 1-1 2-1v-5c1-2 1-4-1-3l-1-1-1-1-2 3 1 1 1 1v6h-1l-1-1c0-1 0-2-1-1-2 0-2 2 0 2l1 3 2 4h1c0 1 0 2-2 1l-4 2-2 1-1 1-3 1-2 1h-2c1-2-1-3-2-2v3c1 1 0 1-2 3a143 143 0 0 0-9 6h-2c-1 1-1 0 1 3v2l-1 2-4 2h-8l-2 1 1 2c1 1 1 3-1 2-1-1-2 0-2 1l-1 1c-1 0-2 1-1 2l-1 2-2 1v3c1 1 2 1 3-1 1-1 2-2 3-1v1l2 3 2 5v3l-2 2-2 3-2 4c-2 2-2 3-2 7l3 4Zm2-37h-1 1Zm48-35c0-1 0-1 0 0h1-1Zm6 28h-1v-2h1v2Zm2 4v1h-1c0-1 0-2 1-1Zm-3 8 1-1v2l-1-1Zm-11-22-1-1 2-1-1 2Zm4-7-1 1v-1h1Zm2 12 1-1v-1l1 1v2l-2-1Zm-7 4v-2l1 1 1 1h2l1-1 1 2v2h-2l-2-1c-2 0-3 0-2-2Zm-1-21h1l-1 1v-1Zm-1 14 1 1c-1 1-1 0-1-1Zm-1-9v-1 1Zm-4-1-2 1h-1l3-1Zm-4 10 1-2c0-2 0-2 2-2h2l1 2c1 1 1 1-1 1l-2 1-3 1v-1Zm-3-6v-1h1v1h-1Zm-2 4 2-1v1h-2Zm-7 4 1-3v4c0 1-1 1-1-1Zm-14 18v1c0 2-1 2-1 1l1-2Zm1-7c-1 1-1 0-1-2 1-2 2-2 2-1l-1 3Zm2 15h-1v-1c-1-1 0-2 1-2v3Zm4-2-1 1v-1h1Zm-10 26 1-3v-2l2-2v-2l1-2 1-1 1 2c0 2 0 2-1 1l-1 1 1 3h3l4-1 1-2 1-2 1-2v-2c-1-1-3 0-3 3l-2 3v-1l-1-2-1-2c0-1 0-2 1-1s1 1 2-1l1-1 1-2c0-1 0-1 0 0 2 2 3 4 3 8v1l-2 2-2 3-3 2c-2 1-4 2-4 4 0 1-2 2-3 1l-2-1v-2Zm-3-5c0-1 0-3 2-5l2-3 2-3c1-2 1-2 3-2l2-1h1v1l-1 1h-2c-1-1-2 0-2 1l-1 2-1 3-1 2c-2 0-2 1-2 3v1h-2ZM249 181h-3v-1l-2-2-1-2v-1l-1-5 2-1h1v5l1 2 1 1 2 1v3ZM70 211c-1-2 0-3 3-3 1 1 2 2 1 3h-4ZM55 216l2-1h2c1 0 2-1 2-3l1-2 5-4 3-2 6-5 2-1 1-3v-2c0-2-3-3-4-2v2c1 2 0 2-1 4l-2 1 1-1v-2l-1-1-5-1-7 2a177 177 0 0 1-11 3l-3-2c-2 0-1 2 1 3l1 1-3 3c-1 1-2 3-1 7v3h2l4 1c2-1 3 0 3 1l1 2 1-1Zm4-12 6-8h3l-2 3-2 3h-2l-1 1c-1 2-2 2-2 1Zm-7-3-1 2-2 1v1l-1 2c-1 2-1 2-2 1l1-2c0-2 1-4 3-5h2Zm1 10h-2v-2l5-9 2-1-2 8c-2 2-1 4 0 2h2c1 1-2 3-2 3l-3-1Z"/>
    <path d="m266 148 1 3c-1 1-2 1-3-1v-2h2ZM270 203c-1-1 0-1 1-1l1 1h-2Z"/>
    <path d="m11 188 2 3c1 2 3 4 6 5l3 2h3l3 1h9v3l-1 4v9l1-1 1-2h1c1 1 4-1 3-2l-2-1h-2l1-2 2-3c2-1 2-3 0-4v-2l1-3 3-6a2335 2335 0 0 0 19-34l4-5 2-3c0-2 2-3 3-5l3-4a56 56 0 0 1 13-14l2-1 2-1-3 3c-2 1-3 2-2 3h1l2-1h1l1 1h2l1-3v-2h2c1 1 2 0 2-2s1-2 3-3l2-1 3-5 2-1a67 67 0 0 1 1-6l1-1c0-1 0-1 0 0l2 2v-2l-1-1-1-1 1-3c0-2 0-2 2-3l2-2 1 1h3l-1 4 1 1 1-1 1-2 1-1 2-2h2l2-1v-2c0-2 0-2 2-2l1-1h2c2 0 2-1 2-2l1-2c1 0 2-1 1-3h2l2 1 1 1c1 2 3 3 4 2l-2-5h-1l2-1h3c2 2 3 2 5-1 1-2 0-2-1-3l-1-2-1-4-1-1a52 52 0 0 1 11-4h5l2 1 2 1 2 1v1h-2c-2 0-4 2-6 4l-3 1-2 1h-2l-1 1 1 2v1l1 2 1 3c0 2 1 3 2 2v-2l1-2h1c1-1 2-1 3 2l2 2h5l3-1h13l4-1 4-1 4-1 2-2 2-1 3-1c1 0 2-1 1-2l-1-2-1-1c-2 1-2 0-1-1v-2h-3l-2-1h-3l-2-1 6-1 6-1 6-2c3-1 7-2 9-4l5-2-3 4-2 3c0 1-1 2-2 1l-3 3v1h-2c-2 0-2 0-2 2l2 2v10h-2l-1-1-1-2-2 1-2 1-2-1-1 2 1 2 2 1 1 1 1 1c1 1 2-1 2-1 0-2 1-2 2-2h2c2 1 2 1 3-1v-2l4 1h4l3-3 4-3c2-3 4-4 6-4 3 0 4 0 5-4l3-3 1-2-2-2-1-1c0-1 0-2 1-1l1 1h5l3-2 6-3 3-2 5-1 4-2 3-1 3-3c3-2 4-4 3-6v-2c0-1 0-3-2-4-1-2-4-3-6-2l-2-1 9-2h2v-2c0-3 1-5 3-7s3-2 3 0l-1 2c-2 0-2 2-1 3s0 2-1 2l-1 2 2 1h2c2 1 3 0 3-2l1-1c1 0 2-1 1-2l1-2v-4l-4-1h-2l1-1c1-1 5-4 8-4l2-1 2-1 3-1 6-1 10 1 10 3 2 2 7 5 3 2 7 3 2 1h4a110 110 0 0 0 13 1c1 1 4 0 6-1h2l2 1 2 1 2 1c2 0 3 1 3 2v1l2 1c2-1 3 0 2 1v1l2 1 1 1 2 2h1v5c-1 1-1 2 1 3l1 1-1 1v4l1 2-2 1h-1v2c1 2 1 3-1 2h-1l-1 2-4 3-2 6h2l-2 1-1 2-3 6v-3c2-2 1-4 0-3l-3 4c0 2 0 3-2 3s-2 1-4 4c0 2-1 3-2 3l-2 2-1 3-3 3-4 8-2 4-1 2v2l-1 2c0 2-2 4-3 3l1-3 2-6h-3c-2 0-2 0-3 2l-5 5-3 1c-2 0-3 0-4 2l-2 3-2 3c-2 1-3 4-3 5l-1 3-2 4 1 1 1 1v1l-3 3-4 2c-2 2-3 2-1-2 2-3 2-3 0-5-1-2-2-2-3-1s-1 2 1 3v3l-2 3-1 4-1 3c-1 3 0 4 1 4l1-2 1-1 4-3 9-7 7-5 5-3a114 114 0 0 0 14-15l3-4 4-4 3-4c4-3 7-7 7-9l3-4a60 60 0 0 0 7-8l2-4 3-3-4 7-2 3-3 3-2 4-4 5a110 110 0 0 0-8 10l-2 4-3 2-1 2-1 2-1 1-6 7-4 3a170 170 0 0 1-24 20 122 122 0 0 0-16 17c-2 1-2 2-2 4l-1 3v-2l-1-3-1-2 1-2 2-2 1-2h-2l-4 1-2 1 1 1 1 2-3 1-1 1-3 1-6 2-2 1-4-1h-3l-4-1h-5c-1-1-1-1-4 2l-3 4-1 3c-1 1 0 2 1 2l1 2c-1 1-1 2-2 1h-1l-4 5-1 3-1 3-1 2-1 2c0 2-1 2-1 1l1-4c0-3 1-6 3-8l1-2 1-2 2-2c0-1-1-2-2-1l-3 1c-3 0-4 1-6 3l-4 3c-3 2-4 4-5 6l-1 6a30 30 0 0 1-1 9l3 8 1 2 2 2 1 3v3c-1 2-5 6-9 8l-4 4h-2l1-2 2-8-3 6-2 4 1 1v1l-1 1-4 1-5 2-4 1-5 2-3 1h-7l-5-1-1-1 1-1v-2h-1l-2 1-3-2-7-4-5-2-4-2a150 150 0 0 1-10-5l2-1s2-1 2-3l-2-9-6-5h-4l-4 1-2 2 1 2 1 5 1 3-5-2a347 347 0 0 0-23-8v-1l-1 1h-4l-4-1-5-1-7-2a150 150 0 0 1-21-3l-4-3v-1l-2-2-1 1v2l4 3s1 0 0 0h-3l-5 1-6 1-5 1c0 1 1 2 4 1l3 1 1 1 1 1 2 1a25 25 0 0 1 11 3l3 1h3l7-3 2-1-1-1-1-1c1-1 7 0 9 1h4l6 2 4 1 4 1h-4c-5 0-8 0-11 2-2 1-2 2 1 2v1l3 1 2 2 3 1 8 4c3 1 4 1 6-1l3-1 3-1h2l2-1c0-1-1-2-3-2-1 0-2 0-1-1l3 1h2l3 1 2 1h5l3 2 5 2 3 1 4 2h-5l-3 1h-3l-4 2-3 2-2 1v2h2c2-1 5-1 7 1l3 1 2 1 3 2 3 2 1 3v2l3-4 1-1c2 0 4-1 3-3v-1h1l4-1c4-2 5-2 7 0l2 1 5 4 2 2c4 1 6 4 6 4l-2 1h-10c-2 0-3 0-5 3l-2 2c-1 0-1 1 1 3l8 8h-1l-5-3-5-4-6-4-4-2-10-6-7-4-11-6-6-3-5-2-5-2a148 148 0 0 0-12-5c-1-1 0-2 1-1l8 2-3-2-5-3-9-3c-1 0-2 1-1 2h1l2 1 1 1h-1l-2-1-5-1h-1l-7-1-5-1-4-1-7-2-5-1-4-1h-2l-7-2-8-2-4-1v-1l-1-2h-2v1l1 2h-2l-3-1-1-2v-2h-3v2c0 2 0 2-3 2h-6l-5 2-5 5-2 3-3 6c-3 6-3 7-2 12v4a16 16 0 0 0 2 9l6 5 1 1 3 2 6 2 4 3 3 3 3 2 3 1 2 1 3 2 6 4 4 3 4 4 3 1 3 2 4 4 4 2 3 2 3 3 4 2a57 57 0 0 0 5 3l2 2 2 1 3 1 4 3 2 1 1 1 2 2 3 2 3 1 2 3 4 2 11 7 8 4 1 2 6 3 2 1 4 2 3 1 3 2 3 1 9 3 8 1a202 202 0 0 1 17 5l4 1 6 1 5 1 4 1a82 82 0 0 0 15 4 130 130 0 0 0 13 4l2 1c1-1 3 0 5 1l4 2 5 2 3 1 4 3 3 2h8c1-1 2-1 2-3l-3-6-7-5-11-5-4-3-4-1v-2l4 1 5 1h6a394 394 0 0 1 37-1l11-1a371 371 0 0 1 32 5l3 2c2 2 2 2 5 1s4-4 2-6a70 70 0 0 0-10-11l-5-3-6-1-3-1-6-1a226 226 0 0 1-20-1 84 84 0 0 1-13-1l-7-1h-4c-13 0-20 0-21-2l3-1 14-1c3-1 7-1 9 1h14c3-2 3-4 0-6l-5-3a19 19 0 0 0-5-2h-5l-2-1h-2l-2-1h-9l-7-1v-2l7-1h7l1-1c2-1 2-2 1-3 0-3-5-5-13-6-5 0-6 0-6 2-1 1-1 1-2-2l-2-2-1-2 2-1c5 0 5-1 5-2s-2-2-7-3h-2l-2-1-3-4-3-4-2-2-3-2-3-4a26 26 0 0 1-4-5l-9-8-5-5-8-7-3-2-2-2 7-2 6-2 5-2c4-1 9-2 12-5a104 104 0 0 0 10-7l-1 10a60 60 0 0 0-1 9l-1 4v12l1 7 8 10 2 2 4 4 3 2 4 4 5 4a333 333 0 0 0 36 28l3 1 4 1 8 1 5 1 3-1h3l8-3 2-1 4-1 5-2 6-3c3-2 5-2 13-3l9-1 5-1h9l4 2h8l4-3c0-2-3-5-5-6l-2-1-7-4-10-1a127 127 0 0 1-21-2l2-4 3-4 3-3 1-3 3-4 4-4 5-4 2-2h4c5-1 7-2 8-4l2-2c2-2 2-4 2-5l-2-1-5-1h-6l-4 1c-1-1-5 0-5 1l-3 2-4 3-7 6-5 4-4 2-5 3-12 4h-4l-1-1-2-1v-1c-1-2 1-7 3-9l1-3 2-3 1-1v-2h-3l-2 3-2 3-1 1 1-3v-4l-1-1 1-2h1-1c-2 0-1-1-1-2l-3 2-3 4-5 6-3 2-7-6v-6c0-2-1-2-3-2l-2 1-2 2-2-2-8-5-7-7-1-5 1-6a30 30 0 0 1 5-8 33 33 0 0 1 4-9l2-6a127 127 0 0 0 6-14h6l4-3v-9l1-4c1-4 3-6 6-8l3-2 2-2 2-3c1-3 1-3 3-2h2l2 1 6 3 4 4 4 2 4 5 1 2 1 4 1 4 1 4v4l1 2 1 2 1 1 1 1 3 2 3-3 1-4v-6h-1l-2 4c0 3-1 6-3 6l-3-6v-3l1-3h8v-6l-2-6-1-2-4-8-4-7h1a196 196 0 0 0 13 1l12 3 2 1 7 7 6 5h3l2-2v-1l1-1c1-1 1-1-3-6a143 143 0 0 1-7-8l-2-3-8-5-2-1-2-1-5-2-5-2-5-1c-2-1-2-2-1-2 1-2 4-2 10-3l6-1h5l9 4 6-1c2-1 2-2 2-3l-5-5-3-2-8-2-3-1h-3a241 241 0 0 0-29 0l-2 1 1-1 2-3 5-4 4-5 4-5a101 101 0 0 0 9-10l3-4 2-4 3-4a41 41 0 0 0 7-9 86 86 0 0 0 4-7l4-7 1-4 2-5 1-3v-5l1-5 1-7v-6c-3-5-7-9-16-16a32 32 0 0 0-9-4h-11l-5-1h-12l-3-1-6-4-7-5a38 38 0 0 0-32-2h-2l-3 2c-3 1-6 2-7 4l-2 1c-2 1-4 4-5 7l-2 3-4 1-6 3-3 1-4 2c-1 2-2 2-3 2l-3 1-7 4-7 4-7 5-3 2-4 2-2 1h-1l-3 2-11 4-6 2-7 1-6 1-10 1-9-2h-2l-3-1c-2-2-6-2-7-2l-3 1-8 3-3 1-3 1-10 6-7 5-8 5-1 1-7 2-5 2c-4 1-5 1-7 3l-2 1-1 1-2 1-5 3-5 4-9 6a220 220 0 0 1-12 11l-2 3-4 3-5 4-4 5-5 4-5 5-7 7-2 2-3 4-6 6-3 2-2 2c-4 3-6 8-7 14l-1 4c-1 1 0 3 1 5Zm373-44v-1c2-1 4-1 10 2 3 1 4 3 4 4 0 2-1 2-5 1l-7-3v-1l-1-2h-1Zm7 126h2l4 1h1l-1 2c-1 2-2 2-4 2h-2l1-2-1-2v-1Zm3 50 2-1 2-1 1-1c1-1 7 4 6 4l-3 1h-3l-5-2Zm-125-4h4l3 3h-6l-2-1 1-2Zm-7 3 1-1v1h-1Zm17 12 10 1 6 3v2h-2l-2-1h-2l-9-1c-2-2-2-4-1-4Zm-11 1h2c2-1 5 0 6 1 2 1 1 2 0 2l-2-1-3-1-3-1Zm-8 3 1-2v-2c0-2 0-2 2-2h2l-1 2c-2 2-2 3 0 4h1c1 1 0 1-2 1h-3v-1ZM114 227l-1-1h2l-1 1Zm-24-7h-4l-2-1-2-1 6 1 2 1Zm31 5h1-1Zm9 7v1a68 68 0 0 1-9-4l-2-1c-2 0-2-1 0-1l4 2 1 1 6 2Zm2-2-2-1 5 1h-3Zm26-10-2 1 2-3v2Zm4 0v3l-1 2-1 3 1 1 1 2v1l-2-1-2-2 1-3 2-6 1-1v1Zm3 7v3l-1-1v-4l1-2v4Zm1 16-1-1h2l2 1c1 2 1 2-3 0Zm5 3-1-1 3 2-2-1Zm2 4-8-2-7-4h4l2 1 7 4 1 1h1Zm70 47-1-1-2-2 1 1 2 2Zm5 16a505 505 0 0 1-3-3h1l-6-8-2-6 5 6 2 3 3 8Zm-23 7 4 3 2 4 1 1-4-2-4-5-4-4 2-2h5l2 3a31 31 0 0 1 5 7l2 3-2-2c-3-5-8-9-9-9v3Zm3-6 1-1 3-2h2c3 2 9 11 9 12s-1 1-3-1c0-2-3-4-4-6l-4-3c-1 0-1 1 1 2a30 30 0 0 1 6 8c2 2 2 5 0 4l-1-2-7-8-3-3Zm6-9 6 5 2 4c2 3 4 5 3 6l-2-2a56 56 0 0 0-9-11v-2Zm35 45c2 1 1 2 0 1l-1-1h1Zm15 1-3-1h-3l-2-1-8-2h2l6 1c5 0 8 1 9 2l-1 1Zm32-1-2-1h1l1 1Zm12 0h-1v-1c1 0 2 0 1 1Zm6 2 2-1 6 3a41 41 0 0 0 5 3l2 3 2 3-1 1h-2c-6-3-9-5-12-5l-2-1-1-1c-1-2-1-3 1-5Zm-20 4c1-1 3-1 7 1h5l-3-2-2-1h7l2 2 1 2 1 1-9-1-6-1c-4 1-5 0-3-1Zm-2-4h1v1l-1-1Zm-64 6v-1l7-7 1-2 3-3 4 1-1 2c-1 1 0 4 1 6s1 2 3 1l4-1 10 2 3 1c3 0 3-1 1-2-3-1-2-2 2-1l4-1v-2l1-3 3-1 3 1 6 1h5v1l2 5 1 2c-2 1-10 2-16 1l-3 1h-8a195 195 0 0 0-15 1v-1h-3l-8 1-10-2Zm5 14v-1l3-1 3 1 5 2 4 2 2 2 4 4v1h-4l-4-2a54 54 0 0 1-8-5l-5-3Zm-5-8 2 1v1h-1l-2-1 1-1Zm-5 2 4 2-3-1-1-1Zm-1-3h2-2Zm-5 5h1l2 1h1-4v-1Zm-89-29h1l1-6 2-1h4l-1-2-1-1h2l3 1h2c0 2 2 2 4 3l6 2v3c-2 2-3 3-3 5s3 5 8 6l2 1 1-1c1-1 2-1 4 1l3 1v-2l-3-1a99 99 0 0 1-10-4l-2-1 1-1a47 47 0 0 1 11 4l5 3 1 3c-1 1 0 2 1 2l2-2 1-5h5c1-1 2 0 4 1l2 1 3 3 7 5 4 3 4 2 9 1c2 0 2 0 1 2v2l-4-1-4-1-5-1c-7-3-9-3-11-3l-5-1-4-1-3-1-3-1-9-2-4-2-6-2-4-1-2 1h-1l-6-2-2-1-2-1-5-1-10-6c-1-1 0-1 6-1Zm35 4 2 1-2-1Zm-28-28c-1-1 0-1 1-1l1 1h-2Zm-3-18a48 48 0 0 0-4-3l-3-2-6-4-1-1 5 2a121 121 0 0 1 17 11l-3-1-5-2Zm8 17v-2l3 2h-3Zm2-34 2 1 3 1 1 3c-1 0-2 0-3-2l-2-2-1-1Zm2 8 1 1h-2l1-1Zm6-8h-2l-2-1h-1l-4-5h1l2 1 3 2 3 2c3 0 3 1 2 2l-2-1Zm-9 19v-1l-6-4-6-4-5-3-2-1c-1-1-2-1-2-3l1-2 1 1v2l4 2 11 7 4 2 2 2-2 2Zm0-7v1l-1-1h1Zm-3-14v-1h1c1 1 0 2-1 1Zm-2 6h-1c-1-1 0-1 1-1 2 0 1 1 0 1Zm-11-9-3-2-1-1 7 4c1 1-1 1-3-1Zm-1-6 1 1 1 1-2-1v-1Zm2-9h5l2 1c2 1 2 2 1 4l-5 4-2-1-2-2h2c2 2 3 1 2-1v-1h3v-1l-3-2c-2-1-3-1-3 1h-1l1-2Zm14 46-1-1 2 1h-1Zm-23-9v-1h1c3 0 4 1 5 2h-5c-1 1-1 1-1-1Zm3-5 2 1 2 1 5 3c2 1 2 1 1 2l-3-1-3-2-2-2-2-2-3-1c-2-2 2-1 3 1Zm11 16-2-1a72 72 0 0 1-9-5l-1-1c2 0 12 6 12 7Zm-7 26-1-2h3l1 3-3-1Zm-52-29 1 1c2 3 9 7 11 7h4v-5l2-1h3a604 604 0 0 0 14 10c-2 0-3 2-2 4 0 5 2 7 7 9l2 2 2 1 3 2 1 2-1 1-2-1-3-2-3-2-2-2a128 128 0 0 0-14-9l-3-3-9-5-4-2c-7-4-9-6-7-7Zm36 19h2l2 1c2 1 1 2-1 1l-3-2Zm-38-23c0-1 0-1 0 0l1 1-1-1c-1 0-1 0 0 0Zm-23-12 1-1 3 1 3 3 2 1 1-4 1-2 1 1 7 4 3 3 1 1-2 2-2 3c0 2-1 2-4-1a191 191 0 0 0-15-11Zm-21-22 2-1c6 5 6 5 5 7v1h3c1-1 1-1 2 1l3 2c2 1 2 1 1 3-1 1-2 1-1 4h-1l-4-3a62 62 0 0 1-6-4l-3-2-1-1v-7Zm-4 4h1-1c0-1 0-1 0 0Zm-1-6h-1l2-1c1 1 0 2-1 1Zm-3 3 2 1h-1l-1-1Zm-2-10 2 1h-2v-1Zm-15-10 2 2c2 2 3 3 5 3h2c0-1 1-1 3 1l1 2-2 2-1 3v2h-4l-7-5-2-1 1-2-1-4-1-6-1-4 1-2 1-2v-1l1 2v3l1 5 1 2Zm2-8v2l-1-2h1Zm1-3v2l-2-1c0-2 1-2 2-1Zm2-4c2 2 1 4-1 2l-2-2h3Zm14-10-1-1h1v1Zm8 2h-1v-1l1 1Zm0 6c-1 2-2 2-4 2l-3 1h-2l-1-2c-2-3-1-4 4-2h4l-4-2v-1l6 1v3Zm4-4h-1l-1-1h1c1 0 2 0 1 1Zm2-3-2-1 4 1h-2Zm24 9 3 1c2 1 2 2 2 3l-5-1-5-2c-5-2-5-2-3-3l8 2Zm9 0h-3l-3-1c-3-1-3-2 0-1l6 2Zm29 0-1 1v-1h1Zm39 23-1 1c0 2-1 2-4 0l-3-1-4 2-1 3v4l-2 4-2 3v11l-2 1-2 2v9l2 8v2c-2 0-2 2 1 3l5 4h-1l-1 1 2 2v1c-1 1 0 1 2 3 2 3 2 3-2 1l-6-4-2-1a164 164 0 0 1-21-11l-7-4-8-4c-2 0-3-1-5-3l-3-1-4-3a63 63 0 0 0-6-4l-6-3-6-4-2-2a298 298 0 0 0-20-14l-8-7-4-5c-2-2-3-3-4-2h-2c-2-2-1-5 0-6 2-1 3-3 2-4v-3c1-2 0-4-1-5h-2v1l-1-1-2-4 2-2 4-3h6l-2 2v5l1 3v1h-3c-1 2 2 3 3 2s1-1 3 1l2 3 2 1v3c1 1 3 0 3-1l1-2c2-2 2-2 1-3v-1l1-1h1l1-2 1-3h6c2 2 2 1 2-1v-2h2l2-1 1-1 8 2c1 1-2 2-3 2l-3 1-1 1-2 3h5v1l6 2 4 2h-3l-4-2-7-1c-4 0-4 0-4 2s-1 2-3 2-2 0-1-1l-2-1-2-2-3-1v2l1 2 1 3 2 1h1c1 1 0 3-2 5l-1 4 1 4c1 5 3 9 4 9v-4c1-1 2 0 3 2l3 2 1 1h-4l-1 1h-1c-1 1 0 2 3 4l7 4 5 3c1 0 2-1 1-2s-1-2 1-3l1-3-2-5v-3h2l2-1v-9l2-1h3l2-1v-1c0-1 0-2-3-3l-3 1h-1l2-2 2-4v-1h4c1-2 4-3 5-3l2-1 1-1v-2c-1 0 0 0 0 0h2l9 3 4 1 4 1c3 0 5 1 6 3l3 2-4-1-6-1-1 1-3 3c-2 1-2 2-2 3 0 2-1 2-4 4h-6c0 2 0 2-4 2v-1l1-2v-2h-2v2h-2v-1c1-1 0-2-1-2l-1 1-1 1-1 1v3l-1 1v1l1 1c1 0 2 0 1 1v2l2-1 3-3h1l2 1 1 1v2c0 3 0 4-2 6l-1 2-1 1h-3c-3 0-3 0-4 2-2 5-2 8-1 10l5 8 6 4 7 4 7 3 2 1h2l-1-1-1-2v-4l-1-2 1-3 1-3 1-2v-2l2-3 1-2 1-4 1-4 1-3c1-1 1-2-1-3l-1-1 3-2c4-2 6-3 7-5s3-3 7-3l3-1c0-1-1-2-3-2l-4-1-5-3c1-1 6 1 8 2l4 2 2 1 1 1 1-2h2l4 2 2 1 8 5Zm-53-2 2 2h-3c-1-1-1-2 1-2Zm-1 4 2 1h-2v-1Zm8 9 2 1 2 2c-1 1-6-2-12-5-3-1-4-2-2-2l10 4Zm-21 8 3 2a110 110 0 0 0 8 6l-7-3-6-3v3c0 2-1 2-2 0v-5c1-2 1-2 3-1l1 1Zm-1-4h-1l1-1v1Zm0 11c1-1 3 0 5 1 2 3 2 3-2 1l-3-2Zm2-11 4 2 3 2 1 1-3-1-3-2-2-2Zm4-1 3-1 5 3c8 3 10 5 8 6 0 1-1 1-4-1l-3-1-3-2-6-4Zm8 14-1-1 4 2-3-1Zm3 11h-1c-1-1-2-2 0-1l1 1Zm0-5v-2l1 2h-1Zm-8-36h1s0 1 0 0h-1s0-1 0 0Zm5 13 1 1 2 1 3 1 4 4-3-1-6-3-6-4 5 1Zm11-1 1-1v1h-1Zm-7-13 1-2h4l5 3 4 2-1 1c-2 1-3 0-8-2l-5-2Zm3-6c1-1 5-1 7 1l2 1 5 3v1c-1 2-1 2-4 0a73 73 0 0 0-10-5v-1Zm5-3 6 1 4 2 3 2h-4l-9-4v-1Zm-53 7h-2c-2 0-3-2-3-2l2-1 3 3Zm-3-4v-2l1 1-1 1Zm0 7 4 1h-3l-1-1Zm1-11h3v2l-2-1-1-1Zm7 6 2 1 2 1 1 1c-1 1-1 1-6-2l-4-3 5 2Zm3 6-2-1 4 2-2-1Zm1 5-1-1 1 1Zm1 9h-2l-1-1-1-1 4 2Zm0-5v1l-1-1h1Zm0-16h1c1 1 0 1-1 1v-1Zm1 7 1-1 1-2 1 2 1 2v3c-1 1-2 0-3-1l-1-3Zm4-14 1 2-1-1v-1Zm84 23-3 6v2l-1 4-1 4-2 1v-3l-1-3c-1-2 0-5 2-6l2-2 2-3 2-2v2Zm8-1h-3v-1h1l2 1Zm-5 5 2 2 6 4 3 3a277 277 0 0 0-14-8c1-3 3-4 6-3l4 4-2-1-5-1Zm21 5-1 1h-6l-1-1-2-3-2-2h1c1-1 2 0 2 1l4 3 1-1h2l2 2Zm13 9 3 3 3 3c1 1 1 1 0 0l-3-1-2-1h-2l-2-1c-1 0 0 2 5 6l5 6 4 5 3 2c1 2 2 3 0 4-1 1-2 0-3-1-1-3-4-5-9-11l-6-7-1-2-2 2c-1 1-1 2-3 2-3 2-3 3-2 5 1 3 0 3-2 1l-2-2-1 1c-2 0-2 1-1 4v2l2-1 1 1 1 3c1 2 0 2-1 0l-2-1-1 1-2 2-4 5-1 3v7l1 3 3 2 2 3 3 1 2 2 6 2 3 1h3l-1-2-2-1-2-2c-2-3-1-3 1-2h4l2-1h3l2-2 1-2v-5l1-2 1-1 1-1c0-1 1-2 3-2l3-3 3-3v-3l-3-2a38 38 0 0 1-9-10l4 2 4 3 3 2 6 6v-4l-1-1-4-4-8-8v-1l2-3c0-2 1-2 2-3l2-3c0-2 1-2 4-2h4v-3l5 5 5 5 3 2a112 112 0 0 0 3 5h-1l-1 4-1 4v2l-5 10-3 1-8 4-1 3c0 3 1 5 3 6 1 2 1 2 2 1l-1-3c-2-2-2-3-1-3l2 2 3 3 2 4 2 1 3 2 2 1 3 2h3a144 144 0 0 0 10-14l1-3v-10 1l4 5 2 6a380 380 0 0 0 1 14c-1 6-1 7-4 13l-1 3-2 1-2 2a32 32 0 0 1-14 6h-8l-3-1c-2 0-5-1-6-3l-2-1-6-3-4-3-1-1c-1-1-8-6-12-7a110 110 0 0 1-11-3l-4-2h-3l-2-1-3-2h-3l-2-1-3-1-3-2-3-1 1-1 2-1c0-2 0-2-2-3l-2-1-2-2-1-1h2c1 2 3 2 4 2l3 1h1v-1l1-2 1-1 2-1c2 0 2-1 0-2l-1-4-1-4c-1-3-1-3 1-5 2-1 2-2 1-5v-2l2 1 2-1c2 0 2-1 1-2l-1-3c0-1 1-3 4-4 2-2 2-3 2-5l1-1 2-1c4 0 6-1 6-3h2l10 8Zm-17 43-6-5c0-2 1-2 1-1l6 4c2 0 4 3 4 3-1 1-1 0-5-1Zm-4-14 2-1 3 2a187 187 0 0 1 11 9l-2-1-3-1-2-1-8-4v1h-2l1-4Zm4-3 5 2 9 7-1 1-4-2-8-6c-2-1-2-2-1-2Zm8 0 2 1 5 3 2 3c2 1 3 3 2 3l-3-2-2-2a222 222 0 0 1-6-6Zm0-11c1-1 3 1 5 2l12 12c0 1-1 1-3-1l-2-2-3-2-5-4-4-3v-2Zm2-4h3l8 7 3 4 2 3-4-2-11-9c-2-2-2-2-1-3Zm9-18 4 5c3 3 3 4 3 5h-2v-1l1-1-2-2-3-3-2-2-2-2-2-3-3-3h1l7 7Zm9 2c2 1 2 3 0 3l-8-8c-8-8-9-8-6-8l2 1 5 5 4 4 3 3Zm-1-7 4 4v1l-2-2-2-3Zm85-47c-1 1-1 1-1-1v-7l2-2v3c-1 3-1 4 1 4l1 1-2 2h-1Zm9 63-1-1 1-3v4Zm2-6-1 1v-1l1-4v4Zm3 1-1 2-3 8h-1v-2c1 0 2-1 2-4l3-6v2Zm0 13h-1l-1-1 1-1 1-3 2-2-2 7Zm5-23c0 2-1 2-2 1l-1-2c1-1 3 0 3 1Zm74 2h-2l3-1-1 1Zm-6 46 2-1-1-3v-2h6l6 1-1 1h-3v4l-11 1 2-1Zm-8-3c3-1 3-2 1-3l-2-1h4l1 3v1c1 1 0 1-1 1l-4 1c-1-1 0-2 1-2Zm-77 6v-1l1 2h-1v-1Zm-11-17 2-2-1 2h-1Zm-3-3 3-5h1l-2 5c-1 2-2 2-2 0Zm-3-1 4-10 1 1c0 2 0 3-2 4l-1 3-2 2Zm-1-7 1-3 2-3 1-3 1 2-1 2-2 3-2 3v-1Zm-1-8 2-4c1-2 1-2 2-1l1 1-1 1-4 7-2 4-1-1s0-3 3-7Zm-2-3 1-2 1-2h2l-1 2-3 3-1 1 1-2Zm-4 8c0 1 0 1 0 0Zm-4-1 3-7 2-4 1-2c2 0 2 0 1 2l-3 6-2 3-1 2-1 2v-2Zm3-11c-1 2-2 2-2 0l2-2v2Zm-16-82-1 2-1 3a84 84 0 0 0-3 14l-1-2v1l1-5 1-7-1-3v-1l1-1 4-3v2Zm0 57 1-5a102 102 0 0 1 8-21l1-1-1 2-1 5-2 6a78 78 0 0 1-4 13l-2 4v-3Zm14-27v2l-3 6-2 4v-1l1-4a71 71 0 0 1 5-14v5l-1 2Zm1 4 1-3 1 2-2 3-1 1 1-3Zm-6-6 1-3c2 0 2 0 1 2l-1 2-1-1Zm-1 36-2 3-1-1 3-8 1 2-1 4Zm-3-5-4 10v-2l2-7 1-3 3-8v6l-2 4Zm0-23h-1l2-4-1 4Zm0-39-1 3-2 4-1 2v1-2l1-4v-4l1-2 3-2-1 4Zm15-14-1 3c-1 1-1 2-2 1l1-2c0-2 2-4 2-3v1Zm4-2-2 5-2 4 1-4c1-3 2-4 1-5l1-2c1-1 1 0 1 2Zm9 3-1 2-1 2-1 3-1 2-1 2-2 2v2h2l4-1h5c2 1 3 3 3 6l-2 8-1 12v4l-1 1-1 1c0 2 1 2 2 2h3c1 1 0 2-1 4l-2 4v1l-3 1h-1v2l1 1v2l-1 3-1 4v3l1 3 4 5 1 1 1 2 2 4 2 4 1 4 1 3 1 7 2 10 4 2 3-1 1-1 1-2c2-3 3-3 3-9v-6l-1-2 2 1 3 2 1 1v1c-1 2 0 4 1 2h2l4 4 3 3-1 1c-2 1-2 0-3-1l-1-3h-4c0 1 1 4 3 4l2 2 1 2 1 1 1-1 2-1h2l1 2 1 3 3 6v4l2 5c0 1 1 2 3 2 2 1 4 0 4-1l-2-1c-2 0-3-1-3-2l5-1h2v-3l1-2-1-1-1-1 1-2v-4l-2-1-2 1h-1l-3 1h-2l-2-2-5-7-2-4-1-1 1-1 2-2 2-2 1 4-1 4 2 3 2 3 1 1 3-1c4 0 8-2 12-4l4-1-1 1-1 1c0 2 0 3 2 5 1 2 3 2 6 2s3-1 2-2l-2-1c-3 0-4 0-4-2v-3c1 0 2 0 1 2 0 2 1 2 3 0a105 105 0 0 1 8-7l1-2h-1v-1h3l-1 3-3 3a238 238 0 0 1-6 6c0 1 2 1 5-2l5-4 2-2 1-3-1-3-1-2c-1-1 0-1 1-3l5-4 1 2v1l3 1h3l-2 2-8 8-5 5-1 3-1 1-2 3-3 5c-3 3-3 4-2 6l-1 1-1 6c0 3 1 3 5 4 4 0 4 0 3 1a475 475 0 0 0-29 10l-4 2h-4l-3 1-10-1-12-3-2-3-1-2-2-2-2-2-2-1-2-1-1-1-3-1-1 1c0 1-2 0-5-3l-2-2 2-2 4-6-2-8-3-7-1-3-1-8-4-4c-4-3-4-3-6-2h-2c-4-1-5 0-5 2l-1 3-1 4-1 4v4l1 3 1 2c0 1-1 1-2-1l-2-2-1-2 1-1c1-1 0-3-1-3l-2 1-1-1 1-5 1-1 1-2 1-2c-1-1-1-2 1-2 1 0 2-1 1-2h-3l-2 2v1l-1 2v2l-1 1-1 1-1 1c-1 2-1 2-2 1l-2-6v-2l-1-8h1l1 1c2 1 3 1 5-1l3-1c3 0 4-1 5-5v-5l-1-7v-6l1-2 4-5c3-2 4-5 4-6v-3l1-5-3-5c-1-1-3-1-4 1h-2l-4 2-3 2 1-3v-1l2-8 3-4 2-3 2-3 2-5 1-1v-2h2l2-3a45 45 0 0 0 3-6l2-3c1-4 2-5 3-4v2l-2 6-2 3-1 5c1 0 2 0 3-3l2-4v-1l3-7c2 0 2 1 1 3Zm77 135v-2h1l2 2-2 1-1-1Zm-21-9-4-1v-1l2-1c2 0 2 0 3 2l1 1h-2Zm1 3c2 0 2 1 1 1l-2-1h1Zm-47-128-1 2-3 8h-8v-2l1-2 1-2 2-3a345 345 0 0 0 3-2l-2 3-1 4v3l2-2 1-3 2-4 3-4c1-2 1-2 2-1l-2 5Zm4 3-2 6-1 3c-2 5-2 5-3 2l-1-2 1-2a188 188 0 0 1 6-13v-3h2l-2 9Zm2 9-2 5-1 3-2 1-1 1 2-4 2-8 2-5v7Zm54-51h-1 1Zm35 30h3c2 1 5 3 8 8l2 3c0 1-3 2-4 1l-1-1-4-5c-5-5-5-5-4-6Zm-9-10 4 2 3 2 2 2-3-1-3-2-3-3Zm-18 30h-2l1-2h2l2-1-2 4-1-1Zm-2 2v-1l2 5-1-2-1-2Zm-15-19 2 2c4 3 6 3 9 1h2l1 1 1 2 3 4-1 2-5 1-2-2-3-3-6-6c-2-1-2-1-1-2Zm9 0c0 1-1 2-3 1v-2l1-1h2v-1 3Zm-6-4-1-2c-2 0-5-3-5-3l1-1c2 0 5 2 6 4v2h-1Zm-6-2 4 3-3 1-1-1-1-2 1-1Zm-36 14-1 1v1-3l1-2v3Zm4 12v-1c1-2 2-1 1 1l1 3v3l-1 3c0 1-2 2-3 1l-2-1-1-2 1-3 2-5c0-1 0-1 0 0s1 2 2 1Zm38-53c2 1 2 1 0 1h-1c-2 2 7 2 10 1l1-3 2-1h3l3 1 3 1 1 1-1 2h9c5 0 6 1 0 1l-14 2-6 1h-5c-2-1-3 1-1 2l1 1h-3l-5-3c-2-1-3-1-4 1l-2 2-2 3c0 2 1 3 3 3 2 2 3 0 1-1l-1-2 3-1c2 1 3 2 1 2v1l4 2 4 1 3 1 2-2 3-3c0-2 0-2 2 0l4 1 5 1 2 2-1 2v4l2 1 3 2c1 0 0 0 0 0l-14-1-6-1-2-1-4-2-2-2h-6l-2 1-3 2v7l-1-1-5-1-2-2-1-5h-1v5l-2 3-2 4c0 1-3 5-5 5l-2 2-2 1-2 3c-1 2-1 3-2 2s-1 0-2 1v1a171 171 0 0 0 2-10l1-1h3l4-3v-4c-1-1-1-1-2 1l-2 1-2 2-1 1 1-3 3-3 14-14 6-7 2-2 7-6h3Zm9 15c-1 1-2 1-5-1l-5-2-3-2h3c5 3 8 4 9 3 1 0 2 1 1 2Zm-8-38-1 3-1 4-2 4-3 4 1-4c2-5 3-8 2-9l-2 2-1 4-2 3-1 4c-1 2-1 1-1-2l1-3h-2l1-2 2-2 1-3 1-2c1-1 1-2 3-1l2-1c2-1 3 0 2 1Zm6-5-1 3-3 6v-3l1-3 1-4 2-2v3Zm17-21v1-1Zm8-9-3 6v-3l2-4 1 1Zm2 3v-2l1-1-1 3Zm15-16-3 5 1-3 2-2ZM293 24l1 2h-2l1-2Zm-14 15h1v1l-1 1-2 6-2 1 4-9Zm-5 3 3-5v3l-1 1-2 1Zm-5 8 2-2c1 0 1 1-1 2h-1Zm-1-5 3-5 1-2c1-2 2-2 2-1l-5 7-1 1Zm-10 5 1-2 2-3 5-6c2-1 2 0 1 3l-3 4-2 3-3 3-1-2Zm-5 1 1-2 1-2 1-2 2-3 2-3h2l-5 9-2 4c-1 3-3 4-3 3l1-4Zm-12 2h-3l6-5a130 130 0 0 0 6-3l-1 2v10l-1 1h-1l-1-2-1-2-4-1Zm0 17v-4l1-2 2-2v1l1 2-1 3c-1 2-3 3-3 2Zm-1-10 1-3v3h-1Zm-2-3c0 2-3 8-5 8v-1l1-2v-3l1-2h3Zm-14 12h-2l2-1v1Zm5 6c1 1 2 1 4-2l4-4-2 4-2 2-2 3c-2 0-3 1-3 2h-3l-3-1-3-1 1-3 1 1h2l2-1-1 2v1c1 1 1 1 3-2 1-2 2-2 2-1Zm1-15h1l-3 7h-1l1-2v-2l2-3Zm-31 19 5-4v2l-5 2Zm-7-5 2-2c1-2 3-2 4-1l-1 1-2 1c-1 2-3 2-3 1Zm-4 5 1-2h1l-3 3 1-1Zm-1-6 2-1 2-1-1 2-2 1-1-1Zm-4-1h-1l2-1-1 1Zm-1 6 1-1c1 1 0 1-1 1Zm-7-6 1-2c2 0 2 1 1 2h-2Zm-14 5h-2l1-2 1 2Zm1 3c0 1 0 1 0 0h-1v-1l1 1Zm9 2h-1v-1l1 1Zm-21-10v2h-2c0-1 1-3 2-2Zm-8 4 1-2 1-2 2-2c1 1-2 6-3 6h-1Zm-10 4h1l-1 1h-1l1-1Zm-11 14 1-1c0-1 0-1 0 0v1h-1ZM21 168v2h-2l-2 1h-1l1-2 2-2 1-1v1l1 1Zm22-22-3 2-1 1-2 1 2-3 3-2 1 1Zm3 0 1-1 4-2c1 0 0 2-3 4l-3 2v-1l1-2Zm7 6c-1-1 0-2 2-3l5-6 2-2v2l-2 2-6 7h-1Zm-3-3 1-2 3-4 4-2-2 3-6 5Zm11-22-1 1h-1l1-1h1Zm11-2v-1l4-3 5-4v1l-2 2-4 3-3 2Zm-1-4 3-2-1 2h-2Zm37-18 1-1-1 2v-1Zm-6 10v-1l3-5v1l-1 2-2 3Zm-1-9c0-1-1-1 6-8l3-4 1-1 1-1c1-2 4-3 4-2l-2 4-3 3-10 10v-1Zm-3-6h-1c-1 0-1-1 1-2 1-1 2-1 2 1l1 1-1 1-2-1Zm-10 19 1-2h-2l-3-1c-4-2-4-2-5-1v1l-1 2-2-1h-3l-1 1c-1 0 4-5 7-6l4-4c3-2 4-3 7-3l4-1h3l1 3v3l1 1-4 4-4 5h-3v-1Zm-67 76h1l5-1c1-1 2-1 2 1l1 1c1 1 1 1 2-1l1-2h2l4-4 2-4 3-4 1-4-2-2-1-1c-1-2-1-2-5-2l-6-2-1-1c-2 1-5 0-6-1h-1c-2-1-2-2 1-3l7-7 4-3v1c1 2 2 2 3 1 3-1 8-2 11-1l2 2 2 1 3-1 9-11v-3l1-1c1 0 2-1 1-2l-11-1-4 1c-2 2-6 3-6 2l2-3 7-6c2-3 3-3 2-1l-1 2-1 1h3l5-2c4-2 5-2 8-1h3v-2c-1-1-1-2 2-4l5-4c3-3 4-3 2-1l-2 2-1 2-3 2c-2 1-2 3 0 3l3-2 2-2 4-4-2 4-4 4-1 1-2 2-2 3-2 3-1 1-8 11-4 6-2 3-2 3-1 2-1 2-3 6-2 3-2 4-5 9-1 3-1 2-1 2h-3l-4 1-4-1h-3l-4-2Zm11-11h1-1Zm0-4-3 1 4-4c2 0 1 1-1 3Zm6 7-4 4v-1l1-2c-1-2-1-2 1-3 4-2 4-1 2 2Zm1-8-3 1 3-3v2Zm-13-1h-2l1-1 3-2c2-2 3-1 2 0-1 2-2 3-4 3Zm-10 14h1-1Zm-4-11 4-2h2l3 1 4 3c1 0 2 0 2 2v5l-4 1-3-1-2-1-2-2h-2c-1 1-1 1-2-1v-5Z"/>
    <path d="m287 106 3-2v4h-2l-1-2ZM298 111h-1l-1-1c1-1 3 0 2 1ZM295 108h-1v-1l1 1ZM273 163c-1-1 0-3 1-3 2 0 2 2 1 3v1l-2-1ZM328 133h-3l2-3c1 0 2 2 1 3ZM286 116c-3 1-4 0-4-1l1-2 2-1 3 1-2 3ZM307 122l-1-2 2-2v3l-1 1ZM312 162l-1-1v-1h2v2h-1ZM309 155l-1 2h-1v-2h2ZM329 122l-1-1c1-1 1 0 1 1ZM312 155v-3l2-2 1-2 3 1c0 2-1 5-3 6h-3ZM316 157v2-2ZM302 134h-3l3-2v2ZM302 147v-3l1-2 1 1 1 4h-3ZM307 162h-3l1-3c2 0 3 2 2 3ZM277 162v-2l2 3-2-1ZM306 142h1v1c0 2-2 1-1-1ZM298 157h3v2c-1 1-3 0-3-2ZM280 135l2-1v2l-2-1ZM282 155h-1l-2-1c0-2 3-3 4-1l-1 2ZM291 139v-3h6v2h-4l-2 1ZM285 153v-2c2 0 3 2 1 2h-1ZM114 209c-2-1-1-3 1-2l1 1v1h-2ZM273 218c-1-2 0-4 1-3l1 3h-2ZM217 175c1 0 2 2 1 3l-2 1-1-2c-1-1 0-2 2-2ZM213 200v4h-2v-4h2ZM215 197v2h-1v-2h1ZM195 211h2l2 1v2l-1 1c-3 0-4-3-3-4ZM296 65l-1 3-1 3a21 21 0 0 1-3 4l1-2v-5c2-5 1-7 0-6h-3l-1 2-1 3-2 4-1 3-2 2-1 1c-2 2-1 0 3-7 4-8 4-10 3-10l-2 1c-1 1-2 2-2 0 0-1 0-2-2-1l-2 1-5 2-5 3-2 2-3 2-4 2-3 3-5 4-4 3-3 4-3 3c-2 1-3 2-3 5-1 3-2 3-2 2l-2-1v5h-1l-1-1h-3l1 2 3 1h2l2 1c1 2 1 3 3 3l3 3c2 1 3 1 5-1l5-4 4-3 4-2 6-3 4-3 4-3 4-3c2-3 9-8 11-8 1 0 3-2 4-6l2-3v-5c0-2-1-3-2-3v2l1 1Zm-52 26-1 3-1 2-2 1v-1c0-2 2-4 3-5h1Zm0 12h-3l1-1v-1l1-1 1 1v2Zm32-16v-1l2-1v1l-2 1Zm-21 6 3-4-2 5-1 3-2 1 2-5Zm-6 3 1-2v2c-1 2-1 2-1 0Zm3-11-1 3c0 2-2 5-3 5h-2l1-2v-3c-1-1 0-2 4-5h2l-1 2Zm6-3-1 2-1 3-3 1 1-2v-2l1-2 2-3 1-2h2c1 1-1 3-2 5Zm9-10-2 3-1 4-3 4v-2l2-3 1-3 3-3c0-1 0 0 0 0Zm3 1c1-1 1-1 0 0v3l-2 3-2 1v-1l4-6Zm2-3c0 1-1 2-2 1l1-3 1 2Zm6-2-1 2v2l-1 1-1 2-1 3-2 2-2 3-1 1v2l-1 1-1 2h-2l-1 1-2 2-2 1h-1l1-1v-4c1-2 4-4 6-4 2-1 3-2 6-8a76 76 0 0 1 5-9l1-2v3Zm1 6-1 2-2 3-2 3-1 1 2-4 3-4 3-8h1l-1 3-2 4Zm11-3-2 4-4 4 1-2 1-2 1-1 1-3 1-4 2-3v2l-1 5ZM190 208v2h-1c-1-1 0-3 1-2ZM202 223v-3c1 0 2 2 1 3h-1ZM205 217l-2-2c-2-1-2-2-1-3 2-2 3-1 3 1l1 2 1 2-1 1-1-1ZM205 209v-2l1 1v1h-1ZM347 310c1-2 3-1 1 1l-1 1v-2ZM220 194v1h-1l-1-1h2ZM309 309h-1l-1-2h2v2ZM347 307l-1-2c0-3 1-3 3-2v3l-2 1ZM346 323v2h-3c0-1 1-2 3-2ZM350 318v4h-2l2-4ZM353 311c2-1 3 1 2 2h-1l-1-1v-1ZM354 316l1 2h-1l-1-1 1-1ZM345 316c-1 1-1 0-1-1l1-1 1 1-1 1ZM354 307l1 1h-3s1-2 2-1ZM291 36l1 2h-1l-2-2-1-1v-1c0-2 2-2 2-1v1l1 2ZM201 86l1-1h1v1h-2ZM179 194l2 3 1 3v3h-2l-1-1h-2v-1h3c1 0 1-1-1-3l-3-5 1-1 2 2ZM224 96c1 3 1 3-1 4-2 2-3 1-1-1v-3l-2 2-2 3-2 3-2 1c-2 0-2-1 0-3l2-3 2-3 2-2v-1h-1a25 25 0 0 0-6 7l-2 4-3 3 6-12 2-4h-1l-4 5c0 2-5 9-6 9l1-4 3-5 2-4c2-1 1-2 0-2h-3c-3-1-6 0-9 2s-8 7-8 9l-1 2v2c0 2-1 2-2 2h-1v1h-2c-1-1-2-1-2 1l-1 1v2l6-1v3l2 2c0 1 1 2 2 1l1 1-2 1-2 2-1 2v3l5-3c1 0 2 0 1 1-1 2 1 4 2 2l1-2 3-3 1 1 2 3 2-2 3-1 4-1 7-4 1-1 4-1 1-6-1-1-2 2-1 2c-1 0-2-1-1-2l4-6 1-3h1v3c-1 2 1 3 3 2s3-2 2-3h-1l-1-1-1-1-1-3-1-4-1-2-1-2-2-1c-2 0-2 1-1 2l2 2 1 3Zm-26 17 3-3-2 3-3 4 2-4Zm6-13-2 4-3 3-1-1 6-12-1-1-2 3-2 3-3 6-2 3c-2 3-2 4-1 4l2-2h2l-1 1-3 4-1-1v-9l1-2c4-7 7-10 10-11h4c1 1-1 6-3 8Zm1 12v1l-2 3-3 1 1-2 2-3c1-2 2-2 3-2l-1 2Zm6 0-2 2c0 2 0 2-2 3l-2 1 1-2c1-1 2-1 1-2l2-4 2-1c2 0 2 1 0 3Zm8-5v2l-3 3h-2l1-2 2-3 2-3v3ZM181 156h-2l1-2 1 2ZM183 171v2h-3v-2h3ZM193 91c-1-1 0-2 1-2l1 2h-2ZM187 156l2 1-1 2c-1 0-3-2-1-3ZM182 94v-2h1c2 0 2 1 2 2h-3ZM313 306l-1 1c-1 0-2-2-1-3 2-1 3 1 2 2ZM189 95h-1l-1-2c0-3 0-3 2-3h1l-1 5ZM185 99c-1-1 0-2 1-1v2l-1-1ZM268 60l1-1 2 1-1 1-2-1ZM185 207c-1-1 0-3 2-2v2h-2ZM260 65c-1-1 0-2 2-2l1 1-1 1h-2ZM294 43v4l-2 4h-2l-2-2 2-1 2-2v-5c2 0 2 1 2 2ZM281 53l3-1 1 1v2c-1 1-4 0-4-2ZM276 58c-2-2-1-3 1-3l2 1-1 1-2 1ZM243 80h-2l1-2c1 0 2 1 1 2ZM247 77h-2v-2h1l1 2ZM249 75l-1-3c2-1 3 1 2 2l-1 1ZM254 69v-2c2-1 4 0 2 2h-2ZM200 217l3-1v3l-4-1 1-1ZM287 232l1 1v1h-3l2-2ZM283 205l1-2c1 0 2 2 1 3l-2-1ZM282 202c-1-1-2-1-1-2s2 0 2 1l-1 1ZM281 217l1-2 1 2h-2ZM282 214v-3c1 0 2 1 1 2l-1 1ZM283 261h-2v-2l2 1v1ZM277 225l3-3 2 2-2 2-3-1ZM281 207v2h-2v-2h2ZM277 214l2 3v1c-1 0-2-1-2-3v-1ZM279 203l-1-1v-2l1 1v2ZM288 282c1 0 2 2 1 3h-1v-3ZM274 253l2 1-1 3c0 1-2 1-2-1l-1-1c-1 1-2 0-2-1v-1h4ZM269 250l-1-1 1-1 1 1-1 1ZM272 258v2c-1 1-3 0-3-2h3ZM274 246v2l1 2c-1 1-1 1-3-1l-1-2c0-2 3-3 3-1ZM280 246c2 0 3 2 2 3l-2-2v-1ZM272 241h2l1 1h2v3c-1 1-3 0-3-2h-1c-2 0-3-2-1-2ZM288 278l1 2c-1 1-4 0-4-1l3-1ZM283 272v-4c0-2 1-2 2-1v5l1 2-1 1-2 1c-1 0-2-1-1-3l1-1ZM274 262l1 1h4l1 2 1 1h-3l-1 1-2-1c-1 1-1 0-2-1-1-2 0-3 1-3ZM270 264v2l-3 1v-3h3ZM298 300c-1 2-2 1-3-1l-1-1-2-1v-1l1-1 5 2v3ZM302 16l1-1v1h-1ZM298 20l-1-1v-2c1-1 2-1 3 1 2 2 2 1 1 2h-3ZM327 22l-1 2-8 8c-2 3-4 4-4 3l1-1 1-2c3-4 5-8 8-10v-1l-1-1c-2 0-2 0 0-2v-2l-7-1-4 2-2 1h-2c-2 0-6 4-7 6l-4 4-1 4 1 4c0 2 1 2 2 3l2 1 2 1h2l4-2 2-1 1-1h1l3 1 4-1 2-2 4-4 4-3-1-4-1-5-2-2v3l1 2Zm-22 8 3-4-1 3-2 1Zm3-8c-2 2-4 4-4 2l5-4-1 2Zm5 2-2 4c-2 3-3 3-2 1l4-5Zm2-5-1 1-1 1v-2h2Zm3 1-1 1 1-1c1-1 1-1 0 0Zm-6 13h-1v-1l9-10-1 2-2 2-1 2-2 2-2 3Zm11-3-1 2h-1l1-2 1-1v1Zm3-3-2 1 2-1 1-1-1 1ZM307 320c-1 4 0 7 4 8l4 2 2 1 3 1 3-1h3c2 1 3 0 4-2l2-3c2-2 3-9 2-12l-8-7c-1 0-2 0-2 2l-1 6v2l-1 2 1-7c1-2 1-4-1-4l-1 2v1-4c1-2 0-3-1-3l-1 1-2 3-1 1-4 5-5 6Zm21-1v-1c1-4 1-4 2-3 1 0 2 2 1 3l-2 2-1-1Zm-3-1 1-7h2v2l-1 2-2 4v-1Zm-9 4 3-5v3c-1 2-3 4-3 2Zm-1-6c1-2 2-1 1 1h-2l1-1ZM304 310c1-1 2 1 1 2h-2c-1-1 0-2 1-2ZM328 300c0 2-2 2-3 0 0-1 1-2 2-1l1 1ZM317 302c-1 1-4-1-2-3l2 1v2ZM320 296c-1 2-3 1-3-1h3v1ZM221 191h1v2h-1v-2ZM339 325c2 1 1 3-1 3l-2-1c-1-1 1-3 3-2ZM265 271c-1 1-3 0-3-1l2-2c1 0 2 2 1 3ZM268 207h-2c-1-1 1-3 2-2v2ZM267 214v-2c1 0 2 1 1 2h-1ZM264 213c-1 1-1 0-1-1h1v1ZM277 249l2 3c-1 1-2 1-2-1v-2ZM294 300v3c-1 0-2 0-2-2 0-1 1-2 2-1ZM278 258v3l-2-2c0-1 1-2 2-1ZM293 289l-1 3h-1l-1-3h3ZM294 312l1 1v-3l-1-2v-3l2 1 1 2 3 1c3 1 2 3-1 3l-2 1v2l2 3-1 1h-3c-2 0-2-1-3-3l-1-3v-2c1-1 2 0 3 1ZM280 256h-2v-1c0-2 2-1 2 1ZM252 279l-3 1c-1-1 0-2 2-3h2l-1 2Z"/>
  </g>
  <defs>
    <clipPath id="a">
      <path fill="#fff" d="M0 0h437v390H0z"/>
    </clipPath>
  </defs>
</svg>
