<svg fill="none" xmlns="http://www.w3.org/2000/svg" viewBox="0 0 1136 498">
  <path d="m42 479-8-1-7-1-5-1c-2 0-3-1-3-3l1-1 3-4c4-3 16-16 15-17-1 0-3 1-5 4a180 180 0 0 1-9 8 195 195 0 0 1 10-11c5-5 6-7 4-7l-1-1h1c1 1 1 1 4-1l4-4 1-2 2-1 7-6 3-3 4-3 4-3c2-1 2-2 1-3-1 0 1-2 3-2a2 2 0 0 0 2-1c1-1 3-3 7-4l2-2 2-1 8-5c3-2 3-3 1-2l-3 1 1-1 1-2 2-2v-1l3-3 2-2 2-1 7-6 1-2 1-2a19 19 0 0 1 6-8l3-2-2 2-4 5 7-5 4-3c4-3 4-4-1-1-4 2-4 1 1-5 4-7 10-14 14-17 3-2 8-7 8-9s2-3 5-5l10-8 3-19 2-8 1-2 1-1-1 4-1 5a152 152 0 0 1-2 17l2-4 2-6c2-3 3-6 3-10l2-5c2 0-1 11-3 16-1 3 0 2 4-2s5-4 6-4l7-4 1-1 2-2h-1c-2 1-2 0 0-2l1-2-6 4-7 6c-1 0-1-1 1-2l3-3 1-2 3-3 4-3 2-2 5-4a44 44 0 0 0 5-3l1-1 4-2a122 122 0 0 0 7-4c3-2 13-13 15-17l6-5c3-2 4-4 3-4s0-6 2-9l1-3 3-4a107 107 0 0 0 7-12l1-2 1-3 4-4 2-5 3-4 1-2 2-2 9-9 6-6c1 1 0 2-2 5l-3 3-2 1-6 8 3-3a19 19 0 0 1 5-4l3-3 3-4 1-1 2-2 2-2v-4l-2 2c0 2-3 4-3 3a1 1 0 0 1 0-1l1-1 7-11a184 184 0 0 1 32-28v-1l2-2 7-7a179 179 0 0 0 19-20l5-5 3-3 6-7 8-8 6-6 9-7 13-7 13-7a25 25 0 0 1 6-5l7-3 14-7a57 57 0 0 1 8-5l5-3 5-2 6-4 7-2 11-3 9-1 13-2 6-1 4-1h2l5-1 5-1 12-1 25-1a185 185 0 0 1 69 7 114 114 0 0 1 22 5l4 1 9 4c5 4 6 4 14 6a67 67 0 0 1 11 3l4 1 3 1c2 0 6 3 8 5l12 7 7 5a181 181 0 0 0 18 15 277 277 0 0 0 16 15l3 3 4 4 2 3 3 3 3 4 3 4 8 11 4 2 3 3a29 29 0 0 0 10 5l3 1 10 4 6 2 4 1c3 1 17 1 19-1l5 1a56 56 0 0 0 15 2l5-1h12l3 1 6 2 4 1 7 2a271 271 0 0 0 15 7 81 81 0 0 0 10 5l1 1a47 47 0 0 1 15 11l3 4 5 5 4 5 2 3 3 4a131 131 0 0 0 10 13c2 0 7 4 7 7v2l1 2 2 5c3 5 4 8 3 15-2 5-1 6 4 9l3 1 4 2 4 2 3 1 4 1 12 4 7 2 8 2a144 144 0 0 1 19 7 79 79 0 0 1 14 5l3 1 3 1 7 4 2 1 4 2 5 2a55 55 0 0 1 14 9l5 4 6 5c4 2 6 4 6 7a7 7 0 0 1-4 5l-9 1h-27c-6 0-6 1-5 2l3 2 4 3 4 3c4 2 5 5 3 8-1 2-2 2-5 2a64 64 0 0 0-10 1l-3 1c-5 3-23 1-26-3h-1a134 134 0 0 1-24-12l-3-1-3-1-1-1-3-2a73 73 0 0 1-8-4l-3-1-1-1-3-2-3-2c-2 0-4-2-5-3l-3-2-2-1-3-2-3-2-1-1-2-1c-2-1-4 0-9 4l-4 2-2 3-7 4-5 4c-5 4-14 7-17 5l-4-1-3 1-3 1-2 1-7 2 5 1h6l6 1a76 76 0 0 1 16 1l6 1h4a424 424 0 0 1 13 0l2-1c3-1 3 0 2-1l-1-1h-1 4c4 1 4 1 6-1a1 1 0 0 1 1-1c2 1 2 2 1 3s-1 1 6 3a201 201 0 0 0 21 4c6 1 15 5 15 7h-4l2 1c2 0 3 2 1 3-1 2 0 2 2 2l10 2 3 2 3 3 1 1 3 1 7 2 4 1h3l5 3h-7a3 3 0 0 1-2 1h-2l-2 1-1 1c0 3-7 3-16 0l-16-2-5-1-4-1c-2 1-2 0-1-1l16 1h3l4-1c4 0 5 0 2-1h-2l-3-1a332 332 0 0 1-12-2h-2l1 1c0 2-1 2-2 0-3-2-8-2-13-1h-5l1-1c3-1 4-3 1-3-7-2-12 0-7 2l3 1c-1 1-3 0-11-3l-8-1h-5c-5 0-5 0-2-1 6-2 7-3 3-3a231 231 0 0 0 31-5h-11c-11 0-12 0-11-1a82 82 0 0 0-26 0h-6a2 2 0 0 1-1 1 1 1 0 0 0-1 1c0 1-3 1-7-1h-1l-2-1h-4c-7 1-21 0-29-1a80 80 0 0 0-27 1h-15c-6 0-5 0 3 2 9 1 11 2 9 4h-3c-1-2-7-3-18-4a383 383 0 0 1-17 0c-6 0-10 1-11 2h-4l2-2c3-1 3-1 0-1l-2-1h11l25-1c1-1-2-1-4-1h-4l-4-1h-25l-13 1-8 1-4-1c-1-1-2 0-4 2s-2 2-4 0c-1-1-1-1 1-1 1-1-1-3-3-3l-1-1h-5c-3 1-5 0-4-2l-1-1c-1-2 0-3 2-3l5-4 2-3 5-9 2-3v-3c-1-1 3-7 10-13l5-6 1-3c1-2 1-3-1-1l-3 5c0 2-2 4-3 3-1-2-3 1-6 4a46 46 0 0 0-6 11c-3 5-4 8-3 9v2c-2 0-5 3-7 6l-3 4-3 3a1 1 0 0 1 0 1c-2 1 3 5 8 6l2 1 2 1v2l1 1c3 2 0 10-4 15l-4 8a33 33 0 0 1-4 13l-2 2-3 3-5 4-6 2a3 3 0 0 1-2 1l-3 1-3 1-2 1-8 6h-2l-4 1h-4l-4-1-4-1-3-1-3-2h-2l-3-1-4-1h-7l-3-1-3-1-2-1c-6-2-4-12 3-23l3-2 2-2 1-1 2-1a1 1 0 0 1 1-1h1a1 1 0 0 1 0-1c3-2 4-6 4-8l-1-2c0-2-7-8-10-7l-1-1-3-1h-7c-6 0-9 0-11-2l-2-1-2-1-2-1h-23l1-1c0-1-1-2-4-1-2 0-3 0-1-1l-1-2c-1-1-6 0-6 2l4 1 1-1-3 1c-3 1-3 2 0 3h3l5-1h-1c-3 2-1 2 10 3l2 1c1 2 1 2 3 2 3-1 3-1 4 1a3 3 0 0 0 3 2l3 1 2 1 1 1h3l4 1c2 0 3 1 1 1l-1 1h-6a30 30 0 0 0-7-3h-1l-1 2h-2c-1-3-3-3-2-1 0 2-1 2-2 1a4 4 0 0 0-5 0h-5l-5 1h-7l-4-1-8-1h-6c1-1 0-2-1-1l-9 1c-2-2 3-4 11-4 5 0 5 0 6 2 0 1 1 1 1-1l1-1 4 1c2 2 7 0 5-2-1-2-1-3 1-4 2 0 2 0 3 3l2 4 1 2h1c3 0 3-1 2-3 0-2 0-4 2-4 1-1 1 0 2 3 0 3 0 3 2 3v-1l1-2a2 2 0 0 0-1-4h-1l-10-2c-9-1-18-5-11-5 3 0 3-1 1-2l-8-2c-4 0-6 1-5 2s1 2-2 1c-5-1-9 0-8 2 2 2 1 2-3 2l-11-1-5 1h-4v1l-3 1-2 1-2 1h-19c-3-1-4 0-7 1h-6l-6 1-5 1-19-2c-4 0-7 1-6 2l16 1c4 0 5 1 3 2l-15-1c-2-1-10 0-12 1l-6 1-5 1h-10l-5 1a92 92 0 0 0-20 3l-5 2-4 2-5 1-3 1c-1 0-1 1 1 2s3 1 1 2v1c1 1 1 2-1 2h-2c-1-2-3-3-6-2-5 1-6 1-4-1 2-1 1-1-1-1a2 2 0 0 1-2 1l-3-1h-4l-11-2 3 1 3 2c2 2 5 3 10 3a63 63 0 0 1 12 3h3l3 1 2 2 1 2v7l1 4c3 3 4 6 4 10l-3 7c-1 0-2 0-2-2 0-4 0-6-3-6l-1-1-2-2c-1 0-4 3-4 5l2-1c2-2 3-1 1 1a9 9 0 0 0 1 8v7l-1 4c-2 5-5 4-5-1-1-4-1-5-6-5-6 0-9 2-6 5 1 0 0 5-2 8v1l-4 3-1-4c1-4 0-5-2-5l-5 1c-4-1-5 0-5 2v2l-1 2c0 2-1 3-3 4l-2 1c-2 1-2 1-2-2 1-5 0-8-2-9a4 4 0 0 1-3-3l-1-3-2-7c-1-5-5-11-9-13l-3-2h-5l-2 1-6 2c-1 2 3 2 6 1h4-1l-2 1-2 1-2 1h-3c-4 0-8 2-10 4-1 1-1 1-2-1 0-1-1-2-2-1h-4l-4 1-4 1h-2l-1 2-2-1c-3-1-3-1-9 1l-3 2h-2c-2-1 0-2 3-3l2-1a106 106 0 0 0-28 1l-5 1-4 1-11 2v1h8l-6 1-5 1-5 1-5 1-3 1-7 1-5 2c-5 1-10 4-6 3h2l7-2a107 107 0 0 1 10-2h2l4-1a373 373 0 0 1 35-2l-7 1a95 95 0 0 1-9 1l-2 1h-4l-8 1-12 2a343 343 0 0 1-29 3c0-1 1-2 6-3l5-2 9-3h3v-3l-5 2a58 58 0 0 1-6 2l-3 1-6 2-3 1-3 2-4 4-1 1-6 5-3 1-2 1-2 1c-5 4-8 3-4-1h-2l-2 2-3 2-3 1-1 1h4l-1 1-2 1-3 2-2 2-2 1c-2 0-2 1 0 2s2 2 0 3c-3 2-4 1-3-2 1-1 0-2-1-1l-2 1-4 1h-2l-2-1-3 1-1 1-1 1-2 2a3 3 0 0 1-1 1h-2c-2 2-6 4-11 5l-7 3c-2 1-4 1-4-1l4-3 1-1 1-2-8 4a2 2 0 0 0 0 2l-3 1c-5 1-7 2-5 3l-1 1c-1 1-2 2-7 3l-3 1-7 1-2 1-2 1-3 1h-2l-14 4c-6 2-7 3-8 1h-2l-11 1H41h1Zm40-5 5-2 3-1 7-3 5-2c1 0-2 3-4 3l-1 2a50 50 0 0 0 19-8c3 0 9-5 6-4h-2c0-1 2-3 4-3l7-4 3-3 5-4 8-7a321 321 0 0 0 15-10l-14 12-9 6-3 3-4 4 8-3 5-4 3-2 7-4 2-2-2 1-3 1c-4 2-5 3-3 1l4-2 4-3 7-5 1-1 3-3 6-5 6-5a184 184 0 0 0 19-20c2-2 2-5 0-3-3 2-2 0 1-3l9-9 2-3 1-2 1-3 3-3c2-1 2-2 2-3-1-1 0-1 2-3a61 61 0 0 0 11-15l2-4 1-2c-1 0-5 5-5 7l-3 3c-5 4-8 7-6 7 1 0 1 2-2 4a94 94 0 0 0-11 9l-4 4a160 160 0 0 1-17 16l-4 4a178 178 0 0 0-14 12 244 244 0 0 0-18 18 85 85 0 0 0 14-11l2-1 1-1-7 7-2 3-1 1c-1 2 0 2 2 0l4-3 8-7 5-6 5-5 2-2 2-1 2-3 5-4 4-3-7 9-9 9-9 8-7 6-2 2-4 3-3 2-14 9-8 6-7 5-2 1h3l-11 8h3-1l-2 1c0 1-3 3-4 2h-1l-3 3c-5 1-5-1 0-4s2-2-4 1a62 62 0 0 1-7 3l-7 3h-2l-4 1-4 2-3 2c-4 2-1 2 5 0Zm115-84 2-3 3-3 5-6-1 1-2 4-6 7h-1ZM41 474l4-1 4-1 11-6h3l3-1 7-4 9-4c2 0-2 3-6 5l-4 2-5 3c-8 4-9 5-3 3 5-2 5-2 6-1 1 0 7-2 11-5l7-4h2l-4 3a321 321 0 0 1 6-2c1-2 2-2 1-3l2-1 3-1 2-1 2-2 3-2a467 467 0 0 0 14-8h1c2 0 3-1 5-3l7-4 5-4 2-3 1-1h-1l-1 1h-1l-5 3-5 3-10 6h-2l-4 2-2 1a142 142 0 0 1-20 12c-3 1-5 2-4 0l8-4 2-1 2-2a535 535 0 0 0 21-12c-1 0-2 1-1 2l7-4a110 110 0 0 1 10-8l12-11-1 1-2 1-1 1-5 3 1-1c2-1 5-4 4-5s-1 0-3 1a107 107 0 0 1-24 18l4-4 1-1 4-3 3-2 2-1 5-4 4-3 3-3c3-3 4-3 5-3l4-3 2-1 4-3 4-3a3 3 0 0 0 2 0l3-1-13 11c-3 2-3 3-3 4 0 0 0 2-4 5-7 7-8 9-5 7a78 78 0 0 1 8-5l2-1 2-1 2-1 5-3a121 121 0 0 1 11-9l1-2 4-3 4-4 19-19-5 3-7 4c0-1 10-12 10-10a80 80 0 0 0 19-19l-3 2a55 55 0 0 1-9 7c-1 0-1-1 2-4l2-4-6 6a198 198 0 0 1-20 17c-2 2-3 2-3 1 0-2 0-2-7 5l-8 8a130 130 0 0 1-15 12h-1l2-3 9-7 6-5a177 177 0 0 1 8-9l4-3 4-4-2 1h-1c0-2-1-2-2-1l-2 2-8 7-3 2c-6 5-8 7-6 8 1 0-2 3-8 6-3 2-4 3-3 4l-1 2-2-1c0-1-1-1-4 1l-7 4-6 4a275 275 0 0 0-17 12l4-1 4-3 1-1 4-3-2 2-2 2h4l9-6 4-3 2-2 2-1 3-2-13 11a224 224 0 0 0-8 6l-6 3-5 3c0 1 1 2 2 1h2l-3 2-3 3-2 1-3 2a188 188 0 0 1-22 13h-3l15-8 2-2a67 67 0 0 1 11-7l3-2v-4c1-2-1-1-12 6a47 47 0 0 1-6 4 84 84 0 0 1-8 5l-4 2-4 2-3 2-7 4-11 5-5 2-6 3-4 3c-3 1-2 2 0 1a99 99 0 0 0 22-9l11-7 4-2 6-4a214 214 0 0 0 23-14h1l-1 1-2 2-3 2a382 382 0 0 0-32 21l-7 3-18 10c-4 2-4 3-1 1Zm113-60 8-8 9-10 5-5 4-5 5-3 1-1 2-1a75 75 0 0 1-12 13 301 301 0 0 1-22 20Zm22-17 5-5-3 4-2 1ZM53 474c2-1 3-2 1-2l-5 2h4Zm-20 0c3-2 2-3-2-2l-3 1v1a5 5 0 0 0 5 0Zm39-1a78 78 0 0 0 10-4l2-1h-5l-1 1-8 3-4 2-2 1h2l6-2Zm-38-8 11-8 1-3-10 6-7 6v1l1-1 4-1Zm7 0 4-2 2-2 2-1a5 5 0 0 1 3-1l9-5 3-2 5-4-7 4a274 274 0 0 1-19 9c-1-1-7 4-7 5 1 1 2 0 5-1Zm50-1 4-2 4-2 3-2 3-2 4-3 10-6c2-1 2-4 1-4l-8 4c-2 3-4 4-10 8a180 180 0 0 1-11 8l-2 1-1 1h1l2-1Zm50-7 4-1 1-2 4-2c3-2 2-3-1-1l-5 2-3 2-2 2c-3 2-2 2 2 0Zm-32 0a146 146 0 0 0 24-15l3-1 3-2 6-6-1 1-3 1-4 2a291 291 0 0 1-29 19c-2 2-2 3 1 1Zm-71-2 2-2 3-2a92 92 0 0 0 13-13c0-1-1-1-3 1l-17 16h2Zm17-3 5-3 6-4a400 400 0 0 1 26-17l-7 3-6 4-4 2-7 4-10 7c-7 5-8 5-7 6l4-2Zm16-2a150 150 0 0 0 9-5l7-5 2-1 2-1 4-2a80 80 0 0 0 10-8h-1l-14 7a88 88 0 0 0-19 11l-1 1h2c2 0 1 0-1 2a23 23 0 0 0-4 2c-3 3 0 2 4-1Zm-19 1 1-2-4 3 3-1Zm8 1 2-1 1-1 1-1 2-1 2-2 2-1-1 1-4 2c-4 1-7 4-7 4h2Zm86-3 3-1 2-1-1-2-6 5 2-1Zm-105 0 2-2 5-6 4-5c-1 0-9 6-9 8l-2 2c-3 3-3 5 0 3Zm19-3a59 59 0 0 1 8-6l3-2 5-3 4-3 2-2 4-3c6-4 12-9 10-9l-6 3a147 147 0 0 1-14 9c-2 3-6 6-6 5s-2-1-3 1l-2 1-4 5-1 2-1 2a1 1 0 0 0 1 0Zm102-4c6-4 8-7 4-5l-8 7 4-2Zm-2-3 4-2c4-4 4-4 6-4l11-9 5-6c8-7 13-13 12-14v-1l7-7 2-2 8-9c5-5 4-7-1-3l-3 2c-2 1-6 5-8 10l-6 8-5 4a925 925 0 0 1-32 33Zm-100-1 14-11-5 3-6 4-4 2-2 2h3Zm117-4c4-3 4-4 0-2l-3 1c-1 0-2 1-1 2l4-1Zm-114-5 2-1 1-1 3-2 4-3 3-2 3-2 3-3 3-2 2-2 4-4-4 1-3 2-2 3v1l-7 3-2 2c-2 0-6 4-6 4v2l-5 4h1Zm129-2 2-2 3-2 3-3 2-2-1 1c-3 1-11 8-11 9l2-1Zm-101 0 3-3c-1-1-2 0-5 2-2 2-2 2 2 1Zm96-1 8-8-2 1a69 69 0 0 0-9 7c-2 2 0 2 3 0Zm19 0 2-2-3 1c-1 2-1 3 1 1Zm-5-1 9-10-12 11c-1 1 1 1 3-1Zm-99-1c4-3 4-3 2-3-1 0-6 3-5 4l3-1Zm-26-1 3-2 2-2 2-1 3-3-2 1-3 2-3 3-3 2-1 1 2-1Zm316-2a3 3 0 0 0-1-3v-3a6 6 0 0 0 0-5l-1-6-1-3-1-4a1 1 0 0 0 0-1 2 2 0 0 1-1-1v-6l-1-3c0-2 1-6 3-8 2-1 2-2 1-2l-3 4h-2l-4 2v2c1 0 1 1-1 2l-2 4-1 1-1-2c0-2-1-3-2-1-1 1-1 1 1 3 2 3 2 3 4 0 1-2 1-3 2-2v10c0 2 0 2 2 1 1 0 2 0 1 2s-2 6-1 7l1 3c0 3 1 4 3 2 2-1 5 0 3 1v8l2-2Zm-176-4 3-5-2 1-1 2-4 5 4-3Zm-108-2c3-2 4-3 4-5s-1-1-5 2l-3 3a38 38 0 0 0-4 2c-2 3 3 1 8-2Zm7 3 8-5 4-3 3-2 7-3a1114 1114 0 0 1 60-50l9-8c4-3 4-2 1 2l-3 3a301 301 0 0 1-21 22l-3 3v2l7-6 7-6 2-2 2-2a161 161 0 0 0 15-16v-2l2-2 3-4 2-3 4-4a9 9 0 0 1 2-3l-5 4-5 5 2-2 2-3 4-4a29 29 0 0 0 6-11 319 319 0 0 1-38 37l-3 3-2 1-3 3-6 7c-1 1-5 3-6 2s-1-1-3 1a92 92 0 0 1-7 6 35 35 0 0 1-5 5l-4 3-2 3-4 4h-1l-2 1-2 2-3 2c-2 2-3 3-1 3l7-7h1l-2 2c-2 2-3 2-3 4 0 1-1 2-5 3h-2l-4 2-9 6-2 1-2 1-3 2c-5 3-4 4 1 3Zm296-1-1-3v-6l-1-1-3-6-1-2a2 2 0 0 0-1-1l-1-2-1-2a1 1 0 0 1 1-2h1l-2-1c-1 2-2 0-3-2l-2-2-3-4a3 3 0 0 0-5-2v2l1 1 2 1 1 4c0 2 0 2 1 1 2-1 2 0 2 2v2l1 1 1 1c1 0 2 1 1 3-2 2-1 4 1 2s3-1 2 1c-2 2-1 3 1 3h1v1l-1 3h1l2 1v2c0 2 0 3 2 3a2 2 0 0 1 2 2h1Zm-7-1c2 0 1-1-2-2l-3-1-1 2-1 1h7Zm-179-3a284 284 0 0 0 25-9c1-1-1-1-7 1l-4 1-9 2-3 1-2 1c-3 2-4 5-3 4l3-1Zm172 1 1-2c1 0 2-1 1-2l-4 3c0 1 1 2 2 1Zm-294-2a74 74 0 0 1 9-6l4-3c8-5 9-6 8-7-2-1-25 14-25 17l4-1Zm15-1a36 36 0 0 0 5-4l2-1 6-3 1-2c0-2-1-1-5 2a17 17 0 0 1-4 3l-2 1h-1l1-1a102 102 0 0 0 6-5c2-1 3-2 2-3s-2-2-3-1v2h1l-2 3-9 4c-2 1-2 3 0 3h1v1l-2 1v1l3-1Zm-24-1 3-1 2-1 2-2 9-6c3-3 3-3 0-1a108 108 0 0 1-11 6l-4 3-5 4 4-2Zm335 0-1-2v-3c0-4-1-6-3-7l-2-2-9-6a43 43 0 0 1-8-5l-1-2a1 1 0 0 0-2-1c-2 0-4-2-3-3s0-1-1-1l-1-1-1 1a2 2 0 0 0 0 2v1c0 2 0 2 2 2l1 1 1 1c1 0 2 1 1 2 0 1 0 2 2 1h2l2 1v1l3 3c2 0 2 0 2 2a2 2 0 0 0 2 0 1 1 0 0 1 1 2l2 1h2a1 1 0 0 0 1 1l3 4c-1 2 0 5 1 5l3 2v1c1 2 1 1 1-1Zm-32-1 1-2-2 1c-2 2-1 3 1 1Zm-142 0c5-1 7-1 6-2h-2l-4 1-4 1h4Zm165-2 1-1v-2c-1-2-6 1-6 4l5-1Zm-204-2 3-4 2-3-2 2-2 1-2 3c-4 4-3 5 1 1Zm180 2v-2c0-2-3-1-3 1l1 1h2Zm20-3 1-3c-2 0-6 4-5 5s2 1 4-2Zm-186 2a746 746 0 0 1 52-13l9-3 3-2c1-1 0-1-1-1l-4 1-7 3h-1a5 5 0 0 0-5 0l-6 2-8 2h-4l6-2a78 78 0 0 0 7-2l4-1h3l13-6-1-1-4 1-4 1-3 1-3 1-2 1-6 2h-3l-2 1-3 2-4 1-3 1-10 3h2a90 90 0 0 1 12-2l-4 1-2 1-5 2-6 2-3 1 2-2c3-2 2-3-1-2l-2 1-3 2-4 3c-2 2-2 2 1 1Zm28-3h11a34 34 0 0 1 8-3l2-1h3c5-2 6-2 3 0l-2 1 8-1h9l8-2 6-3 3-2-2-1-3 1c-5 1-6 1-7 3h-2l-6 1-4 1h-5l3-1 13-4 3-2c3-2 2-2-2-1a83 83 0 0 1-7 1l-3 1-3 1a2 2 0 0 1-3 1l-7 1-3 1-7 2a117 117 0 0 1-14 4l-2 1-3 2 5-1Zm154-1 1-2-3 2h2Zm-314-1 3-3c0-2-1-1-2 1l-3 3 2-1Zm112-1 2-2 1-1 1-2 1-2 2-3-1 2-4 5-3 3h1Zm114 0 2-1v-1c0-3 0-3-4-2l-5 1c-3 0-4 1-2 2s6 2 9 1Zm407-2 5-3 3-1a256 256 0 0 1 14-13l-3 4c-2 2-2 3-1 3 3-1 6-2 7-4 1-1-3-6-4-6l-2-1-2-1-6-2c-3-2-3-2-6 3l-3 5-2 5 3-3 8-8-2 3-5 7-1 2a18 18 0 0 0-3 4c-1 1 0 2 1 1l5-5c4-6 9-11 10-10v1l-6 7-3 4-2 3-2 1c-1-1-2 0-5 2s-4 2-4 0c1-3-1-3-4-1h-2c-1-1-2 0-1 1 1 3 8 4 13 2Zm-396 0c3-2 3-3-2-2l-4 1c-2 2 3 3 6 1Zm12-1h2l2-2c2-1 2-1-1-1l-2-1-2 1-2 2c-2 0-2 1 0 1h3Zm-106-1 2-1h-3c-2 2-1 2 2 1h-1Zm-108 0 4-2 3-2 1-2 4-2-2 1c-3 3 2 2 6-2l3-3 4-3 5-4 1-2 2-2c2-2 3-4 1-4l-8 6-4 3-2 1c-4 2-6 5-4 5h2l-3 2-4 2-5 3-6 5h2Zm582 0c0-1 0-2 2-3l5-1c3 0 2-6-2-7l-2-1-8 8-1-1 7-8 1-1c0-2-3-2-6 1h-1a26 26 0 0 0-6 5l-1 2c0 1-2 2-2 0-1-1 5-7 6-7l2-1 4-2c3-1 3-2 2-3h-3l-3 1-2 2-2 2-4 4h-1c0-1 4-6 7-7l3-2 3-1c2-1 2-2 1-3l-1-1-1 1-2 1-3 3c-3 2-5 3-3 1l-1-1-1 2-1 1c-4 0-5 3-3 8 1 3 0 4-2 3l-2-1-1-1-3-1c-1 2-2-1 0-3l1-3v-3c2-3 0-3-3 1l-4 4c0 2 1 2 1 0a5 5 0 0 1 4-3c1 0 1 1-1 4s-2 3 0 4c3 3 6 3 9 3l3 1 4 1h8c1-2 8-7 9-6l-3 3-5 4v1h2Zm-396 0c3-1 4-1 3-2l1-1c2 0 2-1 0-1a4 4 0 0 0-3 1l-2 1-3 2h4Zm-215-2 2-1a3 3 0 0 0 2-2l2-3 1-1c0-1-1-1-4 2s-5 5-7 5c-1 1 0 1 1 1l3-1Zm15 1 6-6 2-2 2-3-3 2-6 5-4 3 3 1Zm118-1 4-4-3 1-2 1-2 2h3Zm16-1 5-3 9-4 3-1c2-1 2-2 1-2l-2 1-2 1-2 1-3 1-3 1-3 1-3 1-4 1-1 1-2 2 7-2v1Zm173 0 2-2 1-2-4 4h1Zm-311-2c2-1 2-2 2-3a1 1 0 0 1 1-1v-1l-1 1-2 1-3 3h3Zm310-1c2-2 2-2 1-3s-4 2-4 4l3-1Zm12 0-1-3-2-4c-1-1-7-5-10-5l-8-2-1-1-5-1-4-1a3 3 0 0 1-2-2l-2-1-2-1-1 1h-2l-1-1 1-1a2 2 0 0 0 1-1h2c2 2 5 2 5 0l-6-3-4 1h-3l-3-1-3-1-3-1c-6-2-7-2-9 1-1 3-1 3 1 1h2a1 1 0 0 0 1 0c1 0 1 1-1 3-1 2-1 3 1 1a4 4 0 0 1 5 0h3l-1 2-2 2-2 2 1 1 2-2a42 42 0 0 1 3-2v-1c0-2 3-3 4-1h2c2-2 3-1 2 0l-1 2-2 3c0 1 1 1 3-1 2-1 3-1 2 1h2c2-1 2-1 2 1v1h5l1 1c1 2 2 3 2 1l3-1 2 1h2v2h2c1 0 2 0 1 1l3 4 4-1 2-2v2l3 3 2 1c1 2 4 3 4 2Zm-65-1v-3l1-1v-1l-1 1-1 1-1 4 2-1Zm49 0v-2l-2 2h2Zm-52-2v-4c-1 0-4 4-2 5l2-1Zm45 0v-2c-1-1-2 0-2 1l2 1Zm-52 0 4-5-3 1c-3 3-3 5-1 4Zm-90-1h3l2-1h2l3-1 3-1 2-1 3-1 4-2h-4l-2 1-3 1-2 1h-2l-1 1-7 2-1 1-2 1 2-1Zm87-1 3-4h-3l-2 3c-2 2-2 2 0 2l2-1Zm-47 0h3l6-2-3-1h-2l-1-1-2 1-3 3h2Zm40-1 6-5 2-3h-3l-1 2a2 2 0 0 1-3 1c-1-1-1-1-3 1-3 2-3 3-1 3l1 1c-1 2 1 2 2 0Zm-124-1 7-7 2-6-4 4c-7 8-9 13-5 9Zm11-1c3-3 4-5 1-3l-2 2-2 3 3-2Zm456 1v-1l1-2 1-2c-1-1-3 1-3 4-1 2 0 3 1 1Zm-555-1 3-3c3-2 3-3 4-2v1c-2 3 2 1 5-2l3-3c6-4 18-17 13-14l-2 2-4 3-4 2-4 2-4 4-4 3-3 3-5 5 2-1Zm585 1c1-1 0-8-3-14v-3l-2-3c-2-5-1-10 2-10v2l1 1c3 0 7 2 7 3s1 2 3 2h1v1l1 3c1-1 2 0 2 1 1 2 1 3 2 2 2-1 3 0 3 3 0 1 0 2 2 2h2l1 1c3 0 3-5 0-6l-2-1-2-1-3-2-6-6-2-2-2-4-3-2 3-3 2-1 2 1 3 1c1-1 2 0 2 1l2 1h4a1 1 0 0 1 2-1l1 1h3c1 2 3 3 4 1l1-1v1h3c1 0-2-4-5-5l-7-1a60 60 0 0 1-11-1h-2l-3-1-3-2v-2c-1-1 0-2 3-2 2 1 3 1 3-1v-1l1 1h2c0-2 0-2 2-2a2 2 0 0 0 2 0v-1h5l1-1h2l2-1c1-1 0-1-4-1h-6l-2 1h-1l-3 1-3 1-2 1-2 1-2 1-1 1-2-1c-3 0-4-2-4-4l-3-2a2 2 0 0 1-1 0h-2l-2-1 2-1c3 0 1-2-3-2-3 0-4 0-3-1v-2l-4 2-3 2c-1 0-6 3-7 5l-1 2-2 5 4 2h2l-1-1a2 2 0 0 1 1-2l1-2 7-6c2 0 1 1-1 3-3 3-5 6-4 7l-1 1v2a1 1 0 0 0 1 0 1 1 0 0 0 0-1l1-1 1-1 1-2 1-3 4-3v2l-5 8 1-1c2-3 7-6 8-6l-2 3-2 3 2-1 4-1-3 3c-2 2-2 3 0 2l2-1a2 2 0 0 1 1-1c2 0 1 1-1 2l-3 4a1 1 0 0 1-1 1c-3 2-6 6-4 8 0 1 0 2-3 5l-2 3v2c-2 0-2 2 0 2l-1 2v3l2 3 4-4v-2l1-3 1-3v-2l2-4 1-2 2-2v-2c0-2 1-2 3-3 3-2 4-1 1 2l-1 3v1l1 2v2l1 3c2 0 2 0 0 1a2 2 0 0 0-1 3h4l-1 1-1 3 1 1v3c-1 1 0 3 1 2s2 0 2 3 2 4 4 3Zm-12-35 3-3-1 2-2 1Zm13-2-2-1c-1 0-2-1-1-2h2l2 1h1v1c-1 2-2 3-2 1Zm-33-7c-3-1 6-11 10-11l-2 2c-3 2-7 6-7 8 0 1 0 2-1 1Zm40 41 3-6c2-3 2-4 0-4s-6 6-6 7v2l-1 2c0 3 1 3 4-1Zm28 2 3-4c2-3 2-3 1-8-1-3-1-3-2-2v6c0 1 0 5-2 5v-3l-1-3-1-2c-2 0-1-6 3-12 2-2 2-3 0-4-1-1-1-1-2 2l-1 3-1 3-2 3a2 2 0 0 0-1 1v1l1-6 2-4v-3c1-1 0-2-1-1l-2 2-1 2v2l-2 3v-9l-3 3c-4 5-6 5-2 0 1-3 1-3-1-3-1 0-3 1-3 4l-2 1c-1 1 0 2 1 4l2 1 4 2a5 5 0 0 1 3 2l2 2c5 2 6 5 5 10 0 3 0 4 3 2Zm-416-2 5-3c3-3 2-4-2-1-3 2-3 1-1-2 5-5-3-1-9 5-3 3-3 3 1 3h3l3-2Zm-12 1 4-3 5-4 2-2-2-1-4 3-3 2-4 2c-2 1-2 2 0 3h2Zm-118 0 12-11 2-3c3-3 1-3-6 4-7 6-11 11-8 10Zm89-2 2-1 2-1 3-2 3-2 2-1c2 0 2-1 0-1-2-1-5 0-9 3l-2 2-3 4c0 1 1 1 2-1Zm-175 0c4-2 7-5 16-14l6-5 6-6h-1l-1 1-3 2a45 45 0 0 0-12 11 249 249 0 0 0-11 11Zm201-1 7-5c3-1 4-2 3-3l-3 1-5 3-5 4c-1 2 1 2 3 0Zm-19 1 5-2c2 0 2-1 1-1h-3c-4 2-6 4-3 3Zm376-1 3-2 2-2-5 2-1 2-1 1 2-1Zm-257-2h2c2 0 2 0 1-2s-3-3-6-3a99 99 0 0 1-16-4c-4 0-4 0-4 2s1 3 2 1c1-1 2-1 2 1h2a2 2 0 0 1 1 1h1a1 1 0 0 1 2-1 1 1 0 0 1 1 1h2c1 0 2 0 2 2l4 3 4-1Zm-223-4 6-6 4-4c0-2-13 9-15 13-1 3 0 2 5-3Zm548 1h-3l1 2 2 1 1 1v-1l-1-3Zm-430 2 4-3c5-3 7-5 7-7l1-2c1-3 1-3-1-1l-3 2-2 2-3 3c-6 5-7 7-6 7l3-1Zm405-2a362 362 0 0 1 3-5c-1-2-2-1-3 1s-2 2-2 1l-1-2v-6h-3v-1 4l1 3 1 4c1 4 2 4 4 1Zm-584-1c2-1 5-3 4-4l-8 6 4-2Zm562 1 3-1 2-3c-1-2-2-1-4 1l-3 2-1 2 3-1Zm-344 1h2a1 1 0 0 0 2-1l-1-1 1-2 1-2-2 1-3 3-1 2h1Zm-183-1 4-6-7 7 3-1Zm67-1 2-2 2-3 2-2v-2l-1 1-2 2-5 8 2-2Zm443 1 1-3-5 4 4-1Zm-562-1 1-1v-1l-2 2c-2 2-1 2 1 0Zm131 0 2-2-3 2c-2 2-1 2 1 0Zm65-2 2-2c-2 0-7 4-6 4l4-2Zm-26 1 3-2v-1l-2 1-2 1-3 1h4Zm-130 0 2-2h1c1 0 2 0 2-2l2-2 5-4 4-4 6-4 3-3a83 83 0 0 0 8-7 913 913 0 0 0 22-25l-9 8-10 8-6 5-8 8-5 5-3 3a309 309 0 0 1-14 16Zm175-2c2-1 3-2 2-3l-1 1-2 1-2 2 3-1Zm-22 0 3-2 2-1 3-2c3-2 4-4 4-7l-5 3-3 2-1 2-1 1a6 6 0 0 0-4 3c-1 2 0 2 2 1Zm43 0 2-3c1-2 2-2 3-1v2l1-2 3-5v-1h-2l-5 4-1 2-4 5 3-1Zm328-1c2 0 3-2 2-3l-4 2c-1 1-1 2 2 1Zm19-1v-3c-1-1-4 2-4 4l4-1Zm-352-1 3-3a1 1 0 0 1 1-1h1l4-3c3-3 4-4 6-4v-2c0-2-1-2-2-1l-3 3-2 2a1 1 0 0 1-2 1l-3 2c-3 4-3 1 0-4a58 58 0 0 0 5-7l2-3 2-2 1-2 5-9c3-3 4-1 1 3-1 2-5 9-4 10l2 1 3 2h3c2 0 13-10 11-11-2 0-1-2 1-6 8-14 17-23 19-21 2 1 1 1-1 3l-4 4a56 56 0 0 0-9 13l-3 6v1l-7 8c-5 6-1 4 5-2 5-4 5-4 4-5s0-2 3-8c4-8 18-21 19-19 1 1 1 1-4 6a38 38 0 0 0-5 5l-2 3-2 2-4 8a1 1 0 0 1 1 0c1 1 1 1 7-6a150 150 0 0 1 15-15l-4 6-1 1-3 4-4 5 15-15c2-2 2-2 3-1s0 3-3 6l-3 3-2 2-1 1-2 2-3 4 5-4 11-10c4-3 3 0-1 4a181 181 0 0 0-13 14l-2 2-1 1-2 1-1 1-3 2-4 3-8 9 1-1 2-1 1 1 5-4 11-11 5-5c4-5 13-14 15-13 1 1 0 2-3 6l-10 10c-2 3-4 4-5 4-2 0-3 1-5 3l-4 4c-6 5-8 8-3 6a6 6 0 0 0 4-2c2-4 7-7 10-8l3-2 2-1 1-2c-1-1-1-2 2-5l5-4a606 606 0 0 1 21-26l3-10 1-6 2-7v-13c-1-1-1-2 1-2l1-1-1-5-1-2-3-6c-2-3-2-5-1-5l1-1c0-1 0-2 2-3l1-2c0-2 1-4 4-4l4-3c8-5 15-7 20-5h-1a47 47 0 0 0-22 9c-5 3-3 4 3 1 3-2 10-4 11-3l-3 1-5 3a197 197 0 0 1-10 5l-1 1h1c1 1 0 2-2 2s-2 0-1 1h3l13-6h3l-2 1-6 3c-7 3-8 5-8 6l1 2c0 1 1 1 5-1a39 39 0 0 1 18-5l23-1c1 1-1 1-5 2a91 91 0 0 0-10 0h-2l-4 1-4 1h-2c-1-2-8 0-8 1l9 1c5 0 4 1-3 3a35 35 0 0 0-10 4c-2 0-5 4-4 6v11l-1 7a35 35 0 0 1-2 9l-1 3a171 171 0 0 0-6 14l-2 5a92 92 0 0 0 23-27l2-2c2 0 1 3-3 7l-3 4a88 88 0 0 1-18 19l-2 2-1 1-4 4c0 1 4-1 5-3l9-5-2 3-6 5-10 6c-2 0-4 2-4 3 1 1 2 0 6-2l5-2 2-1 2-1 3-2 8-3-1 1-2 2-7 4-2 1-3 2-2 2-11 3-3 1h7c5-1 6-2 14-6l21-11c9-5 9-3 0 3l-1 1c4-1 3 1-1 4-3 1-3 2-2 2l4-2 3-3 4-3 6-6 6-5c7-7 9-8 10-8l-1 2c-6 5-12 11-11 12 2 0 0 2-3 3l-2 2-3 2-2 2-2 1v2h2a1 1 0 0 0 1 0h2l2-1 3-3 4-3 4-3 5-3 4-2c0 1-6 6-9 7-4 2-7 7-3 5h3l-2 1c-3 1-3 3 0 2l3-1 2-1 3-3a301 301 0 0 0 16-8l-1 1-5 5-4 3c-3 1-4 2-1 1l2-1 2-1 3-1c1-1 2 0 2 1l4-1 4-3c5-2 9-5 13-9 14-13 17-15 17-14a62 62 0 0 1-11 11l-7 7-10 7-12 6 5-1 5-2c2 0 5-2 11-7a141 141 0 0 1 15-10c0 1-3 4-11 9-6 4-7 6-3 4l2-1 2-1 4-1 8-5 9-6 5-3 3-1-5 4-3 3-2 1-4 3-3 2-3 2-2 2c-2 0-2 1 0 1 3 0 2 1-1 3l-5 2a403 403 0 0 1 23-8l9-6 17-12c2 0 0 3-8 9l-4 3-2 1-1 1-2 1-1 1-7 4c-4 2-5 3-2 2h4l2-1 4-2 5-1c1 1 0 1-2 2l-4 2-3 2c-4 2-2 2 2 1a137 137 0 0 1 11-4 76 76 0 0 1 6-3l3-2c3 0 4-1 10-6 12-8 13-9 14-8l7-4 6-4c6-5 9-10 5-10l-2 2-6 4 6-6a202 202 0 0 0 16-15l2-3c3-3 0-2-5 2a74 74 0 0 1-9 7l-1 1c0 2-2 5-6 7l-1 1-3 3a75 75 0 0 0-11 8l-2 2-3 2-4 3-2 2-1 1-3 1v-2l7-5 11-9 5-5c0-1 5-6 10-9 2-1 2-1 1-2-1 0-1-1 2-3l10-12-4 1-6 4c-5 3-2-3 5-9 2-2 1-2-1-1-2 0-2 0-1-1 1-2 0-2-5-1a54 54 0 0 1-8 2l-11 2c-3 1 1-2 5-3l10-3 14-3 6-2c1-2 1-2-3-1l-1-1 1-4-4 1c-4 2-6 2-6 1-1-1 1-1 8-4 7-2 7-2 9-5 1-2 0-2-2-1-3 1-3 1-3 3h-2c-1-2-1-2-4 0h-4l7-3c3-2 7-6 3-4-1 0-2-1 0-2l3-1 7-5c6-5 6-6 0-6l-7-1h-15c0-2 12-2 23-1 6 1 5 1 8-2a472 472 0 0 1 4-8l-1 1c-1 1-2 0-2-2 1-1-5-4-11-6l-4-2-4-1c-5-1-10-3-7-3 5 0 17 4 25 8 4 2 3 2 6-1a104 104 0 0 1 9-7v-1l4-3c6-4 9-6 8-7l-5 3-5 2c-1 0-1-1 1-2l2-1 2-1 12-6 4-1h2l-2 1-4 4a227 227 0 0 1-5 5l5-1c3-3 8-4 13-4l4-1v2l4 2 9 4 6 4c0 1-1 1-5-1a134 134 0 0 0-12-6c-6-3-9-3-11 0v2l7 2a41 41 0 0 1 19 9h-3a92 92 0 0 0-18-8c-3-1-3-1-5 1l-4 2a73 73 0 0 0-15 8l-4 2-4 3h1a3 3 0 0 1 2 0l3-1 2-1 1-1 3-2 4-2 8-3c3 0 2 2-2 4a28 28 0 0 0-4 3l-4 2-4 2-5 3-6 3-2 1-2 2-2 2h2l3-2 3-1c1 0 2 0 5-3l7-4 2-2c2-2 8-3 10-2h1l11 1c6 0 11 3 6 3h-3l-1 1-12 4a45 45 0 0 0-11 5 212 212 0 0 0-27 20c-2 2-4 4-3 2l2-4-8 6-4 4-4 2c0 1 2 1 4-1h2l2-1c3-2 3 0 1 2l-1 2-3 2c-5 4-6 8-2 5 6-3 7-3 7-2s-2 3-5 4l-2 2h3a2 2 0 0 0 2-2c1-3 12-13 11-10 0 1 1 1 3-2 3-3 3-3 1-2h-1c0-2 0-2-1 0l-3 2-2 1-2 2-2 1c-1 2-2 2-1-1l1-4 2-2 5-5 4-2c3-4 5-4 5-1 0 1 1 1 3-1l2-2c-2-1-1-2 5-6l3-3 7-4 6-3 16-5c2 0 2 2-1 2l-9 3c-2 2-8 4-9 4l-2 1a547 547 0 0 1 1 2l11-4 5-1 4-1c0 2 0 2-3 3l-5 1-2 1-4 1-7 3-6 3a132 132 0 0 0-15 12l4-1c2 1 5-1 6-3s21-11 26-12a193 193 0 0 0-20 13l-4 2-4 2-3 3a56 56 0 0 1-8 5l-2 1-5 5c0 1 3 0 5-2l12-9c2-1 4 0 2 2-2 1-2 2-1 2l2-1 2-1c1 1 1 1-6 6-2 1-2 2-1 2l3-2h2l4-3 4-1 3-1c6-2 17-6 18-5l-2 1-2 1-3 1-3 2-4 1-4 3-4 2-3 1-2 1-3 2-4 2c-1-1-10 7-10 9 1 0 2 0 3-2h2l3-1 13-9 2-2h2c0 1 1 1 4-1l15-4c0 1-2 2-7 3l-9 4-3 2-3 1-2 1-7 4-2 2c-2 1-7 5-8 8l-4 4-2 4a2 2 0 0 1-2 1l-6 6-3 3 2-1a63 63 0 0 1 10-8l1-1c0-3 6-8 16-16 7-5 13-8 16-8l7-3 6-3-2 2-1 1a136 136 0 0 1-16 8l-2 1-2 1-5 3-2 2-5 4-5 4-3 4 4-2a67 67 0 0 1 20-12l4-2a50 50 0 0 1 7-4l12-6 2 1 2-1c1-2 5-4 10-7l2-1h-3l-7 5h-2l3-3c5-3 4-4 0-2h-2c-1-1 2-2 10-3l5-1h7c1 1 0 2-2 3-2 0-3 0-2 1l8-1h3l10-2c1-2 1-2-6-2h-7l-1-1a7 7 0 0 0-6-3l-7 1-12 2h-2c-2-2 6-3 19-4 6 0 8 0 9 2h11l3-2v-1l-2-1c-9 2-13 2-15 0-1-1-3-2-4-1h-7l-6 1a28 28 0 0 0-7 1c-1 0-1-2 1-2l9-1 6-1c0-2 6-2 9 1 3 2 2 2 12 1 5-1 7-2 7-4h-6a41 41 0 0 1-19-1h-19l8-2 7-1 2-1 7 3 8 1 10-2 3-3 2-2a3 3 0 0 1 3-1l4-2a1 1 0 0 0-2-2h-1l-3 2a268 268 0 0 1-7 5h-3c-6 1-15 0-15-2h15l1-2c1-1 0-2-1-1h-2l8-5c6-3 6-4 6-5l5-3 4-3c0-1-2-1-3 1h-2l-3 1-1 1-5 3-8 1h-4l-7-2-7-4a117 117 0 0 1-11-4c-4-2-1-3 4-1l16 7c3 3 14 3 16 1l-3-1c-5 0-10-1-15-4a675 675 0 0 0 1-1h3c1 1 6 3 10 3a224 224 0 0 1 6 0l5-5 2-2-2 1c-2 1-4 0-3-1 1-2 1-2-3-2h-7l-6-1-6-3h4l4 1h2c4 2 16 2 16 1-1-1 0-2 2-2h2c1-1-1-2-2-1l-3-1h-6a46 46 0 0 1-10-1l-7-4c-1-2 5-2 18 2l6 1 1-1 3-1c3-1 4-2 1-1-3 0-4 0-4-2h-1a67 67 0 0 1-19-3l-3-2h4c2 1 2 1 2-1h3c4 3 15 4 17 3l5-1c2-1 3-1 2-2h-2c-1 2-2 2-6 0l-7-1c-10 0-19-3-19-6l-1-2c-3-4-4-3-2 0s2 6 0 5c-1 0-1 3 1 4 2 2 1 3-2 1-7-4-9-4-3 0l5 5-5-3-5-3-6-4h10l-2-2-2-3h4l1 1c0-1-2-3-6-4l-5-1c-3-2-3-1-1 1 3 2 2 3-1 1l-6-5-5-3-4-3a117 117 0 0 0-17-10h-8l-9 2-3 1c-1 1-1 1-4-1-8-8-12-10-18-13-4-1-6-3-4-3h1l-3-2h-1a36 36 0 0 0-10-3 213 213 0 0 0-25-6l-4-2a309 309 0 0 1-17-1h2c4 1 7 3 7 4h-7l-2-1-6-1a178 178 0 0 1-15-3c-2-2-28-2-31-1-1 0-2 0-1-1 0-1 2-2 12-2h8c0-2 3-3 3-2l1 1v-2l-1-1-9-2-4-1-3 1-4 1h-16c-6 1-3 2 3 2 5 0 7 1 7 2h-1a89 89 0 0 0-23 1h-4a353 353 0 0 1-21 3l-9 2h-3l-1-1-2 1a128 128 0 0 0-22 5c-6 2-7 4-2 3 16-4 36-6 36-3l-7 1-6 1-3 1h-3l-7 2a490 490 0 0 0-4-1c9-2 11-2 9-3l-3 1h-3l-3 1-4 1-7 2c-2 1-3 0-1-1v-2c0-1 1-2 5-3l3-2-5 1c-3 1-8 3-9 2-1 0-1-1 2-2l3-1 15-3 6-2-1-1h-4l-2 1-3 1-2 1h-2c0-1 1-2 3-2 4-2 1-2-5-1l-5 1c-5 0-8 2-6 2 2 1 1 2-5 2-10 0-19 2-21 4a3 3 0 0 1-3 2l-2 1h-1l-1 1-3 1-5 3a196 196 0 0 1-13 8 43 43 0 0 0 14-5 90 90 0 0 1 22-10c8-3 13-4 13-2h-2l-8 3-3 1-1 1-4 1-3 1-4 2-7 4c-6 3-10 5-11 7h-2v-1c0-2-1-1-8 2l-3 2a71 71 0 0 0-11 5l-3 2h2l3-1 5-2a48 48 0 0 1 16-5l2-1 1-1a479 479 0 0 0 30-15l5-1 6 1-1 1a28 28 0 0 0-12 3l-4 2c-3 2-4 2-3 0l-8 4-4 2-3 2-1 1-5 3-2 2a88 88 0 0 0-25 19l-2 1-2 2c-2 0-3 2-3 2l2-2 4-1 3-2 4-2 9-6c5-4 9-6 11-5h3c3-1 1 1-2 2l-5 2-5 3-7 7 7-5 7-4c2 0 1 0-1 2l-7 6 4-2 7-4 3-1 9-4c11-8 14-10 18-10l7-1 10-3c3 0 3 1-1 2-6 1-11 3-14 5h-2l-1 1-2 1c-1-1-5 0-7 2h-1l-4 3-1 1-2 1-3 2-4 3c-2 2-3 3-3 1l-2-1-12 9-8 8c-4 4-5 6 0 3l20-13 9-6a110 110 0 0 1 12-7l8-4c1 1 0 2-4 4a43 43 0 0 0-6 4l-4 2-5 3-9 7-4 2-3 1-4 3-2 2-3 2-7 6-4 2a1 1 0 0 0-1 0l-3 2-3 2-3 2-8 7 4-2 8-6 4-2h2l1-2 2-1 10-5 4-3 3-2 4-3c7-7 27-18 27-15l-8 5-2 1-7 4c-5 2-10 7-10 9l-5 5-3 2a1 1 0 0 1-1 2l-2 1c-3 1-6 3-9 7-2 3-2 3 0 2l9-6 5-4a61 61 0 0 1 20-16l4-3 4-2 3-3 4-2a72 72 0 0 1 25-12h2c1 0 1 1-1 2-3 0-13 4-14 5l-10 5c-1 0-3 3-3 6l-6 5a127 127 0 0 0-17 11l-6 5-3 3v2l2-2 7-5 6-4 2-2c3-1 8-4 13-9l7-6 9-7 4-1a1 1 0 0 1 0 1l-2 1a645 645 0 0 1-18 16l10-7h2l-2 2a168 168 0 0 1-18 13l-4 3-3 3-3 1-1 2-2 1c-3 2-14 13-14 15l4-3a74 74 0 0 1 5-3l5-4 3-3 7-5a602 602 0 0 0 11-7c5-3 7-4 10-3a4 4 0 0 0 3-1c3-2 5-3 6-2s-1 1-8 5l-2 2-3 2c-3 1-5 4-4 4s1 1-1 3c-3 2-3 4 1 2h2c1 1 1 0 4-1 2-1 3-2 4-1l-3 2-12 8-3 3-5 3-3 3a123 123 0 0 0-11 9 150 150 0 0 0-8 7l-3 3c-8 5-16 16-16 20v2l1-2 5-4a194 194 0 0 1 43-39 37 37 0 0 1 5-4h2l-1 1-1 2 5-3 3-1-4 4-3 2-5 3-2 2-3 3c-6 3-11 7-10 8s0 2-2 2-8 5-16 15c-1 2-3 1-2-1l2-2v-1l-1 1-3 3-4 4c-5 5-8 9-8 12-1 2-3 1-3-1s0-2-1 0l-1 2-2 2a147 147 0 0 1-10 11 73 73 0 0 1-6 7 135 135 0 0 1-9 11l-3 4-6 5-4 3-3 3-1 2-2 3c-5 6-5 8 0 3a267 267 0 0 1 20-18l2-2 1-3 2-3 3-4a60 60 0 0 1 6-8c0-1 12-13 14-13 1 0 1 1-4 5a120 120 0 0 0-20 25c-2 3-2 4-1 5a2 2 0 0 0 3-1l1-2 2-3 2-3a134 134 0 0 1 8-10l3-4 4-5 5-4c1 1 0 3-2 5a106 106 0 0 0-9 10 175 175 0 0 0-14 17l-3 3-2 1a169 169 0 0 1-11 7l-7 5c-5 4-6 4-4 4 1 0 1 2-1 4l-6 5a36 36 0 0 1-6 5l-2 4 3-2c4-3 4-4 5-3 1 0-3 5-8 9-3 2-4 4-2 3l4-1h2l3-3c3-3 3-3 2-4l1-1v-3c-2 1 1-4 7-11l4-4 2-2v2c-2 1-1 2 0 1 3-1 3-2 4-4 0-3 1-4 2-4v2c0 2 0 1 3-1l4-5 3-2c1 1-1 4-6 9l-9 11a32 32 0 0 1-4 6l5-4c3-3 5-4 5-3l-11 11c-1 1-2 2 0 3l4-4 2-3c2 0 6-5 9-9l4-4 3-5 2-2a2 2 0 0 0 1-3 3 3 0 0 1 0-2l2-3 5-6 2-4 3-2v-2l2-2 1-2 4-4-2 4-3 6 3-3 4-4v2l-3 3-2 2a210 210 0 0 1-13 17c-3 3-3 4-2 5 1 0 0 3-2 4l-5 5-3 3-1 3-3 5-2 3-3 4c-2 1-2 2-1 3l2-1 2-3 4-7 1-1 4-2c6-7 8-9 6-4l-7 8-5 6-2 3-1 2 2-2c1-2 1-2 3-2a3 3 0 0 0 3-1l2-1 3-2c4-4 5-1 1 3-3 3-4 5-3 5l-7 7-2 2-2 2-2 2c0 1 2 0 5-3l10-9 3-3a107 107 0 0 1 5-8l4-7 4-5 3-5 8-11c4-6 10-10 13-9v2l-3 2a28 28 0 0 1-4 2v1l-2 3c-2 1-3 4-4 6-2 4-2 4-4 4-1 0-12 12-12 15 0 2-1 3-3 5l-7 11-8 9-4 5 2-1 2-2 2-2 4-4 8-9 6-9 3-3 7-8c1-2 2-2 2-1v2l-1 2-1 1-7 10c-2 5-5 8-4 5s0-3-3 2a113 113 0 0 1-8 10c0 1 1 1 2-1l2-1-2 5-1 2c1 0 1 1-1 2-3 4-1 3 4-1 3-3 4-2 2 2l-1 2v2l-1 1c0 1 1 1 3-2v1Zm-3-8 5-8v-1l1-2 4-6 2-2c1 1-1 4-6 12-4 6-5 7-6 6v1Zm26-13 5-5c1 0 1 1-1 3l-4 2Zm5-11c-4-2 15-26 20-26 1 0 1 1-1 2l-4 4-2 3-3 3a43 43 0 0 1-4 6l-2 3-2 4c0 2-1 2-2 1Zm-7-6 1-3 2-3c0-2 14-15 18-15 2 0 2 0-1 2a105 105 0 0 0-17 18l-3 1Zm-25-2c-1-1 2-5 4-8l3-5 3-4 1-1 9-12 2-2h1l-3 5-4 5-3 4-3 4a244 244 0 0 1-11 14h1Zm22-5v-3l2-2c2-4 14-14 16-14s1 2-3 4l-12 13c-1 2-2 2-3 2Zm184-1 2-2 6-4a380 380 0 0 1 20-13l-5 6-7 4-2 1-5 4-1 1-8 3Zm-199 0 2-5 1-1 7-9a256 256 0 0 0 11-12l-9 13a231 231 0 0 0-12 14Zm163 0 4-3c4-2 7-4 13-10a64 64 0 0 1 6-6l9-9a506 506 0 0 0-24 25c-4 3-7 4-8 3Zm-38-3v-2l10-9 4-3c2-1 3-2 3 0l-3 3-3 2-1 2-3 3-3 2-2 1-2 1Zm100 0a1 1 0 0 1 0-1l3-2 3-2c7-5 9-5 9-4l-4 4-4 2-1 1h-2c-1 2-3 2-4 2Zm-120-1 3-3a125 125 0 0 0 22-22 275 275 0 0 1-12 16l-3 3c-6 5-10 8-10 6Zm49 0 5-4c10-6 12-8 23-19 4-4 5-5 6-4 0 2-12 14-20 20l-4 3-6 4h-4Zm-162 0 5-7 9-12 3-5 2-3h1l-7 12a89 89 0 0 1-11 14c-1 2-2 2-2 1Zm121 0c-1-2 4-6 11-12l5-5 4-2-12 12a322 322 0 0 0-8 7Zm-39-1 6-11 9-9c4-2 4-1 0 3a47 47 0 0 0-9 9l-2 3c-2 5-3 6-4 5Zm-5-4 1-2a125 125 0 0 1 11-16l11-11c1 1 1 1-3 5a179 179 0 0 0-15 18l-1 3-1 2c0 1-2 2-3 1Zm-4-1c-2-1 1-7 7-14l4-4 11-11-3 4a108 108 0 0 0-15 19c-2 2-2 4-2 5s-1 2-2 1Zm-15-2c-2-6 22-37 33-44 4-2 5 0 1 2a103 103 0 0 0-16 16 109 109 0 0 0-12 18l-3 7c0 2-2 2-3 1Zm9-2a2 2 0 0 1-1-3l5-8 3-4a134 134 0 0 1 23-22c1 0 1 1-1 2l-8 8a156 156 0 0 0-16 20l-3 6-1 1h-1Zm-15-1c-1-1 1-5 4-10l2-4 4-5 3-4 2-2 2-3 4-5 4-4 10-10c2 1 2 2 0 3l-9 9-7 7-3 4a58 58 0 0 1-3 5l-2 2-2 3-2 3-4 7-3 4Zm157-1c-1-1 4-5 13-11l19-14c2-2 4-2 3 0a48 48 0 0 1-11 9l-3 2a151 151 0 0 0-13 9l-5 4c-2 2-3 2-3 1Zm40-5c-1-2 5-6 18-15l5-3-7 6-4 3-8 7-1 2c-1 1-2 2-3 0Zm-8 0 1-2a254 254 0 0 0 17-15 71 71 0 0 1 7-5c3-4 12-9 14-9 3 0 2 2-1 2l-8 5-1 1-2 2-3 2-2 1a92 92 0 0 1-10 10l-2 2-4 3-6 3Zm-195-2c-1-1 12-21 21-30l7-7c5-5 9-9 10-8l-2 3-4 3a444 444 0 0 1-21 24l-2 3-2 3-2 3-2 3-1 2c0 1-1 2-2 1Zm-5-2a180 180 0 0 1 19-29l14-17 4-4 4-4-2 4-4 4a186 186 0 0 1-13 16l-2 2c0 2-1 3-2 3l-4 7-6 7-2 4-2 2-1 2c-1 3-3 4-3 3Zm105-3 1-2a195 195 0 0 0 24-8c0 2-4 4-8 5l-3 1-5 2a323 323 0 0 0-9 2Zm-122-2c-1-1 0-2 1-5l2-4 2-3 3-4a228 228 0 0 1 28-29l5-6c2-2 2-3 0-1l-3 3c-5 3-9 8-9 9a1 1 0 0 1-1 1l-3 2-5 6a89 89 0 0 0-10 11l-2 2a38 38 0 0 0-7 9l-2 3c0 2-2 2-2 1l4-7 1-1 15-19c8-7 9-9 10-12 3-5-1-3-5 5l-3 2h-2l-3 4c-7 6-12 13-14 17l-1 1c-1 0-1-3 1-6l1-2v-4l1-3 3-4 3-3c4-6 28-27 30-26l-3 3c-5 4-20 18-25 25l-4 3-4 8 4-4a217 217 0 0 1 21-21l9-10 3-2 2-2c0-3 17-17 18-15l-4 3-2 3a3 3 0 0 1-1 2l-1 1-8 8-11 13 9-6 4-2h6l-4 4-4 4h2c4-2 3-1-3 5l-8 9-1 1c-1 0 0-3 5-8l2-3-5 3-2 2-2 3-3 4-4 4-3 2-4 4a200 200 0 0 1-9 10l-2 3-4 7-2 2Zm6-1c0-2 0-3 5-9a126 126 0 0 1 25-23c0 1 2 0 7-7l6-7 6-4v2l-9 10a304 304 0 0 1-14 17 433 433 0 0 1-5 3l2-3 5-7c1-1 0-2-1 0l-3 3-12 12-3 3-2 2c-3 3-4 6-4 8s-2 2-3 0Zm113-1c-1-1 1-2 10-6a208 208 0 0 0 20-8c3-1 4-1 3 1l-3 2h-1l-3 1-4 2h-1l-2 1a402 402 0 0 1-19 7Zm66-1c-1-1 9-9 14-11s6 0 1 2l-12 8c-2 2-3 2-3 1Zm37-4 2-2 9-6 7-4c3-2 4-2 4-1 0 0-2 3-5 4l-4 2-5 3-5 3-3 1Zm-100-3v-2l5-3a149 149 0 0 1 33-12c0 1 0 2-2 2a160 160 0 0 0-26 10l-4 2-4 2-2 1Zm-9-5a1 1 0 0 1 1-2l2-1c6-4 9-5 18-8a147 147 0 0 1 25-7c5-2 5-3 6-2l-6 4h-2l-3 2h-3l-2 1-5 1-5 2a27 27 0 0 0-13 4l-4 2-3 1-1 1-3 1-2 1Zm107-1c-2-1 3-5 15-10l8-3c1 1-1 2-2 3l-2 1-3 1-13 7-3 1Zm-18-2c-1-1 2-3 9-6l4-1 9-4h1c1 1-2 3-4 3l-3 1-3 2h-1l-6 3-3 2h-3Zm-23-1 4-4 2-1 11-6c4-2 16-7 17-6l-2 2-2 1-2 1-3 1-4 2a110 110 0 0 0-15 8c-4 3-5 3-6 2Zm16-2 1-2 9-5 9-3c15-7 19-8 19-7l-5 3-7 3-2 1-4 2-2 1-4 2c-6 3-13 6-14 5Zm-57-11c-1-1 0-1 2-2l6-1a182 182 0 0 1 14-6h3l-4 3-2 1-5 2-5 1-9 2Zm57-6c0-2 25-11 29-11 2 0 2 1-1 2l-5 2-4 1-5 2-3 1-4 2c-5 2-7 3-7 1Zm40-1c-1-1 1-2 3-2l4-1 14-4c1 0 0 2-2 2l-7 2c-6 3-11 4-12 3Zm-97 0c-1-2 15-8 25-10l6-1c5-1 6-1 4 1l-4 1-7 1-6 2a169 169 0 0 0-18 6Zm-72-3c-2-1 4-8 9-11 4-3 6-2 3 0l-4 3-3 3-3 4-2 1Zm158-1c-1-3 18-10 28-11 4-1 2 1-3 3a71 71 0 0 0-12 4h-2l-4 2-4 1-3 1Zm99-2 2-2 4-3v-3l5-3 9-3-2 2-3 1h-2l-3 1-1 1-1 1a2 2 0 0 1 1 1c0 1 1 1 5-1 8-3 10-4 10-2l-4 2-5 2a825 825 0 0 0-15 6Zm-262-2c-1-3 13-16 15-15 2 0 1 1-4 5-3 1-9 8-9 9l-2 1Zm22-6c-2-1-2-5 0-11v-4l-2 2a2 2 0 0 1-2 2c-2-2-1-4 4-6 3-2 3-3 1-4a4 4 0 0 1-1-3l4-3 5-3 2-2v1c-2 2 4 0 10-3l1-1-2-1h3l4-1c4-1 7 0 6 1a1 1 0 0 1-1 1h-2l-2 1-3 1-2 1-5 2-7 2c-2 1-3 2-2 3a3 3 0 0 1-1 2c-2 2 0 2 6-1 8-3 11-4 13-3 1 1 1 1-1 2l-7 2a190 190 0 0 0 19 1l4 1 4 2-7-1a146 146 0 0 0-7-1l-6 1 2 1c3 0 2 1-2 2-4 0-13 4-13 5v1l-2 1-7 4-2 5c0 1-1 2-2 1Zm7-11 5-3 2-1 1-2a99 99 0 0 1 10-4l-9 1a2 2 0 0 1-2 0c-1-1-8 2-10 4-2 3-1 3 3 2 5-2 3 0-2 2-2 1-3 1-3 3l5-2Zm-3-12v-2a2 2 0 0 0-2 3c0 1 1 1 2-1Zm138 23c-1-1 2-3 7-4l3-1c2-1 12-4 13-3l-3 2-3 1a113 113 0 0 1-11 4l-4 1h-2Zm-70-2c-2-1-1-3 2-3l7-1a130 130 0 0 0 21-6l15-6c3-1 2 1-1 2a80 80 0 0 0-9 3l-2 1-1 1-4 1-3 1h-1a43 43 0 0 1-14 5l-10 2Zm43-2 3-2 15-2 7-2c1 1-3 3-9 4l-4 1-12 1Zm-138-1c-2-2 13-13 17-13l-4 3-2 1-2 2-2 1-2 1-1 1-4 4Zm167-1 4-3 4-2c12-5 25-8 22-5l-9 3-2 1-9 2-3 2a57 57 0 0 1-6 2h-1Zm-39-1 2-1 7-3a268 268 0 0 1 18-4l-5 2-2 1a112 112 0 0 1-20 5Zm71-3c-1-1 1-2 6-3 11-3 18-4 19-3l-4 1-4 1-5 2h-4c-3 2-7 3-8 2Zm112-4c-2-2-10-2-13-1-2 1-3 0-2-1 1-2 9-2 14-1l3 1c1 0 2 1 1 2h-3Zm-309-3c0-2 18-14 20-13l-2 2-3 2-2 1-6 4-6 4h-1Zm103 0a2 2 0 0 1 1-1l3-2 11-4c2 0 0 2-3 3a36 36 0 0 0-6 2l-3 1-3 1Zm205-2-4-1h-11l-2-1 13-1 12 1h6l-1-1-9-2-8-2-9-1v-2l16 2c2 0-1-2-4-3-5-1-7-2-5-3 2 0 19 6 19 8l2 2 3 3-17 1h-1Zm-201-3c-3-2 4-6 14-9s15-4 16-3l-4 2a112 112 0 0 0-16 4c-2 0-7 3-8 5s-1 2-2 1Zm12-1c-1-1 2-2 5-2v1l-5 1Zm46-1a2 2 0 0 1 0-3l1-2c-1-3 13-5 26-4 6 1 7 3 2 2l-25 1c-1 1 0 2 2 1l23 2h-13c-5-1-12 0-14 2l-2 1Zm60-3h-3l-5-1-6-1-4-1h13c7 2 9 2 10-1 2-2 4-2 2 1l-1 2a1 1 0 0 1-1 1h-5Zm-202-2-1-3a1 1 0 0 0 1-1 1 1 0 0 1 0-1 1 1 0 0 0 1-1 1 1 0 0 0-1-1c-4-3 12-10 24-10 4 0 5 0 3 1v1l2 1c0 2 0 2-2 2l-7 2h-1l-5 2c-3 1-4 2-2 2h5l-3 1c-8 1-11 2-11 3-1 2-2 3-3 2Zm6-7 9-4 5-3 2-1 1 1c-1 1-1 1 1 1l1-1-1-1-2-1c-3 1-5 1-4 2s0 1-2 1c-10 3-12 4-12 5 0 2 0 2 2 1Zm-26 6 11-8 6-4-2-3a2 2 0 0 0-3 0l-1 1-8 5h-2l7-5c5-3 9-7 9-8l10-6 3-2 13-2c3 0 4 1 1 1l-4 1-5 1-2 1h-1 20l20 2h10l-11 1a782 782 0 0 0-32-1l-4 1c-6 1-16 5-17 7h4l5-1 5-2c10-3 21-3 21-2 0 2-3 3-4 2s-12 0-17 3l-4 1-3 2-6 3-2 2a57 57 0 0 1-9 6l-2 1-3 3h-3Zm42 0c-3-3 13-4 26-2h7c5 0 6 1 4 2l-11-1a127 127 0 0 0-26 1Zm177-3a61 61 0 0 0-17-6c-1-3 13 1 19 5 3 2 2 3-2 1Zm70-2-7-2-13-3h7c13 2 17 3 16 5h-3Zm-88-1-7-1-4-1c1-2 15 0 15 2h-4Zm-138 0c0-1 3-3 8-3l12 2v1h-20Zm232 0-2-1-3-1a158 158 0 0 0-17-8c0-2 22 7 24 9 1 1 0 2-2 1Zm-175-3c0-1 2-2 14-3l7-1h7l-4 1-5 1h-6l-11 2h-2Zm107-3-2-1-3-2-2-1-2-1-4-1-5-2-10-2h-24c-1 0-3-1-2-2h27l9 2 4 1-11-10-5-4c0-3 18 10 19 15l3 2 10 6h-2Zm-32 0-4-1-5-1c-6 0-16 0-19 2l-2-1c0-4 28-4 32 0 2 1 0 2-2 1Zm120-1c-5-4-10-7-16-9l-5-3h1l2 1 12 4 10 8-4-1Zm-214-2c-2-1 0-2 3-2l2-1c1-2 13-6 13-4l-1 1-9 3h4c6 0 9 1 9 2h-5l-9 1h-7Zm231 0h-4l-2-1 3-1a189 189 0 0 0 8 2h-5Zm-96-2-3-3-4-2-7-8c-2-2-2-3-3-2-1 0-1 1 1 3 6 6 8 9 7 9a123 123 0 0 1-17-17c-2-1-2-2 0-2l5 4 1 1v-2c-1-4 4 0 11 8l7 7 4 4h-2Zm-109-1c0-1 17-3 18-2 0 1-2 2-12 2l-5 1-1-1Zm181-4a92 92 0 0 0-23-9l-10-3-9-4-3 1-2 2-4 2-3 3-3 2h-3l5-4c7-5 9-9 2-5l-3 2-2 1-2 1-3 1-3 1 2-2 4-3-9-7a60 60 0 0 1-6-4l-6-4c1-1 7 1 14 6 4 3 4 3 8 0l5-3 7-4c6-4 8-2 1 2l-1 2 4-2c3-2 4-2 2 1l-1 1c0 2 0 2-2 3-2 3-2 3 1 2 2-1 17 3 17 5l-4-1a127 127 0 0 0-12-3h-1v2l1 1 9 3 13 4a109 109 0 0 1 22 9l3 3-5-2Zm-53-18c9-6 8-7-2-4-6 2-7 3-4 5 2 2 2 2 6-1Zm56 16-7-4c-5-2-6-4-5-4a23 23 0 0 1 8 4h1l3 2 4 3c0 1-2 1-4-1Zm-77-5c-9-7-11-8-9-9l7 5 9 8-7-4Zm-138 4c-2-1 0-2 3-2l14-1h2l2 1 2 1-6 1a304 304 0 0 0-17 0Zm47-1c-1-1 6-3 12-3h5l5 2h-7l-13 1h-2Zm71-1-4-5c0-2 1-1 3 1 2 3 3 6 1 4Zm-195-1c-2-2 5-6 12-7l7-2c7-2 12-2 14-1l3 1 2 2h-13a209 209 0 0 1-24 6l-1 1Zm87-3-4-1 13-1h11v1l-5 1a108 108 0 0 0-13 1l-2-1Zm187-2a47 47 0 0 0-10-7l-3-2-2-1-2-1-2-2h-2l-2-2v-1l6 3 6 3c9 5 15 9 14 11l-3-1Zm-169-3c-8-1-10-1-10-3h5l6 1 8 2h-9Zm-97-1h-2l-3-1 9-3a212 212 0 0 0 17-5c0-2 1-2 9-1a302 302 0 0 0 19 2h-12l-7-1h-4v1l6 3a165 165 0 0 0 16 2h-15l-9-2c-4-2-19 2-21 5a2 2 0 0 1-3 0Zm210-1a170 170 0 0 1-15-9l-4-2-7-4c-4-2-5-3-2-3l10 5c3 2 3 3 5 3l12 7c4 4 5 5 1 3Zm59 0-4-2c-4-4-9-7-13-9l-9-6c-3-3-5-3-8 0l-12 7-4 1v-1l3-1c6-3 8-6 3-4h-2l-10 4h-3l11-4a52 52 0 0 0 19-8v1l2 2 6 4 5 3c10 5 20 13 17 13h-1Zm-143-1c-2-2 14-3 20-1a275 275 0 0 0-21 1Zm40-1c-2-1-2-2 0-1 2 0 1-1-3-3l-3-2-3-2c-2-1-3-2-1-2 4 1 14 8 13 9v1h-3Zm-168-3v-4c-1-1-8 0-9 1h-2c0-1 2-2 7-2l5-1c0-2 1-2 3-3 6-2 8-1 3 0l-4 3h3l7-2h2l5-1-1 1h-1 2l3 1h-1l-2 1-4 1-13 4-3 1Zm117-2-6-1c-7-1-17-5-16-6l8 2 17 4 2 1h-5Zm-180-6c0-2 14-11 25-16l3-1 7-1 11-3c1 1 0 2-3 3a42 42 0 0 0-10 2 90 90 0 0 0-20 8l-10 7c-2 2-3 2-3 1Zm98-1h-12c0-2 12-2 14 0 2 1 1 2-2 0Zm35 1h-3c-9-1-16-2-18-4s0-2 2-1c4 2 6 2 14 3l9 2h-4Zm91-1-4-1-3-2-3-2-9-2c-2-1-2-2-1-2l14 4c7 3 10 6 6 5Zm-199 0 3-3 5-2c6-3 15-5 16-5 1 1 0 2-2 2l-7 2-10 5-5 1Zm36 0v-3l2-1c6-3 12-4 23-4l10 1h-14l-3 1-3 1h-3l-2 1-3 1-5 2-2 1Zm202-2-8-4-4-1-4-1-1-1c2-2 13 2 18 6 3 3 2 4-1 1Zm13 0a41 41 0 0 0-11-7l-3-1a1 1 0 0 1-1 0l-2-2-3-1-4-1-6-3c4-2 24 8 30 13 3 3 3 4 0 2Zm5-1 19-6h1l-15 5c-4 2-5 2-5 1Zm-127-3c-12-1-16-2-16-3h6l10 1c11 2 11 4 0 2Zm-27 0a96 96 0 0 1-13-2v-1c-2-1-1-1 4-2l8-1c3-1 4 0 0 1l-2 1h-4l-4 1 13 2c5 0 6 0 5 1h-7Zm-127-1c-2-2 14-12 21-13l4-2 11-3h1l6-1-6 2-3 1-4 1-5 3-2 1-12 5-6 3-3 3h-2Zm222-1-9-3-7-3 10 2 8 4h-2Zm-162 0c-1-2 2-5 9-6h18-6a76 76 0 0 0-11 1l-7 3h3a92 92 0 0 1 17-2c1 0 2 1 1 2h-6a91 91 0 0 0-13 2 43 43 0 0 0-4 1l-1-1Zm208-4-7-5c-3-2-5-3-3-3s17 10 17 11l-7-3Zm-32 2Zm-106-2 2-2 3-1-4-1c-7 0-6-1 0-1 7 0 9 1 8 2l-9 3Zm63-3-10-3c-4 0-5 0-4-1h6c8 1 11 2 10 4h-2Zm-95 0-5-2h4l9 1c7 0 11 0 5 1h-13Zm-36-1c0-1 1-2 4-2l4-1 10-1 11-2h5a79 79 0 0 0 13 0l-2 1a56 56 0 0 0-11 1l-2 1c-1 2-3 1-3 0 1-1 0-1-3-1l-11 1-5 1-10 2Zm156-1c-3 0-1-1 3-1 3 0 3-1 0-2l-3-1-3-1c-4-1-5-3-1-2l12 5c1 2-3 3-8 2Zm-20-3c-1-1-3-2-8-2-4-1-6-1-5-2l4 1h4c4 0 8 2 7 3h-2Zm-143-1 6-2 13-4c4-1 17-2 19-1h9l-3 1-4 1a2 2 0 0 1-2 1c-1-1-4 0-5 2h-2c-2 0-2-1 0-2s2-1-4-1l-8 1h8l-3 2a59 59 0 0 0-14 2h-5l-2 1-3-1Zm196 1-4-3c-6-4-16-7-17-6s-3-1-2-2 8 0 13 3l4 1 3 3 4 2c2 1 0 2-1 2Zm-111-2-7-1h-7 11l6 1h-3Zm14 0-4-1h-2l-3-1h-3l-3-1-3-1-1-1c1-1 8 0 10 1 3 2 14 3 16 2a60 60 0 0 1 23 1h-2a397 397 0 0 0-20 1h-9 1Zm47-5-2-1-4-1h3c3 0 5 1 5 2h-2Zm18-1-5-1c-6 0-7-1-2-1 7 0 13 1 13 2h-6Zm-115-1h3a106 106 0 0 0 4-1l-6 2-1-1Zm71 0-12-1h-12c-1-1 1-1 10-1l16 1a2 2 0 0 1-2 1Zm-56-1 2-1h10l-5 1a79 79 0 0 0-7 0Zm82-1h-3l-2-1h-2a303 303 0 0 0-13-2l-9-3-5-1-1 1a553 553 0 0 0-16 0l11-2c0-2 16-1 20 2h2l7 1 5 1 4 1 3 1c2 0 3 1 1 2h-2Zm20 0-7-3c-2 0-2-1-1-1 2-1 11 2 11 3l-3 1Zm-86-1h9-9Zm-27-2a2 2 0 0 1-1-1h-8c0-1 7-3 12-3h10l-4 1-8 1c-1 1 1 1 8 1h7l-7 1a87 87 0 0 0-9 0ZM226 366l3-4 3-3a27 27 0 0 0 4-5l-1-1c-2 0-4 2-5 5l-3 3c-3 4-5 8-1 5Zm537-2 1-2 3-4v4l1-2a2 2 0 0 1 1-1c3-2 3-3 0-3h-1c-1-1-2 0-3 3l-2 3-2 3v1l2-2Zm-481 1 2-1 5-3v-1c2-1 1-2-2-1l-3 2-1 1-4 4 3-1Zm29 1h2c2 1 9-2 9-3l-1-1-4-1h3c3 0 4-1 1-1l-2-1h-2l-6 1h-4l1 1-1 3c-1 1 0 3 1 2h3Zm-183-2v-1l-2 1h2Zm122 0 1-2 2-2v-2l-1 2-1 1-3 4 2-1Zm11 0c1-2 0-3-2-1v1h2Zm-120-1 4-4 2-5-5 6-2 2-1 2 2-1Zm11 0c5-4 6-5 5-6l-4 3-3 2c-2 2-1 2 2 1Zm197-3 3-3c0-2-5 2-5 4a2 2 0 0 1-1 1l-1 2 4-4Zm-214 0 1-1-4 4 3-3Zm165 2a2 2 0 0 0-1-2l-3-1c-3-2-3-1-1 1 3 3 5 4 5 2Zm736 1c2-1 2-2 0-2a90 90 0 0 1-9 0c-1 1 6 2 9 2Zm-792-2 2-3 7-8 2-3 2-3 1-2-5 6-1 1-5 7-3 3c-2 2-2 3-1 3l1-1Zm33-1c2-2 2-2-1-1l-2 2 3-1Zm-115 0 4-4c3-4 1-3-4 1-4 5-4 5 0 3Zm101-1 2-1c0 2 2 2 5-1l5-3 2-1 2-1a27 27 0 0 0 6-2h3l3-1 3-1 5-2v-1h-1c-2 1-5-1-4-3a5 5 0 0 1 3-3l3-3h-1c-4 1-2-3 4-10 4-4 5-5 3-6-1 0-4 3-6 7l-2 2a2 2 0 0 0-1 2l-1 2a3 3 0 0 0 0 3l-1 2-2 3h-2a1 1 0 0 1 0-2l1-1 1-2v-2l-1 1a3 3 0 0 1-5 2l1-4 1-1 1-2v-3l1-3 1-3 4-6 2-3 4-4 6-9c1-3 2-3 2-2 2 1 0 3-9 17-4 7-6 12-3 12 1 0 6-8 5-9v-1l7-8 6-14c0-2 1-2 3-3 2-2 2-1 1 1l-2 7 3-4 5-6 5-7c6-7 10-11 10-9 1 1 0 2-2 4l-4 4-5 6-5 6a2 2 0 0 1 0 2l-7 9c-5 7-8 13-6 12 2 0 8-7 7-8s0-1 7-10l1-1 2-3 3-4 7-7c4-3 5 0 1 3l-11 12c-6 6-6 7-1 5l2-1 3-3c6-6 7-7 9-7 1 0 2 0 7-8a74 74 0 0 1 6-8 101 101 0 0 1 14-17c5-3 5-4 4-7l1-3c2-4 1-5-1-2l-2 3c-2 0-3 1-4 3a202 202 0 0 1-10 12l-4 4-2 3-7 7c-1 0-1-1 1-3l2-4 3-4c3-3 3-4 2-4v1l-3 2-2 3-2 1c-1-1 1-3 6-7 7-6 9-9 9-13 0-2-6 3-12 9a58 58 0 0 1-3 4l-2 3-4 5c-1 2-3 3-3 2v-1l-2 2-2 2a113 113 0 0 1-11 11c-2 0-1-1 2-4l3-3 2-3 2-4 3-3 2-4c-1 0-1-1 5-7 9-9 17-19 13-17a95 95 0 0 0-17 18 122 122 0 0 1-7 9l-5 6-4 6-5 7c-2 2-3 2-3 1l-7 8-4 7-2 1 7-11 1-3 7-6 2-2 1-3 4-4a42 42 0 0 0 7-9l3-5 4-5 3-3 3-3 2-2a184 184 0 0 1 18-19c0-1-2 0-8 5l-6 4-2 2-4 4-14 15-2 3-5 7-1 1h1c1 1 1 1-3 5l-6 8-4 4-8 12-4 5-3 6v3l-1 3-1 2a2 2 0 0 0-2 2h1c1-1 1 0 1 1l-1 1v1l-1-1c0-1-3-1-5 1h-1c-1-1-2 0-2 1l-2 2-3 3-3 6a1 1 0 0 0-1 0l-7 15-1 2-1 2-2 4 3-1Zm776 1-2-2-1 1 3 1Zm-715-1 3-1 4-3 3-2 2-2 1-3c2-2 1-2-2 0l-4 3c-9 6-9 6-8 8h1Zm417-2c2-3 1-5-1-4h-2v3c-1 3 1 4 3 1Zm-521 0 2-2 1-1-5 4c0 1 1 1 2-1Zm-46 1 1-1 3-2 5-4 4-3 2-2 2-2 3-3 2-2 1-2a67 67 0 0 0-21 18c-4 4-4 4-2 3Zm251-1 6-2 2-1-3 1-11 3 6-1Zm609 0v-2h-4l-10-1 3 1 4 1 7 1Zm-901-2c2-2 4-4 2-4l-5 5c0 1 1 1 3-1Zm124 0c1-1 2-2 2-5 1-3 1-3-1-1l-2 5v1c-1 2 0 2 1 0Zm66 0 4-2c2-2 7-6 7-8l-2 1-5 4-7 5c-1 2 1 2 3 0Zm71-4 5-5 3-3 2-4-4 3-3 4-3 3-2 3-2 2c1 1 1 0 4-3Zm1 3 1-1h2c2 0 2 0 5-3l5-5c7-5 7-6 8-8 2-3-3-1-5 2l-1 1c-2 0-2 0-8 5l-5 6-1 1-2 2h1Zm-175-2 2-3 2-3c3-6 4-8 8-11l6-8-8 8a195 195 0 0 1-10 14l-1 2c-2 3-1 4 1 1Zm517 1-1-1-2-2h-3l2 2 1 1h3Zm37 0a6 6 0 0 0 1-6v-3c0-2-3-5-4-4v3l-2-1-1-1-1-1-2-2-3-3-4-3c-3-1-4-1-3 1l2 3 1 2 1 2v3c-3 0-1 1 1 1 5 1 8 2 9 4l1 2 1 2c1 2 1 2 3 1Zm-12-12-3-4h2l2 2 2 4-3-2Zm-602 11a245 245 0 0 0 14-13l-6 5-5 4-5 5 2-1Zm160-1 3-2c5-4 8-8 7-8-1-1-2-1-5 2a335 335 0 0 1-8 9c0 1 1 1 3-1Zm-161-3 7-5 4-5-16 14 5-4Zm138 4v-1c-1-1-3 1-3 1h3Zm74 0 2-3-1 1-2 1-1 2 2-1Zm644 0c12-1 14-1 11-2-5-2-32-2-29-1l2 2 4 1h12Zm-712-2 2-1 2-1c-1-1-1-1-5 1l-3 1h4Zm149 0 7-2h-1l-8 2h2Zm313-2h-2c-1 1 0 1 1 1 2 1 2 0 1-1Zm-622-1c2-1 2-2 1-2l-3 3 2-1Zm34-2 4-4v-1c0-2 0-1-3 2l-4 3c-1 1-2 2-1 3l4-3Zm274 2 10-2h-1l-12 2v1l3-1Zm17 1 5-1 15-1c1-1-1-2-4-1a130 130 0 0 1-19 2h-2l-1 1h6Zm526-1c7-1 8-1 7-2 0-1-17-1-21 1h-2l-3 1h-2 21Zm-777 0v-1l2-2 5-6 1-3 4-4 2-3-4 4-3 4c-4 4-9 10-8 11h1Zm797-1c3-2 0-3-7-3-2 1-4 2-3 3s9 0 10-1v1Zm-543-2 1-1h-4c-2 1 0 2 3 1Zm-323-1c2-1 2-2 1-3-1 0-4 3-3 4l2-1Zm157 0c4-4 3-8-1-4l-3 2c-2 0-2 2 0 3l4-1Zm197 1c0-1-2-2-3-1l-1 1h4Zm247-1c2 0 2 0 1-2l-2-3c0-2-1-2-2-2-2 0-1 1-1 2l1 4-3-3c-1-2-1-2-2-1-3 0-1 4 2 5h3l1 1 2-1Zm-264 0a737 737 0 0 1-6 0h6Zm270 0v-2l-2-2-2-2 3 6h1Zm-520-5a73 73 0 0 0 9-11l-1 2-3 1-9 12 4-4Zm90 3c2-1 2-3 1-3-2 0-5 3-3 4l2-1Zm412 1c2-2-1-3-4-2l2 1 2 1Zm274-1c1-1 0-1-3-2-8 0-9 0-7 2h10Zm-773-1 1-2 2-2 1-2-1 1-1 1c-2 1-3 3-3 5-1 0-1 0 0 0l1-1Zm10-6 4-6-1 1-2 2-5 7-1 3 1-2 4-5Zm259 6h4l5-1h-6l-5 1h2Zm558-1 3-1h3c4-1 2-2-4-2h-7l-9-2-5-1a93 93 0 0 0-12-4 29 29 0 0 0-6-1l2 2 9 4c8 4 18 7 26 5Zm-540 0-4-1-3 1h7Zm399 0-3-1-3 1h6Zm-513-3 1-2-3 4 2-2Zm450 2 9-2 2-1c1-1 0-2-8-1a247 247 0 0 1-43-2h-11c-3 1-1 2 9 2a199 199 0 0 1 30 3 56 56 0 0 1 11 1h1Zm-307-1 5-1 4 1 1-2c1-1 0-2-3-1h-5l-8 1h-2a2 2 0 0 0-3 0h-3c-5 0-5 2 0 2l3 1c1 1 11 0 11-1Zm129 1v-6h-2l-1 1c0 2-1 2-2 2-1-1-1-2 1-4 3-4 3-7 0-4-5 5-6 9-5 10l9 1Zm5-1 1-2v-2l-2 4c0 2 1 1 1 0Zm-217 0 1-1 1-1c1-1 0-1-2-1l-4 3h4Zm-281-1 3-4 3-2 11-9c2-3 5-5 8-6l7-8-10 8-6 5a1135 1135 0 0 1-17 13l-2 1 1 2v1l2-1Zm76 0 1-2c2-2 1-2 0-1l-3 4 2-1Zm171 0a83 83 0 0 0 13-14c2-1 2-2 1-2l-1 2-3 2-3 2-2 1-1 2-3 4c-3 3-3 5-1 3Zm234-1 1-2 1-2 1-1 1-1 3-3 1-2 1-2c1 0 4-4 2-4-1-1-1 0-3 1l-3 2-2 5a2 2 0 0 1-1 2c-3 2-4 5-4 7l1 2 1-1v-1Zm339 2v-1l-3-1c-3-2-11-2-12-1-2 2-1 2 6 3h9Zm73-1c2 0 3-2 3-2h-3l-2 1c-2 1 0 2 2 1Zm-158 0 9-1c13 0 19-1 16-2h-35l-5 1a465 465 0 0 0-28 1l22 1a299 299 0 0 1 21 0Zm66 0c2-1 0-2-2-2h-7a191 191 0 0 0-17 2h26Zm-833-1 2-3-3 2c0 1 0 2 1 1Zm9-2 9-6 3-4c1-2 0-3-1-1l-4 3-9 10 2-2Zm411 2c2-1 1-1-4-1-6 0-6 1-1 1h5Zm-51-1c2-1 2-1 0-1h-6a32 32 0 0 0-8 1h14Zm-188-2 1-3-3 3c0 2 1 1 2 0Zm209 1c2-1 0-1-4-1l-4 1h8Zm-383-2 3-5-3 4-2 2v1l2-2Zm678 1-1-2c-3 0-4 1-1 2h2Zm-666-1 3-3v-2l-4 5c-2 2-2 2 1 0Zm27-2 3-3 3-1 1-1 1-1 1-1 2-3 2-1 1-2-3 3-11 8-4 4c-1 3 0 2 4-2Zm780 2-2-1-2-1h-4s-2 2-1 3l9-1Zm-316-2 1-2 1-2-2 1c-1 0-3 3-2 4 0 1 1 1 2-1Zm-130 0a184 184 0 0 1 11-5l-4 1a119 119 0 0 1-15 5l8-1Zm192 0 2-3c2-1 2-2 2-3 0-3 4-9 7-11l2-2-1 1-2 1-7 7-1 2-1 1-1 2c-2 1-3 4-3 5v1l3-1Zm-417-1 2-2h-1c-1 2-2 1-1-1a1 1 0 0 0 0-1c-1-1 0-2 2-3l3-2v-2a38 38 0 0 0 3-5c1-2 0-1-3 2a26 26 0 0 0-7 8l-1 1-1 1-2 1c-2 2-1 3 1 1 2-1 3 0 3 1v1c1 0 1 0 0 0v2l2-2Zm378-1c2-2 4-2 3 1h1c2-2 3-5 0-4a2 2 0 0 1-2 0c-1-1-2 1-4 3-2 3 0 3 2 0Zm72 1 2-3 5-4 2-3-2 1-11 10c1 1 3 1 4-1Zm-194 0 3-2c0-1-3 0-5 2-1 1 0 2 2 0Zm15 0 3-1 4-2h1l2-1 3-2 2-1c2-1 4 0 2 1-2 2 6-1 10-4a126 126 0 0 1 12-8l7-5a53 53 0 0 0 7-5l1-2c3-2 5-2 4-1-1 3 2 0 7-5l5-4v-2c-1-1-1-1-5 4-4 4-5 4-6 3h-2l-1 1-3 3-3 3-5 2-2 1-2 2a1 1 0 0 1-1 1l-2 1-4 2-2 1a90 90 0 0 1-5 3l-7 5-4 2-2 1-5 2-7 3-5 2h3Zm165 0 1-3c0-2 2-5 5-6a4 4 0 0 0 3-3l3-3 1-4 2-4 1-3a38 38 0 0 0-10 14 3 3 0 0 1-3 2l-3 2c-2 3-5 2-2-1l2-2 2-2 3-4 9-13 8-11c2-4 5-6 7-6l4-5 2-4c-1 0-3 2-3 4l-2 2v-3l4-6v-2c-1 0-8 6-8 8a2 2 0 0 1-2 2l-2 2a136 136 0 0 1-9 12h1c3-1 4 0 3 2-5 3-13 13-14 17l-1 2a237 237 0 0 0-15 15h5l6 1a2 2 0 0 0 2 0Zm6-1 2-4-1-1-1-1-1 1c-2 3-3 5-1 5h2Zm-134-1 1-1 4-1 4-1 5-2c6-4 7-4 7-2s0 2 2 1c2 0 2-1 0-1l1-2 3-1 9-2v-2l-1-1-3 1a109 109 0 0 1-9 3 80 80 0 0 1-11 5l4-3 3-2 16-6c1-1 2-1 1-2a3 3 0 0 0-3 0l-3 1-4 2-2 1a124 124 0 0 0-27 16l3-1Zm-18 0 10-2h2a346 346 0 0 1 26-14l6-4h1l2-1c2 0 7-4 7-5s-1-1-7 3h-2l2-3 3-2v-2h-2c-2 0-3 1-3 2 1 1-1 3-2 4a105 105 0 0 0-12 8l-2 2-3 2-3 2-3 1h-2l2-2 5-3 8-6 10-7c0-2 0-2-2-1-2 3-8 6-6 3l-4 3-3 3-4 2-10 7-5 3-4 3a80 80 0 0 1-10 4h5Zm119-1 2-2v-1l1-1c-1-1-5 3-5 4 0 2 0 2 2 0Zm5 0c3-3 3-6 1-6-1 0-1 0 0 0l-2 4-1 3 2-1Zm70 0 8-4 2-1 4-3 2-1 2-1c1 0 9-5 10-7l2-1 6-2 17-6c3 0 2 1-1 2l-3 1a68 68 0 0 1-7 3l-6 3-4 2a49 49 0 0 0-8 5l-3 1-3 2c-3 0-5 2-4 3l2-1 15-7 10-3 8-3 9-2 8-2 8-2 4-2a87 87 0 0 0 8-3 194 194 0 0 0 18-6l-2 1-2 1-2 1h-1l-9 4a87 87 0 0 0-10 4l-4 2-2 1-7 2-4 2-8 2h-4l-2 1a75 75 0 0 1-8 2l-2 1-3 2-3 2c-2 2-1 2 2 0l5-1 4-1 18-5 5-1 8-1 3-2 2-1 2-1h2l2-1 4-2 4-2c5-2 12-4 13-3s-3 3-10 5l-2 1-7 3-3 1-5 2-3 1a108 108 0 0 1-18 4h-1l-2 1-6 1-7 3-10 4-3 1 9-1 1-1 1-1 4-1 3-1c4-2 7-3 11-3l8-2h9l-5 2-6 1c-4 3-4 3 1 2h8v1c0 2 1 1 4 0l3-1 2-1a186 186 0 0 1 23-8l2-3h-1l-6 2-4 2-4 1-2 1-4 2h-3l-6 1 3-3a374 374 0 0 0 35-14l2-3h-2l-3 2-2 2-2 1 8-9 1-1a2 2 0 0 0-1 1l-5 2c0-1 1-3 5-5l10-6c1-2 0-2-3 0-6 4-9 5-9 4l4-4c8-5 8-6 3-3-9 4-6 0 4-5 8-4 10-5 10-7a2 2 0 0 1 1-2c2-1 3-10 2-13l-1-4v-2h-2a40 40 0 0 0-20 2l-4 1-2 1v-2h-3c-6-1-6-1 0-2l15-2h11l4 1c1 1 2 0 3-2s-1-4-4-4l-2-1h-3l-5 2-4 1h-3v-1h-2l-4 1-7 1-7 3-3 1a80 80 0 0 0-18 9l-2 3a124 124 0 0 0-16 9l-3 1-2 1-2 1-2 1-2 1-1 1-3 2-4 3c-1 1-2 2-3 1 0-1 4-5 8-7a133 133 0 0 1 21-11l4-2 3-3 19-11 3-1 2-1 7-2 11-2 6-2h-5l-9 1-8 2-2 1-7 3a47 47 0 0 0-9 4l-6 3-4 2-3 2-5 3-6 3a4 4 0 0 1-3 1 2 2 0 0 0-2 0l-2 2-2 1-4 3-3 2-3 2-2 1c-2 2-2 3-3 2s3-6 8-9l20-12h4c1 1 3-1 7-4l5-3a302 302 0 0 1 13-6c0-2 1-2 7-3a157 157 0 0 0 30-6h-5l3-1c4 0 7-2 6-3l-1-1h-2c-8 7-20-1-17-11l6-5 2-1c7-3 15 6 12 14-1 3-1 3 1 3s3-1 1-4v-2c3-1 0-10-4-11l-2-1c-5-2-10-3-12-1l-1 1-1 1h-3c-3-2-4-2-5-1h-3l-4-1h-3l-3-1-1-1c6 1 9 0 5-2h-7c-4-1-12 0-14 1l-4 1-5 2-5 1c-3 1-6 2-5 3h2l4-1 3-1 4 1c1 1 1 0-4 1l-4 2h-1l-2 1-2 1-2 1-6 3h-2l-2 2-3 1-1 1-2 1a174 174 0 0 1-12 8l-5 4a31 31 0 0 0-9 9l-6 9 1 1 1-1 4-4a199 199 0 0 1 7-9c3-4 6-7 7-6v1c-2 1-9 9-10 13l-4 4a80 80 0 0 0-5 7v2h4l1-2 16-16 6-3 11-8 5-4-5 2-4 2-4 2-3 2-3 1h-3v-2l8-7 5-4 4-2 4-3 5-3h2a78 78 0 0 1 16-5h18c1 1-1 1-6 1a32 32 0 0 0-13 1l-3 1-4 1-7 3-4 3-2 1-7 4c-2 2-1 1 5-1l5-2 5-2 8-2 3-1c5-2 10-3 15-2h3l1-1 4-3c3-1 3-1 1-2-4 0-1-2 3-1h5l5 2 1 1c1 1 0 2-2 2-6 0-15 1-14 2h4c3-1 10 0 10 1s-1 2-2 1h-7l-3 1-5 1c-3 1-3 0-3-1 0-3-10-2-11 0a1 1 0 0 1-1 1l-14 4 1 1 9-3c5-1 9-2 10-1l-5 2-5 2-2 1-4 1-5 3h-2l-4 2h-3l-2 2-4 2-4 3-12 9-3 1-4 3-3 4-4 5-2 3-2 3-2 2-2 3h2l2-1 3-4a158 158 0 0 1 12-14c2-3 6-5 13-10l4-3h3l1 1 2-2 4-2 2-3 7-3 2-1c3-3 17-7 19-5h1c0-4 21-8 21-4 1 2 0 3-5 3h-4a104 104 0 0 1-11 3h-2c-1-1-6 0-10 2l-4 2-4 3c0 1 1 1 9-3 2-1 1 2-1 3l-3 2-5 3-3 2-9 5-9 5-4 2c-1 0-7 5-14 13-7 6-11 13-7 10 3-2 3 0 1 3-3 3-3 3 1 2l2-1 1 1a5 5 0 0 0 4 0 1 1 0 0 1 1 0c1 1 0 2-2 3l-13 8-2 2c-2 3-2 4 1 2 4-4 16-10 19-10 2 0 1 2-2 2l-3 1-3 2-1 2-5 4-2 1-2 1-2 2-3 2-5 4-3 3-2 2c-1 1-2 2-3 1l1-2 2-2 5-5c4-3 5-3 3-5l-4 3a57 57 0 0 0-9 11c-3 2-3 6-1 4 2-1 2 0 0 2-4 5-2 6 3 1l4-4 3-2c0-2 3-5 10-10l4-4 5-5 5-3c1-2 3-2 3-1l-1 1-2 3-2 1h2a49 49 0 0 1 7-3h4a1 1 0 0 1-1 0l-5 3-5 3v3l2-1c5-3 13-6 13-4l-2 2a41 41 0 0 0-11 5l-3 1a142 142 0 0 1-14 9l-4 2 7-7 5-4-3 3-6 3-3 2-1 1-1 1-2 1-7 7c1 1 3 0 5-1Zm62-27c-1-1 1-3 3-3l10-4c6-3 13-5 19-6l5-2 3-1 3-2 5-2 2-1 4-1c1 1-1 2-2 2l-5 2-1 1-2 1-2 1h-2l-2 1-5 3a137 137 0 0 1-14 6 55 55 0 0 1-16 5h-3Zm-16-1a38 38 0 0 1 15-9l4-1 3-2 6-2 5-1 13-3 7-2c6-4 17-8 18-7s0 1-6 4a111 111 0 0 0-13 5l-2 1-5 1-4 1-3 1-4 1-8 2-7 2a114 114 0 0 0-18 9h-1Zm-6-3c-1-1 1-3 5-4l4-3 9-3 5-2 13-4a106 106 0 0 0 29-11l3-1a78 78 0 0 0 8-2l5-3c0-1-5-1-9 1l-5 1-4 1-3 1c0-3 18-8 20-6l3-1c4-2 8-2 5 0-1 1-1 1 1 1l2 1-4 1-8 4-3 1a42 42 0 0 0-11 4c-3 0-6 2-9 4l-2 1-8 2-2 1-3 1h-2l-2 1-2 1-2 1-4 1-7 2h-3l-2 1-2 1-4 2-7 4-4 1Zm-4-3 5-5c7-3 15-5 15-3a1 1 0 0 1-1 0l-5 2-3 2h-1l-3 1-7 3Zm7-9 7-5 6-4c7-3 15-6 16-5l-6 3h-1l-4 2-4 2-2 1-4 3c-6 4-7 4-8 3Zm-20-6 2-3c7-8 20-17 26-19a66 66 0 0 0 13-8c1 0 1 0 0 0-2 0-2-1 0-4l14-5c2 0 1 3-1 3-5 1-7 3-6 4s1 1 5-1l6-3c1-1 1-3-1-4-1-1 2-5 4-5h4c9-3 15-3 9 0l-3 1-4 1c-4 2-4 2 1 1 4-1 8 0 12 1 3 2 2 3-2 2-3-1-11 1-15 4a3 3 0 0 1-3 0l-5 2-13 6a2 2 0 0 0-2 0l-7 4a131 131 0 0 0-10 5l-9 6-6 5-6 6c-2 2-2 2-3 1Zm52-2 2-2a81 81 0 0 1 23-12l3 1-4 2c-5 1-8 2-15 7a66 66 0 0 1-7 4h-2Zm43 0 2-2 1-2c0-1 10-8 12-8s2 3 1 4l-2 1-4 2-1 1-6 3-2 1h-1Zm-43-6c0-1 0-2 3-3l6-5 7-4 5-4a65 65 0 0 0-14 7l-2 1-4 2-3 2c-2 2-2 1 0-1l9-6c6-4 15-7 16-6h3l4-1c1 1 1 2-1 2a121 121 0 0 0-21 11c-5 4-7 6-8 5Zm27-9c-3-2 14-9 22-9h8l-1 1-3 1h-5l-8 2-12 4-1 1Zm-58-18 3-3h1l-4 3Zm28-29c-1 0-1-1 1-1 8-2 17-2 16 0h-5l-10 1h-2ZM238 324l3-3 2-4 3-3 3-4 3-6-8 9-4 6c-4 5-5 8-2 5Zm650-1 6-2 3-2h-2l-2 1h-1l-3 1-6 3a1 1 0 0 0 1 1l4-2Zm7 1 2-2-5 2-1 1h1l3-1Zm-176-2 2-2h-2l-2 1c-1 1-2 2-1 3l3-2Zm159 2 4-3h-5c-6 2-6 3-3 3h4Zm-187-1c2-2 2-2 1-3l-2 1v2c-2 1-1 2 1 0Zm176 0c4-2-1-2-8-1l-3 1h-1 3l3 1 6-1Zm-167 0c0-1 1-2 3-2l2-2 1-1h-1l-5 2-1 1-1 2h2Zm143 0 10-5a30 30 0 0 0-8 2h-2l-2 1-3 1c-2 2 1 2 5 1Zm-183 0v-1h-3l3 1Zm8-1 2-2c3-4 8-8 7-5l-1 2c-2 2-3 5-1 3l9-6 3-2c-2 0-1-2 4-4l4-3 3-2 5-4 1-1 1-2-4 2-4 2-1 1-3 2-4 3c-2 3-6 5-7 5-2 0 0-3 4-5l2-2 6-6 3-2 3-1 2-1 5-5 1-1 2-1 2-3 2-3a1 1 0 0 1 1-2l1 1c0 1 1 1 3-2 1-2 4-4 11-8l3-2a22 22 0 0 0-7 2l-6 4-2 2c-2 0-6 4-6 5l-1 1-3 2-3 3-3 2-13 11c-5 6-8 8-9 7-2-1 18-21 24-23l2-2 8-6 8-5 3-2c2-2 9-7 14-9l3-1h2c1 1 10-3 11-5 2-2 7-1 8 2h5l7-3v-1h-1l-4 1c-4 2-7 2-7 0l-4-3h-4l-3 1-3 2-6 2c-3 1-6 3-7 5l-2 1-2 1-3 2-3 1a78 78 0 0 1-12 6l-1 2c1 1 0 3-2 3h-1l-2 2a58 58 0 0 0-12 7 38 38 0 0 0-10 11h-3c0-1 10-11 16-15l5-4c4-4 16-11 26-16 3-1 6-3 5-4l-6 3c-4 2-5 2-5 1l-3 1-9 6-2 3a167 167 0 0 0-28 21c-2 3-2 3-3 2h-1l-8 9 2-1 5-3 1-1h2c0 2-1 3-6 8l-6 8 2-1c3-4 7-6 7-5 1 1-1 3-2 4l-8 10h1Zm18 0c3-2 4-4 3-4-2 0-5 3-5 4h2Zm97 0 1-1a61 61 0 0 1 6-11v-1c0-1 1-3 4-5l4-3 11-11-5 3-3 3-3 3c-1 2-2 2-3 1s-3 1-4 3l-2 3c-4 5-6 8-6 11l-1 3c-2 3 0 4 1 2Zm-142 0c1-1-1-2-2-1l-2 1h4Zm120-1c2 0 4-2 6-5l7-8 2-3a381 381 0 0 1 4-12c-5 4-5 2 1-3 5-6 6-7 5-8v-3c2-3 0-4-2-1a74 74 0 0 0-9 17v5l-2 3-3 3-2 3-2 3-3 4-4 3c-2 2-2 3 0 2h2Zm-574-1 3-2 4-4 5-6c5-5 2-4-3 1l-10 10c-3 2-4 3-1 2l2-1Zm512-1 1-2-2 1-2 3 3-2Zm40 2 1-1 8-8v-2l-10 9-1 1-1 1h3Zm-23-1 1-2c-2 0-3 1-3 2h2Zm187 0c3-3 4-4 0-2l-3 3 3-1Zm-720-6c5-4 5-5 2-3l-9 9 7-6Zm474 6 2-1v-1c0-3 0-3-7-1-5 2-6 2-3 2l2 1h6Zm275-1c2-1 0-3-1-2-3 2-2-1 1-8l2-6c-2 0-3 2-4 6l-4 7c-1 1-1 2 2 3h4Zm-645-1a1 1 0 0 0 0-1v-4c-1-1-2 1-2 3s1 3 2 2Zm604 0 5-1c5-1 8-2 8-4 0-1 3-5 8-8l3-4-7 4-2 2a4 4 0 0 0-3 3 2 2 0 0 1-1 1l-7 3c-6 3-9 5-4 4Zm-693-2 5-4 5-5 1-1 4-3-4 2-2 2-12 11s2 0 3-2Zm109 1 2-3h-2v3Zm756 0h2c1 0 2-1 1-2-1-2-3-2-3 0s-3 2-4-1l-3-1-1 1h-2c-1-2 0-2 9-2l11-1 8-2h7c4-1 9 1 9 2l1 1 1 2c0 1 0 2 2 2s2-1 2-2c-2-2 1-8 3-7l-1 4c-2 1-2 2-1 3l2-1c1-1 2 0 1 2 0 1 0 2 2 1 1 0 2 0 1-1l1-4 1-1 2 2c1 2 2 1 2-2-1-2-2-3-4-3l-2-1-3-3h-1c-3-3-5-3-6-1-2 3-8 2-8 0 0-1 1-2 4-2 7 0 6-4 0-4l-3-1c-1 0-1-1 1-1h1l-3-1h-13c0-1 7-2 10-1s2-2-2-3-12-1-16 1c-2 1-2-1 0-2l6-1c3-1 3-1 1-2l-2-2-4-2-3-1c-3-2-3-1-12-1l-7 1-1-1 7-1 5-1-3-2h-1l-5-1-10 2-2-1 3-1 3-2-12 1c-2 1-3 0-2-1l4-1 4-1v-1l-3-1h-10l-4 1h-3l5-2c4-1 4-1 0-2h-8a137 137 0 0 1-9 2c-1-1 0-2 2-2l4-1 3-1c1-1 0-1-3-2a44 44 0 0 1-5-1l-1 1-3 1-4 1h-2l3-3c5-1 1-3-4-2l-5 1-3 1h-1c0-1 1-2 4-2 4-1 4-1 0-3h-5c-2 2-3 1-2-1 2-2 1-3-3-2h-3l-8 3h-1a25 25 0 0 0-7 7l-1 1-3 3-8 4c0 2-2 1-2-1l3-3c3 0 7-3 5-3l-4 2c-1 1-2 1-2-1l6-2c3 0 3-1 6-4l11-7 6-2-3-2-2 1c-4 0-8 2-13 6a183 183 0 0 1-5 5c-1 2-1 2-3 2-3 0-7 2-9 5s-3 2-1-1c0-2 1-2 4-4 4-3 5-3 3-5-1-1-1-2 1-4 3-4 4-5 6-5 3-1 3-2 0-2h-3l-3 4-4 4c-2 2-3 2-2 0 2-6 18-17 20-14 1 1 1 2-1 2-1-1-4 1-4 1 0 2 2 2 7 0l4-2h-1c-1 0-2-1-1-3a130 130 0 0 0 2-18c1-1-1-3-3-6l-2-1h-3c-5 0-7 1-10 5l-1 1a104 104 0 0 0-6 12l-2 4-2 2-2 2-2 3c-3 2-4 6-3 9 2 6 1 14-2 17-2 3-3 4-1 5 1 0 2 1 1 3l-2 3-4 5-4 8-4 14-4 5c-1 2 0 4 3 5l3 1 1 1 1-5v-1l-1 2c-1 2-2 1-1-1l2-4 2-7c2-2 2-3 1-3-1-4 2-14 8-23 1-2 3-2 3-2l-2 5-2 4-2 2-1 1v3c-2 3-2 5-2 8v5l4-10a32 32 0 0 1 4-10c1-2 3-4 3-2a2 2 0 0 0 0 1l1 2c0 2 1 3 2 1 0-1 2-1 2 1l1 1h3l1 1v4c1 1 2 0 3-1 1-3 0-3-2-5l-5-7-1-1c-2-3 0-2 4 0l4 2 1 1 2 1 2 1 6 3a99 99 0 0 1 13 8l2 1 4 2 4 3 8 3 7 4 8 3 5 2c3 2 6 3 6 1h1v-1 1l4 3 4-1c0-2 1-2 1 0l1 2h2c2 1 2 0 2-1s1-2 1 0 3 3 7 3 5 0 4-2v-2l1 1c1 3 5 4 12 3h1Zm-21-8c0-1 4-2 6-1l3 1h-9Zm-15-3c-2-2 10-5 13-3 1 1 0 1-2 1-2-1-4 0-8 1l-3 1Zm59-1c-4-1-5-4 0-4 2 0 3 0 3 2l-1 2h-2Zm-27-1c-3-1-4-1-3-2v-1c-1-1-1-1 2-1h2v1l2 1 1 1c0 1-1 2-4 1Zm-42-3 1-2 1-1h8c7 0 9 0 8 1h-12l-3 1-2 1h-1Zm-10-2c-1-1 0-2 3-3l3-2h-8l-2 1c0 1-1 2-2 1-2-3 3-5 10-5 4 1 4 1 5-1s11-6 15-6l-4 2c-6 2-10 4-8 6l-1 2-1 1c1 1 5-1 6-2l7-4 7-2c2 0 2 1 1 1l-3 1-2 1c-4 0-7 4-5 5 4 1 2 1-2 1l-6 1-2 1v-1c-2-2-4-2-8 0l-2 2h-1Zm24-5 5-3c1 1 0 1-2 2-2 2-3 2-3 1Zm-40-5 7-2a2 2 0 0 0 2-1l5-4 2-1c5-4 11-6 11-4l-1 1a37 37 0 0 0-11 5c-4 2-4 4-2 4 3 1 4 3 1 2h-14Zm18 0c-3-2 3-6 12-9 6-2 8-2 3 0a12 12 0 0 0-3 2c-2 0-9 5-10 6s-1 2-2 1Zm-23-3 5-2h3l1-1c1-2 3-4 5-4l6-3 7-2-1 1-4 2-2 1-8 5v1c1 2 1 2-3 2h-5l-3 1-1-1Zm68-1c0-2 17-4 19-2l-5 1-13 1h-1Zm-74-3c-1-1 2-2 6-2l4-2c4-4 10-7 15-7 1 0 1 1-1 1-7 3-13 7-12 9 1 1 0 1-5 1l-6 1-1-1Zm-8-4 5-2 2-1h-12c0-1 3-3 8-3 3 0 3 0 2-1-1-2 6-8 11-9 4 0 4 1 0 3-3 0-5 2-8 5s-1 4 2 1c4-3 14-7 14-6l-4 2-1 1-2 1c-2 0-8 6-7 7l4-2c4-4 8-6 12-6 3 0 4 1 2 1-3 1-13 6-14 8l-6 1h-8Zm-14-8c-1-1 2-2 9-2h5l1-2 5-5c4-2 5-2 3 0l-1 1-4 3c-2 2-2 2-1 3s0 2-7 2h-10Zm9-5c-1-1 5-7 7-7l3-2 3-1 1 1-2 1-3 2-7 6-2 1v-1Zm-28-2a1 1 0 0 1 1-1l1-9 1-7v15c0 2-3 3-3 2Zm7-16-1-2-1-3c-1-1 0-2 4-7l1-2 2-3 2-3 1-2 1-2 5-6 2-2 4 1c5 0 6 1 4 8v6c0 6-1 8-3 7l-1-6v-13l-1 9c0 9 0 9-2 9l-1 1h-2l-2 1a2 2 0 0 1-2 1l-1 1c0 2-2 3-3 2h-1c-1 1-1 1-1-2 0-4-1-5-3-2v4c1 2 0 8-1 5Zm7-9 1-4c0-4-1-4-2-2-2 3 0 8 2 6h-1Zm122 78c1-1 0-1-1-1-1 1-1 0-1-1h-2c0 2 3 3 4 2Zm9 0c2 0 2-1 2-3l1-2 1 3 2 2c2 0 3-1 3-3v-1l1 2c0 2 2 2 3 0 1-1 0-1-3-3l-2-1h-3l-7 1-8 1h2l2 2c-1 2 0 2 2 2h4Zm-387-1c2 0 2-1 1-2s-4 0-4 1c0 2 1 2 3 1Zm-489-1 8-7 6-3 2-1-1-2-2 1-5 4h-2l-2 3-3 3-3 3 2-1Zm568-1c1-4 1-6-1-3v5l1-2Zm161 1v-5c-1 0-2 3-1 5h1Zm-671-4a194 194 0 0 1 1-3l-3 3-1 3 3-3Zm-75 1 2-2c-1-1-5 4-5 4l3-2Zm536 1 1-1 3-2a19 19 0 0 1 8-3h2l3 1 1 1 1 1 1-2c0-4 5-11 14-20l11-14-4 3a534 534 0 0 1-19 19l-1 4h-2c-1 0-2 0-3 3-1 1-2 2-2 0l2-3c3-3 4-5 3-5-2 0-5 3-5 4 1 2-1 3-5 5l-3 2-2 2-6 6h2v-1Zm217 1 3-2 3-2 2-2a136 136 0 0 1 3-5c-1-1-2 0-3 1l-2 3-1 2a1 1 0 0 1-1 1 6 6 0 0 0-5 3c-1 1 0 2 1 1Zm-220-4 8-7 3-3 6-4c3-2 3-2 3-4 2-4 0-3-7 5l-4 3-4 3-3 2c-2 2-3 2-4 5-3 4-1 4 2 0Zm-449 1-1-3-1 3c0 2 1 2 2 0Zm432-1 2-2-4 2c-2 2-1 2 2 0Zm220-1 2-3v-1l-1 1-1 2-1 3 1-2Zm-636 0 2-2 7-9c3-7 4-8 6-9 1-1 2-1 2-3l3-4 4-6 2-4 2-2a217 217 0 0 1 9-13l6-8a1161 1161 0 0 0 12-19l-7 7a326 326 0 0 0-22 25l-3 3c-1 2-1 2-2 1l2-3 1-3v-2h-1l-6 7-2 4a157 157 0 0 0-8 11l1-4 2-3a664 664 0 0 0 15-20l2-3v-1l-16 17c-6 7-7 10-5 9 2-2 2-1-1 2l-3 6-2 3-1 2-2 2-3 6a68 68 0 0 1-5 9l3 1c1-1 2-2 1-3-1 0 3-8 5-9l1-2c1-3 6-11 7-10a347 347 0 0 0-9 17l7-8 5-5 4-7 2-3 5-5 4-4 7-7c2 0 1 1-2 4l-4 5-2 2-2 3a107 107 0 0 1-4 6l-2 2c-1 0-2 0-4 3l-1 3-5 10-7 12c1 1 1 1 2-1Zm-19-2v-1c-1-1-3 2-3 4l3-3Zm-75 2a1 1 0 0 0 0-1l1-1 1-1 2-2 4-4c-2 0-8 5-8 7l-1 1c-2 1-1 2 1 1Zm744-3 2-5-5 8 3-3Zm-685 0 3-3c0-2 1-3 3-4l3-5c2-3 1-3-1-1l-2 3-1 1-2 3-1 2c-2 1-3 4-4 6l2-2Zm513-1 3-4c0-2-2-1-5 5-2 3-2 3 2-1Zm-481 2 1-2 1-2 2-2a127 127 0 0 1 3-6l1-1c1-2 0-2-2 0l-7 11c-1 3 0 4 1 2Zm492-2v-3l-3 5c0 1 2 0 3-2Zm-120-1 1-2-3 4 2-2Zm-391-3v-1l8-11 11-14c1-2 2-2 3-1a1 1 0 0 0 1 0v-2l-1-1 2-5 3-4c6-9 14-17 16-16 1 1 0 2-1 3l-5 4-3 5-4 8 3-3 6-7 7-8 1-3 1-4 1-2 3-4c6-9 7-11 10-13l1-5 2-2 6-8h-2l-2 2-1 2-7 8-3 5 2-2 3-2-1 3-1 1-4 4a67 67 0 0 0-7 6c-3 2-6 7-5 9 1 1 0 2-1 2a2 2 0 0 1-2-2c0-1-1-1-5 4-6 6-7 6-6 7s0 3-3 7l-3 5a424 424 0 0 1-7 8c2-2 0-2-2 0l-2 3c0 2 0 4-2 5l-1 2-2 3a56 56 0 0 0-8 12l-1 3 2-1Zm692 0 3-3 2-1v-2a2 2 0 0 0-4 0v2c1 0 1 1-1 3-3 3-3 4 0 1Zm-711-9a125 125 0 0 1 9-10l2-2 1-2c1-3-2 1-7 6l-4 5c-5 4-11 12-11 13l10-10Zm462 8 4-4c3-1 8-6 7-6l-11 8-3 4 3-2Zm-492-1 4-3c4-3 2-4-3-1-3 2-4 5-5 6l4-2Zm449 1 4-4c4-4 6-6 6-8s-9 7-11 11c-2 3-1 4 1 1Zm-390-3c2-3 3-3 4-3a2 2 0 0 0 2-3h-1l-2 1-5 6c-3 4-2 4 2-1Zm662 0c2-3 2-4 1-4l-1 1-1 2-1 5 2-4Zm-172 2 2-2 5-7c0-3-4 0-6 4l-2 4v1h1Zm-35-2v-1h-1c-1 0-4 1-4 3 0 1 4 0 5-2Zm202 0 2-6-3 5v3l1-2Zm-269 0 1-2v-2l-2 3v1h1Zm118-1 5-8a1 1 0 0 1-1-1v-1l-2 2-1 2-3 6h2Zm-525-1 5-7-7 8 2-1Zm395 1v-2c-1 1-2 0-1-1l1-1-3 2 3 2Zm-438-4c5-4 5-5 1-2l-5 4c0 1 1 1 4-2Zm495 0 8-7 3-3 5-3 2-2 1-1c1-1 0-2-2-1l-1 1-19 17c-2 3 0 2 3-1Zm20 0 6-6 9-7c4-3 0-2-5 1l-2 1a4 4 0 0 0-3 3l-1 3a28 28 0 0 0-6 5l-1 1c0 2 1 2 3-1Zm223 1h7l-5-4-3 5 1-1Zm-206-2 3-3c5-8 16-18 16-15h2c2-1 2-3 1-4-2-1 1-3 4-6l2-2-3 2c-2 1-6 2-8 1a5 5 0 0 0-5 0l-3 1-4 3a565 565 0 0 1-7 7h3l3-1c2 0 4-1 8-5l4-3c2-2 3 0 1 2a94 94 0 0 0-15 17l-4 7c1 1 1 0 2-1Zm-10-1 5-3-7 3c-1 2-1 2 2 0Zm67-2c4-4 4-5 3-6-2-2 13-19 23-26 6-4 7-6 5-7h-1l-2 1c-5 2-13 10-16 14l-4 4c-3 3-3 4-2 5l-1 2c-2 0-3 1-5 5-3 3-3 4-1 4 1-1 0 4-2 5l-1 1c-1 2-1 2 4-2Zm-581 2 3-2a63 63 0 0 1 7-6l-12 9 2-1Zm-17-2a135 135 0 0 0 4-5l-3 3-3 2-1 2 3-2Zm474 2a720 720 0 0 1 18-13l6-4 2-2h-2l-3 2-3 1-4 2-8 6-7 7 1 1Zm-422-2a77 77 0 0 0 11-14l6-7a168 168 0 0 1 24-29l3-4-3 2-9 9-13 16c-1 1-2 2-2 0l4-5a141 141 0 0 0 11-15c3-4 1-3-4 2a60 60 0 0 0-8 11l-1 1c-3 2-9 12-8 14v1c-3 2-4 4-3 5l-1 1-2 2-2 3-3 3-2 3c-3 2 0 3 2 1Zm407 0 3-4 4-3 2-2c2-1 4-4 5-8l1-1-1 1-2 1-1 2-2 1a787 787 0 0 1-11 14l2-1Zm61-1a33 33 0 0 0 9-9 61 61 0 0 0-12 10l3-1Zm-460-2 2-4-4 6 2-2Zm377 0 5-4 3-3c2-1 2-2 2-3s-1-1-5 4l-6 5c-5 3-3 3 1 1Zm-419-3 6-6-1 1-4 3c-5 4-6 5-1 2Zm568-3c2-1 2-2 1-2l-1 2-2 1-1 2v1l1-1 2-3Zm-30-1c3-2 3-3 1-2l-5 5 4-3Zm-103 0 2-1 1-3c-1-1-5 2-5 4h2Zm133-3 2-3 2-4-3 3-3 4v2l2-2Zm-519 0a2 2 0 0 1 2-1c1 0 2 0 3-3 2-2 2-2 0-2l-5 5-1 2a1 1 0 0 0-1 1h1l1-2Zm460 0 2-2 2-1 2-1c5-4 5-5 0-2l-8 5v2l2-1Zm-489 0 5-4c4-5 4-5-1-1-7 5-8 7-4 5Zm9-2 2-2c2-1 2-2 1-2-2 0-6 5-6 5 1 1 2 1 3-1Zm414-2 3-3c4-2 9-9 6-8l-1 1c-1-1-3 1-6 5l-3 4c-2 1-3 3-2 3l3-2Zm107 0c4-3 4-4 3-4-2 0-6 4-6 6l3-2Zm-436-1 2-3 5-6 3-4c6-7 7-8 6-9s-1 0-3 2l-7 8-6 7-2 6c-1 2-1 2 2-1Zm321 1c3-1 3-1 3-3s0-2-3 0c-5 3-5 5 0 3Zm13 1 3-3c4-2 7-6 6-6-2 0-10 7-10 9h1Zm-379-2v-3l-2 4 2-1Zm-9-1 3-3 3-3 2-3 3-5-9 8-3 5-1 2 2-1Zm365-1a4 4 0 0 0 2-3c1-2 2-3 3-2s2 0 1-1v-3l-3 2-4 5c-2 3-2 3 1 2Zm99 0 2-1 4-2 7-3a2 2 0 0 0 1 0l3-1c5-1 7-1 9-3 4-2 3-3 0-1l-3 1h-2l-3 1h-2l-4 1c-3 0-5 1-9 4l-3 2c-2 1-3 2-1 2h1Zm-7-1 3-2 2-1c1 1 1 1 5-2 6-4 6-4 1-4a67 67 0 0 0-13 7c-2 0-2 1-1 2h3Zm-7-1 6-4-3 1h-2l-4 3h3Zm-475-2c3-2 6-5 5-6l-5 4c-4 4-4 5 0 2Zm529-1 3-3 3-4 3-3h-1l-1-3-4 3c-9 10-10 11-6 9 2-2 3-1 1 1-1 1 0 2 2 0Zm-315-2 3-2h1-4c-4 0-6 1-7 2 0 2 0 2 3 1l4-1Zm171 1 6-4 2-1 5-5c0-1 0-2-1-1l-2 1a31 31 0 0 0-8 6c-4 4-6 6-2 4Zm19 0c2 0 2-2 1-2l-1 1a3 3 0 0 0-2 2l2-1Zm-415-3 3-1 2-2c2 0 3-2 3-3-1-2-1-2-2-1l-6 6c-3 2-3 3 0 1Zm433 0 4-5-4 3-1 1c-1 1-1 2 1 1Zm-423-1 2-1c1 0 2 0 3-2l1-2c1-2 2-2 1-3a1 1 0 0 1 0-1l-1-1-3 3c0 1-1 3-4 5-3 3-2 4 1 2Zm700-3 4-4c-1-1-4 0-5 2l-2 2c-1 2-2 3-1 4l4-4Zm-641-1c3-3 3-4 1-3l-4 5c0 1 1 1 3-2Zm424 0 5-2c4-1 4-1 4-3-1-1-3 0-6 2l-3 1c-3 1-3 2-2 2h2Zm-376-4 7-9 2-2 3-3c5-8 23-26 30-30l3-5-4 3c-1 2-2 2-3 2l-9 7a509 509 0 0 1-17 18l-2 2c0 2-1 3-2 3-3 2-11 11-12 14-1 5 0 5 4 0Zm-91-2a172 172 0 0 0 6-6l2-1 3-2 9-9c5-4 6-4 6-7 0-2 0-2-4 0l-2 2-2 1-4 4c-6 4-6 5-2 3h1c-6 4-21 19-19 19a1 1 0 0 1 1 1l5-5Zm493 5c7-2 9-4 11-6l9-9 8-6 8-6 4-2c6-6 10-9 13-9a165 165 0 0 0 23-8l11-4 5-2 3-2 18-2c4 0 4-1 0-2-8-1-19 0-20 3l-7 2-3 1-6 2-8 2-4 1-16 7-3 2a2 2 0 0 0-2 0l-2 2-1 1-4 4-1 1c0 2 0 2-3 2-4 1-5 2-9 6l-4 5-2 2c-2 1-4 3-5 6-1 2-4 3-7 3l-5 1-4 1c-2 0-3 1-2 2 1 2 2 2 5 1v1Zm33-3 2-2 3-4 2-3 7-6 5-4 14-9 6-3 4-2h-4l-2 1-3 1a256 256 0 0 1-15 6l-2 2-3 3a128 128 0 0 0-15 17l-2 4v1l1-1 2-1Zm-479-1a3185 3185 0 0 1 0 1v-1Zm646 0 7-2c1 0 1-1-1-2s-10 1-10 3 2 2 4 1Zm-718-2 4-4-6 5 2-1Zm72-3 5-5 3-5a80 80 0 0 1 9-11l3-4 3-3 8-9 5-7c0-1 4-5 11-10l6-6c0-1-2 0-5 3l-3 2-4 3-4 4-6 6-2 3c-1 0-4 3-6 7l-4 5-5 5-11 12c-2 1-2 1-1 2v2l-5 6-1 3c1 0 2 0 4-3Zm467 0 5-5 3-3c2-1 4-5 4-6l-3 3-7 7c-3 2-7 6-6 7l4-3Zm-529 2 3-3 5-7 1-3c2-2-1-1-5 2s-4 4-4 5 0 2-2 3c-2 2-2 3-1 3h3Zm101-4c3-3 5-4 7-4l3-3 4-5c3-3 2-3-2 0-7 4-12 9-14 13-3 4-2 4 2-1Zm-110 0 7-5 3-2 1-2v-1l-3 2a67 67 0 0 0-6 5l-5 5 3-2Zm58-5c2-3 2-4 1-4-2 0-10 7-10 8l2-1c2-2 3-2 3-1 0 0 0 2-2 3v1l6-6Zm347 6 4-3c0-1-4 0-5 2-2 1-1 2 1 1Zm-385-2 5-4a195 195 0 0 1 28-23v-1c-1-1 0-1 2-4 3-3 3-4 0-2l-4 5-2 1c-1-1-2-1-2 1l-4 4-2 2-10 7-1 1-2 2c-3 1-7 7-7 8a1 1 0 0 1-1 1l-3 4 3-1v-1Zm112-5a48 48 0 0 1 7-7 111 111 0 0 1 9-8l6-4 6-5 2-3 1-2h-1c-3 1-5 2-9 6l-2 2a194 194 0 0 0-21 21l-4 6 6-6Zm421 3 3-4c2-2 4-4 2-5l3-3c4-3 9-6 15-8a69 69 0 0 0 8-3l6-2a28 28 0 0 1 6-2l14-5 20-2c3 0 4-1 4-2-1-1-16 0-19 1h-4l-4 1-5 1-4 1-6 3v1l-2 1h-5l-4 2a166 166 0 0 0-17 7 124 124 0 0 1-6 5l-2 3-1 2v1l-2 1c-7 6-8 7-5 7h2c1 1 1 1 3-1Zm134 1 1-2-2-1-2-1c-1 1-1 1-3-1-2-3-3-3-4-3s0 2 2 3l2 3c1 2 4 3 6 2Zm-272-1 8-7 1-1 8-9 5-4c0-2-9 3-10 6l-1 1-2 2-2 1-7 7c1 1 0 2-2 3l-1 2c0 1 1 1 3-1Zm-422-1 5-4 10-11c0-2-9 6-10 8s-2 2-3 2l-3 3c-3 4-2 5 1 2Zm681 0h4c1 0 2 0 0-1l-2-1c-6 2-7 3-2 2Zm-625-4 3-3c3-2 5-5 4-5-1-1-8 5-9 7l-2 3c-2 3-1 2 4-2Zm53 0 4-3c2-1 2-1 1-2s-2 0-6 4c-4 5-4 5 1 1Zm621 1c1-1 2-7 1-8s-1 0-1 3l-1 5c0 2 0 2 1 0Zm-31-1c2-3 2-3 0-4-1-1-2 0-1 1 1 3 0 3-2 0l-2-1 1 2c2 4 3 5 4 2Zm-161 0 1-1 2-3 3-2 1-1 2-1 2-2h3a3 3 0 0 1 2 0l4-2 3-3c3-3 3-4 0-3l-3 1c-4 1-6 2-10 6l-6 5-5 4c-2 2-1 3 1 2Zm-525-1 10-8 6-6 3-3a32 32 0 0 0-12 9l-6 5c-4 4-4 5-1 3Zm11-2 2-1c2 0 4-2 2-3v-1l-5 3c-2 2-2 3 1 2Zm393-1 1-3c-1 0-5 3-4 4l3-1Zm-294-1c2-3 2-3 0-2-2 0-4 4-3 4l3-2Zm-12-1 2-3-5 4 3-1Zm592-1v-5a77 77 0 0 1-2-2v-1 7c-1 1 0 3 1 3l1-2Zm-574 0h4l4-4 6-7 4-3-1-1c-1-1-2-1-2 1a2 2 0 0 1-1 2 65 65 0 0 1-8 6l-2 1a1 1 0 0 0-1 1l-5 4c-2 2-1 2 2 0Zm300-1c2-1 3-3 1-3l-4 2v2c1 1 2 0 3-1Zm-360 0 3-3a255 255 0 0 1 16-20 143 143 0 0 0-17 18c-3 3-4 8-2 5Zm-58-5 2-3-2 1-2 1-2 3c-2 3-2 4 0 2l4-4Zm687 3-1-2-1-1v3h2Zm-668-1v-2l-2 2c-1 2 1 2 2 0Zm416-1a47 47 0 0 0 5-4l1-1 2-2 4-3 2-1 2-1c2-2 5-3 7-2l9-3-9-1-3 1-2 1-12 7c-1 1-2 2 0 1s1 1-1 2c-5 4-9 9-8 9l3-3Zm248 2a1 1 0 0 0 0-1l-1-2-3-2c1 3 4 6 4 5Zm-633-2 2-3 2-3 1-3-7 8c-1 2 0 3 2 1Zm62-2 7-6 3-4-8 5c-4 4-7 7-6 8l4-3Zm-68 1 2-2c2 0 3-2 3-2 0-2-2-1-5 2-3 2-3 4 0 2Zm78-1 6-5-8 6 2-1Zm-17 1 1-2 3-2c2-3 2-4-1-1l-4 4 1 1Zm316-1 1-2 2-4c2-1 2-2 0-2-1 0-4 3-4 5l-1 1c-2 3-1 4 2 2Zm275 0a2 2 0 0 0 0-3c-1-1-1 0-1 2s1 2 1 1Zm-30 0c2 0 2-1 1-3s-5-3-5-1v2c1 3 1 3 4 2Zm18 0-1-2c-1-3 0-4 1-4l1 1 3 3-1-3-2-2-2-4-2-3-2-3-2-4c-3-5-9-12-15-16l-2-2c2-2 14 11 18 17 0 2 1 3 2 3l2 3 2 3 2 3 4 5v-1l1-1c2 0-7-13-9-14v-2s3 2 5 6l4 5c2 3 4 4 5 3s0-1-1-3l-12-11-1-3-1-3a72 72 0 0 0-14-15 58 58 0 0 0-13-10l-3-3-3-1-3-2-1-1-4-3-4-2-4-2v2l2 1 3 4 1 1 6 4c10 6 19 15 17 15l-3-2c-8-8-21-16-25-17a219 219 0 0 1-20-3l-4 1-13 1-7 1-2 1h1a209 209 0 0 0 20-1l5 1c7 0 9 0 10 2l2 1c4 1 5 0 2-1s-2-2 0-2c3 0 4 0 10 4 6 3 16 11 16 12l-2-1-4-1-3-2a49 49 0 0 0-6-4l-3-2c-4-2-4-2-5-1s-1 1 4 4 13 9 13 11l-3-1-2-2c-1 0-4-1-5-3l-3-2a40 40 0 0 1-5-4h-1l-3-2-3-1c-2-2-12-2-13-1l-1 1h5c4 0 4 1 6 2l3 1c3 0 14 9 16 12l1 2 2 1 5 3 4 3 8 7 2 1 2 1 3 6 6 3-2-4-4-4-4-4-4-4-10-7c-2 0-4-2-3-2l4 1c10 5 13 8 17 13l2 2c2 0 3 1 5 4 2 5 3 6 4 4l-3-5-1-1-10-11a341 341 0 0 1 17 17v3c0 4 1 7 3 9l2 1Zm-5-25-9-10c-4-4-4-4-1-3a50 50 0 0 1 11 14l-1-1Zm-652 22a243 243 0 0 1 24-15c3-1 4-2 2-2a2 2 0 0 1-2-1l-3 1-6 4a523 523 0 0 0-15 13Zm31 0c3-5 13-13 19-18l14-13c0-2-3 0-8 6l-5 4c-1 0-2 0-7 5-8 6-16 16-15 18l2-2Zm64-1 4-3 9-4 3-3 5-6c1-1 3-2 3-4l-6 6c-1 1-2 3-3 2v-3c2-3 2-3-2-1l-3 2v1c1 2-1 3-4 5a65 65 0 0 0-7 6l-4 4 5-2Zm-18-1 1-2-1-1h-2c-1 2-2 3-1 4l3-1Zm438 1 7-4-10 3c-1 1 0 2 3 1Zm-532-3c3-1 4-3 3-3l-6 4c-2 2 0 2 3-1Zm546 1 7-5c4-2 3-4-1-2l-3 2-3 3-2 2h2Zm145 0-1-4-1-3-1-2-7-11-3-4-7-9c-5-5-8-7-6-3v1l-1-1a56 56 0 0 0-14-12l-4-3-7-5-6-2v1a493 493 0 0 1 33 25l11 14 3 4c5 5 8 9 8 11s2 4 3 3Zm-676-4 7-4c5-3 7-4 9-8 3-3 2-5-1-2l-3 3a124 124 0 0 0-18 13c-1 2-1 2 6-2Zm-19 0c3-3 3-3 3-5v-2l-3 3-2 4-1 1-1 1c0 2 1 1 4-2Zm537 1 6-2c3 0 5-1 5-2l10-5h1-7l-3 1a81 81 0 0 1-4 2l-1 1c-1 2-2 2-2 0v-1l-4 2-2 1-1 2v1c-1 2-1 2 2 0Zm-120 0 7-7 4-3 5-4 5-4 6-3c2-2 3-3 1-2l-3 1-4 2-6 4-6 4a4 4 0 0 1-2 3l-2 1v1c-2 0-7 6-7 7h2Zm285-1c1-1-3-6-4-6l3 5 1 1Zm-590-3 1-1 2-1 1-1c1-1 0-2-1-2l-5 6c0 1 1 1 2-1Zm545 1-3-3c-1 0-1 2 1 2l2 1Zm-8-1a395 395 0 0 1-8-1l4 1h4Zm48-1-9-13v3l3 4 2 4c1 2 4 3 4 2Zm-538-2 3-2c1-3 0-2-4 2-3 2-2 2 1 0Zm406 1c6-1 13-3 18-6 3-1 4-2 2-2h-2l-11 3-3 1-4 2-3 1c-3 2-1 2 3 1Zm-480-2 6-6c4-4 6-6 5-7l-3 2-1 2-2 2-1 1c-2 0-6 4-6 7 0 1 1 1 2-1Zm456 0a22 22 0 0 0 8-4c3-2 2-2-2-1l-11 5c-1 2-1 2 5 0Zm-120-2c3-2 1-2-1 0l-2 1c0 1 1 1 3-1Zm-368-1c2-2 2-3 1-3l-5 5c0 2 2 0 4-2Zm564 1a613 613 0 0 0 10-1c-5-2-10-2-15-1h-5l-3 1h-2c-4 2-1 3 5 2l10-1Zm28 1-7-2c-2 1 2 2 6 3 1 0 2 0 1-1Zm-624-1 3-2 4-4c0-2-6 1-9 5-1 2-1 3 2 1Zm103-1 1-2-4 3c0 1 1 1 3-1Zm525 0a9 9 0 0 0-8-3l-7-1h-3l6 1a59 59 0 0 1 10 3c3 2 4 1 2 0Zm-492 0 4-2 4-4-1 1h-3l-2 1c-3 2-6 5-4 5l2-1Zm406 0 12-4 1-1 2-2c1-1 1-2-1-1l-2 1-1 1-4 2-3 1c-3 0-6 2-6 3h2Zm-26-1a3 3 0 0 1 2 0c3 0 10-4 9-6l-9-1-6 3-1 1h8l-2 1c-2 0-5 2-5 3l4-1Zm-492-2c5-2 16-13 14-15l-6 6c-1 2-2 2-3 1v-2c3-3-1-1-5 4-5 4-5 5-1 3l5-2-1 2-5 3c-3 2-2 2 2 0Zm551 0 2-1c4-2 15-4 22-3h3c-1-2 2-2 7 0 4 1 9 2 10 1l-4-1a157 157 0 0 1-11-2c-3-1-23-1-28 1l-5 5h4Zm-170-1a37 37 0 0 0 8-5l3-3 1-1c-3 0-13 7-16 9-1 2-1 2 4-1v1Zm158-1h5c2 0 5-2 5-3h-8l-7 3h5Zm109 0-1-1-3-4-11-11-1-1v1l1 2 4 4c1 3 2 3 3 3l6 6 2 2v-1Zm-618-3 3-5c3-3 4-4 1-2l-3 3-5 5c1 1 3 0 4-1Zm48-1c2 0 4-3 3-3l-6 3c-2 1 0 2 3 0Zm428 0h2a2 2 0 0 0 2-2h-3c-4 2-5 0-1-2 3-2 1-3-5-2l-5 1-7 2 4 1 3 1c2 1 8 2 10 1Zm-521-2 11-8c5-5 3-5-5 0l-2 2-6 4-3 3-1 1 6-2Zm76-4 3-3a3 3 0 0 0-3 1l-4 3c-3 3-4 4-3 5l2-2 5-4Zm535 6-2-2-4-2c-2-2-5-2-5-1l4 3 2 1 5 1Zm-597-4c9-6 9-6 6-6-2 0-3 0-5 2l-2 2-5 5 6-3Zm45 3h1c1 1 4-1 3-2s-1-1 4-6l3-3h-4l-1 2c1 0 1 1-2 2l-6 7h2Zm522-1h12c2 1 2 0 0-1l-8-1-3-1h-4l-5-1-4 1h-3c-4 0-4 3 1 3h14Zm-443 0 6-4h-3l-3 2-2 1-1 1h3Zm409-1 11-1c4-1 7-2 6-3l-10 1-5 1-6 3 4-1Zm-477-5a54 54 0 0 1 3-3l-1 1-2 1h-1l-1 2c0 1 1 1 2-1Zm449 0a1 1 0 0 0 0-1l1-1c2-2-1-3-7-1-3 1-5 2-3 3h9Zm65 1v-1l1-1c2-1-2-2-4-2l-10-1a2 2 0 0 0 2-1l-1-1h-3l-5 1h-4l-3 1-4 1-7 2a330 330 0 0 1 15-3h4c2 0 3 0 2 1v2a3 3 0 0 1 3 1v1h14Zm-544-2 3-2 18-15-4 2-3 2-4 2-2 2-5 5a3 3 0 0 1-2 2l-3 3 2-1Zm561 0a25 25 0 0 0-9-7l-3-1-3-1-3-1-1-1h-3l-4-1h-4l3 1 3 2 3 1c7 1 9 2 8 4v3l-1 1h1l2-1h2a38 38 0 0 0 8 2l1-1Zm-552-2 6-4c5-4 6-4 6-6l2-3 1-2a4 4 0 0 0-2 2l-2 2-1 2-2 1c-2 0-5 3-6 5l-2 1-2 4 2-2Zm-46-1 4-3 4-3 5-5c1-2-1-2-4 1l-3 1-4 5-1 1-5 5 4-2Zm35-1 3-4-6 7 3-3Zm487 0c1-1-2-1-9-2-4 0-5 0-1 1l5 1h5Zm57 0c0-1-6-2-7-1l2 1h5Zm-36-1-5-2a88 88 0 0 1-11-3l-3-1-5-1a2 2 0 0 1-2 0l-6-1h-12a1 1 0 0 1 0-1c1-1 1-1-4-2-8-1-10-1-11-3a1 1 0 0 0-1-1l-3-1-3-1-1 1c-2 1-2 1 10 5l7 3c2 0 2 1 0 1l-5-1a175 175 0 0 0-14-5l-6-3h-1l4 5 3 2 2 1h5a36 36 0 0 1 13 2l11 1h11c2 1 1 2-1 2h-2l2 1h5l6-1a110 110 0 0 0 13 3h4Zm9-1 12-1h3l-1-2a295 295 0 0 1-19 3h5Zm-487-3c6-4 11-9 10-9l-14 11 4-2Zm-30-1 5-4 4-4c2-1-1-2-4-1l-1 2c1 0 1 1-3 4l-6 6 5-3Zm461 2-1-1h-2l-10-3c-1 0-1 1 1 2 7 2 11 3 12 2Zm-15-1-4-2a55 55 0 0 1-6-3l1 2 9 3Zm155-2-5-5c-3-1-2 0 0 1l4 3 1 1Zm-80-2 4-1h-6l-3 1-2 1 7-1Zm23 0-5-1c0 1 2 2 5 2h1l-1-1Zm-55 0a1 1 0 0 0 1-1 2 2 0 0 1 1-2l-1-1-3-1h-8c-11 1-14 0-15-2a2 2 0 0 0-1-1l-2-1h-3l-7-2-2-1-3-1h1c2 0 2-1-2-3a265 265 0 0 1-6-2v2c1 2 3 5 9 7l9 3c3 0 3 1 1 1h-1a393 393 0 0 0 32 5Zm13 0-1-1-3-1h-4l4 1 2 1h2Zm-487-2 6-5 8-7c4-4 5-6 1-3a173 173 0 0 1-8 7l-6 6c-4 3-4 4-1 2Zm-30-2 12-9-6 2-6 5-4 4 4-2Zm527 2c1 0 1-1-1-1l-2-2c-1-1-2-2-5-2s-3 1 0 2c4 3 6 4 8 3Zm-542-3 4-3c0-2-3 0-4 1l-2 3 2-1Zm527 0-1-1-1-2h-2l-5-2c-8-3-16-5-11-2l4 1 2 2 6 3 5 1h3Zm30 0 9-1h-19c-3 0-3 2 1 2l9-1Zm-104-1-5-4a90 90 0 0 1-8-6l-4-2-2-2-4-2a53 53 0 0 0-6-4l-3-1h-1c-3-2-6-3-7-2s-9 0-12-1c-2-1-3 0-3 1h-2l-3-1c-3 0-3 0-2-1v-2h-3l-2-1-2-1-2-1h-3l-2-1c0-1 3-1 10 1l7 2-12-4-2-1c5 0 15 2 16 4 2 2 2 2 5 2h4c2 0 0-2-3-3a128 128 0 0 1-13-4c-6-3-11-4-12-3-2 0-5 0-12-3-6-2-16-4-26-4h-2 13c2 0 3 0 2-1 0-1-17-4-18-2h-1l-2 1-1 2 4 1a55 55 0 0 1 9 1 197 197 0 0 1 29 11c-1 0-1 1 2 2 5 2 9 4 14 10 2 2 3 2 14-1a91 91 0 0 1 9-2c2 0 4 1 3 2l1 3a241 241 0 0 1 16 8l6 5 5 2h3l8 2Zm-79-34-3-1h5l2 1h-4Zm-299 34 4-4-5 3 1 1Zm-32-2 6-4 5-5-4 2-3 2-2 2-3 2c-2 2-1 3 1 1Zm413 0v-2l-1-2c-2-3-10-8-14-7-2 0-2 1 3 4l3 2 3 2a266 266 0 0 1 6 3Zm12-1c-2-2-6-4-7-3l3 2 2 1 3 1-1-1Zm-440-1 3-2-5 3 2-1Zm9-1c3-2 5-5 3-4l-6 5c0 1 1 1 3-1Zm492 1a1 1 0 0 1-1-2h1c1-1-1-2-4-2h-2l1 1c2 2 0 2-2 1h-1c3 2 9 3 8 2Zm-463 0 2-1 2-2c2 0 3-2 2-2l-3 1-2 2-2 2h1Zm-52-1 3-3c-2 0-3 1-5 3l1 1 1-1Zm485 0-4-1c-2 0-2 0 1 1h3Zm38 0c1-1-1-2-5-2-2 0-2 1 2 2h3Zm49 0c0-1-1-2-3-2l-3-1c-4-1-17-2-15 0h4l6 1 11 2Zm-68-2-5-2-3-1-2-1-5-1c-5-2-6-2-1 1 5 2 15 5 16 4Zm-51-1c1-1 0-2-6-8-6-5-7-3-1 2l3 4a2 2 0 0 0 4 2Zm85 0 3-1 2-1h-3l-2-1c-1-1 0-1 2-2l-3-1c-3 0-3 0-2 1 2 3 1 3-4 1l-4-1 3 2 4 2 4 1Zm-467-2 4-3c-1-1-7 3-7 4l3-1Zm459 1c0-1-7-3-10-2-2 0-3 0-2 1h4l5 1h3Zm-15 0-6-5-3-1-8-4 4 3 8 5 4 2h1Zm-37-1c0-1-18-9-19-8v3c0 2 6 4 6 3l4-1a66 66 0 0 0 9 3Zm-468 0 3-2 6-3 4-2h-3a497 497 0 0 1-10 7Zm495 0c2-1 2-1-2-3-5-2-6-2-6 0l6 3h2Zm-61-2-3-2-9-5-2-1c-5-3-6-3-1 1l3 2c0 2 6 5 8 5l3 1c2 0 2 0 1-1Zm-416-2c2-1 3-2 2-3l-3 1-2 1c-2 2-2 2 1 3l2-2Zm397-1h2c3 0 2-2-2-4l-6-4-2-1-2-2c-5-3-11-6-13-5h-2l-7-6a100 100 0 0 1-13-7l-7-2-6-2-3-1h-5l-3-1c-1-2-4-3-9-4-3 0-3-1-3-2l-3-1c-1 1-5 2-7 1l-4-1-7-1h-5c-7-1-11-2-7-2 2-1 1-2-3-3-10-4-14-4-14-3l3 2 3 1 1 1 2 1-4 1-4 1h1c5 2 11 2 21 2a64 64 0 0 1 19 3l6 1 3 1 4 2 9 2 9 4 3 1 5 2 3 1h2l5 2 15 8c0 2-2 2-3 1l-5-3c-2 0 0 1 2 2l2 2 3 1 13 7a142 142 0 0 0 12 6l1-1Zm32 0-3-4c-4-3-5-3-2 1l2 2 2 1h1Zm-422-3 5-5-6 5h1Zm36-2 6-3 7-4 5-4-5 2-6 3c-7 4-12 7-10 7l3-1Zm372-1-4-3-3-2-1-1-2-1-11-6c-2 0-3-1-2-2l-2-2-5-3c-6-3-7-3-7-2 0 3-3 3-4 0l-2-1-2-2-1-1c-2-1-2-1 0-1l2-1a2 2 0 0 1 1-1c1 0 0 0 0 0l-2-2-2-2-3-1c0 2-2 2-3 1l-5-2-3-1 1 2 4 3 3 3 5 4a4 4 0 0 0 2 2v-1l1-1 3 4 2 3c2 2 2 3-1 3l-2-2-3-1 2 3c3 3 3 3 4 2 2-1 2-1 5 1l12 6 4 1c2 0 2-1 0-2l-4-2-6-3c-5-3-7-4-5-4l19 9c1 2 2 2 4 2h1l1 1 2 1 5 3 2-1Zm14 0c1 0-3-4-6-5-2-1-2-1 0 1l4 3 2 1Zm38 0c-3-2-11-4-10-3l1 2 7 1h2Zm-29-2v-2c-2-1-2-2-1-3l-4-2-2-2a77 77 0 0 0-23-18c-4-2-3-1 1 2l3 3 2 1 2 2 2 1 2 2 4 3c4 1 4 2 4 3s0 2 4 5c5 7 6 7 6 5Zm-435-1 3-1 3-3-4 1-5 4 3-1Zm14 1 7-8-10 8h3Zm400 0-4-4-3-2h-2l3 2 4 4h2Zm-418-2 4-3a20 20 0 0 0-7 3l-2 2 5-2Zm41 1 6-3c1-2 4-5 13-8v-2l-2 1-5 2c-6 2-16 9-14 11l2-1Zm389-3a54 54 0 0 0-9-8 23 23 0 0 0-5-4l-9-4 5 5 4 3 3 1 4 3 7 4Zm-434-1 1-3-4 3h3Zm40-1a66 66 0 0 1 7-3l4-2 4-3 6-3 4-3 1-1-2 1-3 1-2 1-10 6-8 4-3 2c-2 1-1 2 2 0Zm18-1 2-1 1-2-5 3s-1 1 0 0h2Zm-22-3a122 122 0 0 0 10-9l-5 3-3 2-6 6 4-2Zm378 2-1-1-2-2-4-2-4-3-3-2a1 1 0 0 1-1-1l-3-1-4-3c-2-2-7-3-8-1l5 4 4 2 8 5 6 3 4 2h3Zm-395-2 9-5 1-1h-1l-4 2-4 2a5 5 0 0 0-3 2h2Zm51-1 5-2c4-2 3-2-2-1s-7 3-6 4 1 1 3-1Zm-41-1 4-3-5 3-1 1-2 1h1l3-2Zm388 0-2-2-4-3a43 43 0 0 0-7-5l-5-3-5-3-5-3v2l1 2c-1 1 0 1 4 3l5 3c2-1 2 0 3 1 4 4 14 10 15 8Zm-64-1c1-1 1-2-1-2l-3-2c-6-3-15-4-11 0l3 1 10 3h2Zm-281-4c4-3 8-4 11-5l4-1 3-1c3-1 1-1-6-1-6 0-7 1-10 3l-6 3c-6 3-7 4-3 4h3l4-2Zm-18-1c4-2 5-3 3-3l-7 5 4-2Zm386 0-4-5c-1 0 0 3 2 5h2Zm-107 0-2-2-3-2-9-5c-7-2-11-3-12-2h-8l-5-1-8-2h-4l-4-1c-3-1-6-2-9-1l-18-2h-4l-1-1a3 3 0 0 0-3-2c-2 0-2 0-1 2v2a1 1 0 0 1-1-1c-2-2-4-2-11-2l-11-1h-3a145 145 0 0 1-10 0h-6c-6 0-7 1-7 2 0 2-2 3-3 1-1-1-10-2-19-1l-13 1c-4 0-6 1-5 2s1 1-5 1l-13 3 8-1 10-1h5a266 266 0 0 1 21-2l-3 1h-3a228 228 0 0 1-14 2c-3 1-1 1 8 1h9l-1 1v1h2a30 30 0 0 0 6-1c2 0 1-1-1-1l-2-1 5-1 5-1 3-1h7c1-2 10-4 18-3l9 1c7 0 10 1 12 2h4l5 1 8 1a55 55 0 0 1 11 1h5l9-1 4 2a175 175 0 0 1 19 4l13 3 8 2 6 3h2Zm-315-2c2-2 2-2 0-1l-5 2 5-1Zm48-2 5-2c1 0 4-1 7-4l9-5 1-2c1-1 0-1-1-1l-1 1c0 1 0 2-2 2l-4 2h-1c-1 0-3 0-5 2l-3 1-10 7c0 1 1 1 5-1Zm270 1c2 0 2-1-2-2l-3-1c-1 1 2 4 3 3h2Zm-238-1 6-1h3c1-2-6-2-11 0-4 2-4 3 2 1Zm315-1-3-2-4-3-5-4c-2 0-1 1 1 2l5 4c3 3 7 5 6 3Zm-373-2 7-3 5-3 7-3c0-1-1-1-6 1-8 2-9 3-14 7-3 3-3 3 1 1Zm254 1c0-2-1-2-2-2h-3l-4-1-4-1-7-1h-5c-5 0-5 1 0 2h6l5 1 6 2h8Zm71-1-2-1-6-3a191 191 0 0 0-11-5l-3-2-4-1c-5-2-6 0-1 2l5 3c2 2 6 3 14 5l5 2h3Zm-13 0-3-2-8-4h-2l-3-2-4-3-4-2h5a2 2 0 0 1 1-1v-2l-5-2-4-1c-3-1-3 0 0 1 3 2 3 2 1 4l-1 1c0 1-8 0-13-2-4-1-13-3-16-2h-8l7 3 11 1 5 1h6l4 1 17 7 5 2 6 2h3Zm-204-1h6c4 0 9-2 8-3l-18 2c0 1 2 2 4 1Zm-53-1h10c6-2 16-3 17-2 2 1 6 0 7-1 2-1 10-4 14-4 3-1 5-1 3-2a53 53 0 0 0-21 4l2-1 1-2-6 1c0 2 0 2-4 1h-5a392 392 0 0 0-17 2c-3 0-11 3-11 4h10Zm22 0 2-1h-7l-2 1h-1 8Zm142 0-4-2h-3c-3-1-8-1-7 1l14 1Zm140-1-4-3c-4-2-4-1 1 2l3 1Zm-336-4 5-2 2-2c0-1-1-1-3 1l-3 1-6 3h1l4-1Zm352-1-1-2a65 65 0 0 1-4-3l-3-2-5-3-2-1-10-6 1 3 4 3a359 359 0 0 1 18 11h2Zm-18-1-7-4-2-1-1-1a2 2 0 0 0-2-1c-3 0 0 3 6 5 4 3 6 3 6 2Zm-21 0-1-1-6-4-4-2-4-2-3-1 4 4 6 3 6 3h2Zm8-1-5-5-1-1-9-7-2-1-2-1-6-1c-1-1-2 0-3 1l1 1h2c0-1 9 4 16 10 4 3 10 6 9 4Zm-285-1c3-1 3-2 0-1-3 0-4 1-4 2 1 1 0 0 4-1Zm28 0 11-1 4-1c3-1 3-2 0-2h-4c-3-1-20 3-21 4l2 1 8-1Zm-18 0 3-1 2-1 3-1h2l2-1h-2l-2 1h-2l-6 2-4 1h4Zm293-1-10-7c-1 0 7 7 10 8v-1Zm-42 1c0-1-2-3-5-4l-3-2h-1c1 2 1 3-1 2h-2l-5-2a25 25 0 0 0-10-3h-6c-1 0-1 0 0 0a134 134 0 0 1 13 4h3l6 2a180 180 0 0 1 11 3Zm-280-2a469 469 0 0 1 6-4l-8 3c-4 3-4 3 2 1Zm187 1-6-1h-5l10 2a1 1 0 0 0 1-1Zm-206 0 4-3-6 3h2Zm-21-1c2-2 2-3 1-3l-3 4 2-1Zm121 0a622 622 0 0 0 32-3v1h3l4-1h3l3-1 2-1h2l2-5a311 311 0 0 0-26 2l7 1c0 1 0 2-4 1h-10l-13 2 1 2h-3l-4 1h-5c-4 0-4 1-3 1a3 3 0 0 0 2 1l7-1Zm-53-1c6-1 7-3 1-2l-5 2-1 2 1-1 4-1Zm-7-1 6-2 26-4 7-2c2-2 9-4 15-4l4-2 12-1 14-1h2-1l-1 1h11l1-1 3-1h-11c0-1-11-2-20-1l-10 1c-14 1-17 1-13 3 2 0 2 2-1 2h-2a2 2 0 0 1-3 0l-13 1-4 1-3 1-6 2-3 1-5 2-13 4h8Zm90 0h-2l-2 1 4-1Zm50 1-4-2c-9 0-11 1-4 1h6l2 1Zm-169-2c3-2 3-2 2-3s-1 0-4 2c-4 3-3 3 2 1Zm79 1 3-1c-1-1-7 0-6 1h3Zm-101-2c5-1 9-3 9-4h-3l-3 2-7 3 4-1Zm205 0v-1c0-2 1-2 2-2 0 2 13 2 13 1l-3-1-8-1c-1-2-1-2-2-1h-1a1 1 0 0 0-1 0 1 1 0 0 0-1 0c0 2-4 3-5 2l1-1 1-2 2-1c3 0 3-2-1-2-2 0-2 1-2 2 0 2-2 2-2 1l-9-1h-8c0 1 1 2 8 3 5 0 8 2 8 3h-3l-2-1-3-1-5 2h4l5 1h12Zm166 0-2-3-4-3c-1-2-2-2-3-2s-1 1 1 2l5 4 3 2Zm-280-2 6-1c4 0 7-1 7-2l-13 1-5 1h-5c-3 1-3 2 1 2l9-1Zm272 0a2 2 0 0 1-1-1l-3-4-6-4c-1 0-1 1 1 3a146 146 0 0 1 10 7l-1-1Zm-247 0 7-2 3-1 7-2 16-2h5v2h3l4-1h3l4-2c0-1-5-2-9-1h-10a295 295 0 0 0-32 2c-4 1-4 2 0 2l3 1c0 2-1 2-4 2-2-1-3-1-7 1-5 1-6 2-2 1h9Zm-71-1 7-2c6-3 7-4 1-3l-10 3c-12 2-10 3 2 2Zm195 0 4-1c5-1 6-2 2-3l-3-1c-3-1-8 0-9 1h-1c-2-1 1-2 7-2 10 0 11-1 3-2h-5l-1 1-2-1-3-1a3 3 0 0 1-2-1c-2-2-6-2-6-1l3 1 4 3c1 1-1 4-2 3l-6-2a529 529 0 0 1-1 2l7 2c0 2 1 2 4 2h7Zm-245 0 6-4-8 3c-1 2 0 2 2 1Zm276 0 1-1v-1h-4l-4-1h-11l4 1 12 2h2Zm61-1v-1l-1-2-3-4-2-2c-4-2-5-1-1 3l3 4c0 1 3 2 4 1v1Zm-311-1 3-4-6 3c-2 2 1 2 3 1Zm277-1-10-4-4-1h-3c3 1 1 2-3 1l-7-1 5 2 6 2 3 1 1-1a1 1 0 0 1 2-1l3 1 4 1h3Zm27-1-6-6-5-4-5-3c-4 0-3 1 2 4 3 1 4 2 5 4 2 3 8 7 9 5Zm13 0-4-5v2c2 3 4 5 4 3Zm-325 0 3-3-2 1h-1l-3 2h3Zm52-1 7-2c6-1 8-3 7-3l-9 2h-2l-8 3h5Zm204 0h-5l2 1 3-1Zm-158-1c4-1 3-1-1-1a180 180 0 0 1-8 2c1 1 6 0 9-1Zm240 1-3-3-4-2c-4-3-5-4-6-3l-1 1c-2 0 0 1 6 4l8 3Zm-174-1c3 0 3 0 2-1h-3c-3 2-3 2 1 1Zm-138 0 7-2 8-2a1 1 0 0 1 0-2l2-1 2-1h-3c-5 0-7 1-7 3l-4 1c-4 0-4 0-6 2-3 2-2 3 1 2Zm164-2-4-1c-6-2-7-2-10-1-3 0-3 0-2 2h16Zm-198-1 4-1c3-1 4-1 3-2-1-2-8 0-8 2l-1 1h2Zm353 0-7-7 5 7h2Zm-110-1h10l-2-1c-10-4-14-4-17-3l-2 1c-2 0-1 2 1 3h10Zm56 0-6-3 1 2 5 1Zm-245-1a219 219 0 0 0 14-5l-2 1-7 1-1 1h-4l-3 1-1 1-1 1h1l4-1Zm114 0 8-1h-22v1h14Zm119 0-3-1-4-1c-4-1-4 0 0 2h7Zm-14-1-9-3a38 38 0 0 1-7-1l-3-1-2-1c-4 0-2-1 4-2l7-1-3-1a3 3 0 0 1-2-2l-2-1a1 1 0 0 0-1 1l-1 1-2-3c0-2-1-2-5-3h-8l5 2 2 1 2 1c2 0 3 1 2 2l-8-1h-13l2 1 4 1 7 1c6 1 9 3 7 4a2 2 0 0 1-2 0l-6-2-8-1-3 1c0 1 4 3 8 3l8 1 5 1a46 46 0 0 1 19 2h3Zm30 0-2-1-3-2-2-1-4-2-6-1c0 1 1 2 3 2l11 4c3 2 4 2 4 1h-1Zm-282-1c2-1 3-3 1-3l-5 3h4Zm211-1-4-2-4-1-10-2-3-1h5l3-1-3-1-7-1h-4v1c-1 1 0 1 1 2l4 2 3 1h7l8 2 3 1h1Zm-114-1h6l8-1 26-1h18l1-1c1-2 1-2-3-2h-25l-2 1-2 1h-9a94 94 0 0 0-16 2v-1l-4-1-4 1a53 53 0 0 0-13 2c-1 0-1 0 0 0h1c2 0 5 0 4 1h6l8-1Zm90 1-1-1-3-1-4-1h-2l-18-1c-2 1-1 1 4 1l8 1a80 80 0 0 0 11 2h5Zm117 0-1-2-1-2-4-3-1 3c0 1 6 5 7 4Zm-7-1-7-5c-8-5-9-6-11-5-3 0-1 2 4 3s6 2 8 4l5 4 1-1Zm-34-1-4-3-4-1-1 1a5 5 0 0 1-5 0h-6c-1 1 4 3 11 3l6 1c3 1 3 1 3-1Zm-271-1 4-1 3-2-4 1-3 2-3 1c-1 2 0 1 3-1Zm86 0a259 259 0 0 1 37-5l2-1h-1c-1 0-2 0 0-1 1-1 1-1-1-1a60 60 0 0 0-13 1l-5 1h-4c-2 0-3 1-3 2s-1 2-2 1c-3-2-15 1-15 3h5Zm-34-1 9-1h8a676 676 0 0 1 18-5 266 266 0 0 0-37 6h2Zm275-2-7-6-2-1 2 2 5 4 2 1Zm-275-1 3-1h-5l-2 1v1l4-1Zm234 1c-3-3-7-5-8-4a3 3 0 0 1-3 0l-5-2 2 2 2 1 1 2h5a39 39 0 0 1 6 1h1-1Zm17-1-5-3-2-1 1 1c4 4 6 5 6 3Zm-36-1c1-1 1-1-1-1l-2-1c-3 0-3 1-1 2h4Zm-56 0-1-1h-2c-3-2-9-3-12-2-2 0-1 1 5 2l6 1h4Zm109 0-4-4c-4-3-4-2 0 1 2 3 3 3 4 3Zm-12-2c1-1-7-5-8-4-1 0 6 5 8 5v-1Zm-204-1h3l3-1h-2a2 2 0 0 1-2 0l2-1 12-3h-2a154 154 0 0 1-13 1c-2 0-4 2-2 3h1l-4 1-3 1 7-1Zm-75 0 4-2-6 2h2Zm15-2a227 227 0 0 0 14-7l-3 1-4 1-2 1a43 43 0 0 0-9 3l-3 1-1 1-1 1 2 1 7-3Zm104 2 10 1 7-1 2-1c4-1 3-1-2-1-8-1-29 1-29 2a831 831 0 0 1 12 0Zm-74-1 6-1a384 384 0 0 0 29-5l1 1h4c9-1 14-2 20-1 9 0 10-1 2-2h-11a2 2 0 0 1-2 0l-2 1-2-1c1 0 1-1 0 0l-3 1c-1 0-1 0 0 0 2-1 1-2-2-1a80 80 0 0 1-6 1h-3l-5 1-11 1-12 2c-1 1-2 2-7 2h-4c-1 2-1 2 2 1h6Zm-57-1 9-3 3-2 4-3-4 2a3 3 0 0 1-2 1l-9 3c-6 3-7 4-1 2Zm206 0-3-2c-7-2-7-2-8-1h-11c-8 0-4 1 5 2l3 1h14Zm33-1-4-1c-5 0-6-1-6-2l-5-2h-1l-7-2-3 1c-3 0-1 1 3 2l8 3c0 2 14 3 15 1Zm38 0c-1-2-3-2-5-3-2 0 0 1 3 3h2Zm-147-1h-5 5Zm138-1-2-1-4-1c-2-1-3-1 0 0l4 2c2 2 3 2 2 0Zm-25-1-5-1c-5-1-4 0 2 1h3Zm9-1c-1-1-5-2-6-1l5 1h1Zm-254-4c3-2 4-2 2-2l-7 5 5-3Zm140 2h6l4-1h-3c-3-1-4-2-2-2l2-1h-15l3 1 2 1c-1 2 3 4 3 2Zm51 0h-1l-2-1h-5l6 1h1a1 1 0 0 0 1 0Zm-110 0 12-3 5-1c3 0 3 0 2-1l-6 1-4 1a89 89 0 0 0-13 3h4Zm198-1-1-1-2-1-3-2c0-2-6-4-7-2-1 1-1 1 2 2l4 1c5 3 9 5 7 3Zm-251-1c5-1 7-3 7-3-1-1-3 0-5 1h-2c-1-1-2-1-5 1s-3 3 0 2l5-1Zm206 0c1-1 0-1-6-2-1 0-2 1 0 2h6Zm55 1c2-2-9-7-12-6-2 1 1 3 5 3l4 2 3 1Zm-229-1 4-2v1h9l4-1 6-1h6l9-2h-9l-6 1a218 218 0 0 0-9 0l-5 1a1 1 0 0 1-2-1l-9 1-2 1h-1l-2 1h-1l1 1h7Zm137 0 1-1-2-1-3-1h-18l3 1 7 1a49 49 0 0 1 10 2l2-1Zm66-1-3-1c-2 0-2 1 0 1h3Zm-148-1a318 318 0 0 1 23-3 67 67 0 0 0-19 0 55 55 0 0 0-13 2l-3 1h12Zm133-2h-5 5Zm-85 0c5 0 7 0 6-1l-14 1h8Zm-116-3h4l8-1 7-1c4-1 7-3 3-2h-4l-6 1-6 1-4 1-2 1-2 1h2v-1Zm153 0c1-2-7-3-9-2l-1 1 10 1Zm-22-1h2l2-1h-5c-1 1 0 2 1 1Zm-133-1 1-1-4 2 3-1Zm174 0c0-2-13-4-17-3h-5l11 2 7 1h4Zm-117 0 9-1a119 119 0 0 0 16-1c4-1 4-1 3-2v-1h-6c-2 2-3 2-18 2h-5v1l-5 1c-3 0-4 0-3 1h9Zm-45-2 3-1c0-2-7 0-8 1h5Zm189 0c1-1 0-2-3-2-5-1-5-1-1 1l4 1Zm-157-2h-4l-3 1 7-1Zm69 0a500 500 0 0 1-23-2l-2 1h4a96 96 0 0 0 21 1Zm-90-1a132 132 0 0 0 9-2h-3a245 245 0 0 1-11 2h5Zm124 0v-2l-9 1c-2 1 6 2 9 1Zm-142-1 15-3c1-1 0-1-1-1h-3l-4 1-4 1h-2l-1 1-3 1a1 1 0 0 0 1 1l2-1Zm126-1c1-1 0-1-1-1l-4 1h5Zm-90 0v-1c-5-1-8 0-8 1h8Zm82-1-5-1 4 1h1Zm52-2c1-1 0-1-2-1l-5-1-10-2h-4l-4-1a3 3 0 0 1-2 0h-6c-1 1 2 1 6 1a83 83 0 0 1 19 3l4 1h4Zm-116-1h2-5 3Zm-2-3c5-1 6-2 1-1h-4c-2 1-3 1-2 2l5-1Zm47 0 10-1-12-1a100 100 0 0 1-11 1h-4c-6 1-3 2 3 1h14Zm-100 0 4-1 2-1h3a90 90 0 0 0 16-4l1-1h-1l-3 1h-4l-5 1-2 1-9 2-3 1-2 1h3Zm29-3 3-1h-6l-2 1-3 1 8-1Zm40 0c1-1-1-3-2-3-5 1-7 1-6 3h8Zm10-2c1-1 0-1-1-1l-1-1h-1l-1 1c-2 0-3 1-1 1h5Zm5-1a1 1 0 0 0-1-1v-1l-1 1a1 1 0 0 1-1 1l1 1 2-1Zm-47 0-1-2-4 2h5Zm104 0c1-1 0-1-2-1a147 147 0 0 1-18-2l-4-1h-3l-5 1c-5 0-4 0-4 1h1a109 109 0 0 1 25 1 559 559 0 0 1 10 1Zm24 0-5-2h-4l5 2h4Zm-121-4h3c4-1 6-1 4-2a4 4 0 0 0-3 1l-3 1c-3 0-4 0-2 1l1-1Zm21 0h2l3-1h-7l-3 1h5Zm76-1-1-1h-2l-4-1-4-1a3 3 0 0 0-2 0h-7a222 222 0 0 0-46 3l8-1h10a601 601 0 0 1 48 1ZM360 414h-1l-3-2-3-1-7-2a3 3 0 0 0-3-1h-6l-6-2h-2l-1-1-1-1c-2-2 1-3 4-1l3 1h3l1 1h2l1 1 6 2h4c1-1 3-2 14-4l3-1 2-1c1 1 0 2-1 2h-1l-2 1-8 2-4 1c-1 0-2 2 0 2a3 3 0 0 0 3 0l4-1-1 1c-2 0-2 2 0 3l2 1-2 1v-1Zm147-9h-4a24 24 0 0 1-7-1h-3c-1-1 0-1 4-3l3-2 3 1 10-2 4-1 3-1-4-1h-9l-6 1h-2l-5-1h-3a5 5 0 0 0-4 0l-3 1-15 1h-6l7-2 2-1 34-1h17l1 1 3 1h2c0 1-1 2-3 2l-5 1h11l-3 4h11a2 2 0 0 0-2-3l-1-1h-2l3-1v-4c-1-2-2-3 0-3 3 0 5 2 5 4l1 2c2 0 2 0 1 1l-1 1-1 1-1 2 1 1h9c0 1-8 2-21 2h-5l-19 1Zm5-3c1-2 1-2-2-2-6 1-9 3-5 3l7-1Zm15 0v-1l-1-1h-2l-9 2h12Zm-175 1-2-1c0-2 1-3 9-3l5-1h5l-1 1-6 1h-3l-5 1 1 1c1 0 2 1 1 2l-4-1Zm226-1-1-3c0-1 0-2-2-3l-2-2c-2-1-2-1-2 1v3l-1-1-3-4v2l-2 5c-2 0-1-1-1-2 0-2 0-4-2-5-5-3-6-3-4 0 1 3 1 5-1 2h-1c1 4 0 4-2 1l-2-2c-2-2-1-3 1-2 2 0 2 0 1-2a164 164 0 0 1-8-9l-2-5-2-3 10 11 5 6h1l2 1c2 0 1-1-1-2l-1-2-2-5-6-11c0-2 2 0 5 5l9 12c-2-9-2-14 0-15 1-2 1-1 1 4 0 7 1 12 3 14 1 1 1 1 1-5l2-7 1-2 4-4c2 0 2 1 0 4-4 6-4 10-1 13 1 1 2 2 2 0 1-8 5-12 10-8l1 1 2 1c3 2 6 2 7 1a2 2 0 0 1 2 0h1l1-2c3-3 5-1 3 2v1l-1 1-1 1v2l4-2 3-1 3-2 4-3 4-1h5c4-1 4 0 3-3s1-2 4 1l2 2c-1-6-1-7 1-7 1 0 2 1 2 4l1 4c2 3-1 6-3 4-3-3-3-4-4-2 0 1-1 1-2-1l-1-2a3 3 0 0 1-2 1l-8 2c-2 0-1 1 3 1l5 1h-3l-14 3-5 2-3 2-1 1h-1l-3 2-6 3c-6 2-8 2-9-1 0-2-2 0-2 2v2h-2 1Zm10-5 3-2 2-1a1 1 0 0 0 2-1l1-3c0-3 0-3-2-3s-3 0-3 2l-4 6c-2 3-1 3 1 2Zm-6-2 1-1 1-2 1-3v-3l-4 10 1-1Zm1-10v-2l-2 1v1c-1 2 0 2 2 0Zm-34 13c-3-3-8-13-9-16 0-2 1-2 3 0l8 17c-1 1-2 1-2-1Zm94-4v-29c1-2 1-1 2 9v10l1-2 2-5 3-6 3-5-1 3-1 3v2l-1 2-1 2c-1 3 2 0 4-4 5-11 10-15 6-6l-2 8c-1 2 0 2 3-1s3-3 3-1 1 3 3 1h2l3-1h2l-5 2-2 1a5 5 0 0 1-5 1c-1-1-1-1-3 1-3 2-4 2-3-2 1-6 0-5-4 2l-1 3-4 4c1 2 0 3-1 1h-1v2c1 1 0 6-2 5Zm410-26 1-2c2 0 3-1 1-2-2 0-2-2 0-1 5 0 6 3 3 5h-5Zm-477-11-2-8c-1-4-1-4-3-2-3 3-3 1 0-2l2-3 3-1v3l1 7v6a1 1 0 0 1-1 0Zm-10 0c-1-1-2-3-2-7s0-4-3-1l-4 2 1-2c1 0 3-2 3-4l2-2c3 0 3 1 4 7v6h-1v1Zm-11-2c-2-1-3-4-3-6-1-2-3 1-3 4 0 2-1 2-2 2s-1-2 1-7l1-3 3-3 3 6 2 6c1 2-1 3-2 1Zm28-1c-2-3-3-10-3-12 1-1 4-2 3 0l1 7c1 6 1 8-1 5Zm11-1c-1-2 7-15 9-15v1l-1 2-6 11-2 1Zm-6-1v-1l-1-1c-3 0 1-10 4-10l-1 3c-2 5-2 5 1 3l2-2v1l-3 6c0 1-1 2-2 1Zm364-2-4-2-3-1h-9a271 271 0 0 1-20 0h-13c-4 0-6 0-5-1l8-1 5-1a488 488 0 0 1 30 0c3-2 18-4 18-2l-5 1c-6 0-9 1-8 2l6 1h8-3c-2 0-4 1-3 2 0 1-1 2-2 1v1Zm-271-2c-1-1 0-2 2-2s3 1 1 1l-1 1h-2Zm123-3-2-1-2-1c2-1 6 1 6 3l-2-1Zm-758-3-6-2-8-2-2-1h7l2 1 6 1 4 3h-3Zm918-1h6-6Zm-902-1-9-5-3-1-2-1-4-1-4-1c-5-2-3-4 2-3l7 2 7 2 4-1c2-2 13 2 12 4l-12-1-3-1-3-1c-3-1-3 1 0 2 7 2 11 5 10 7 0 1-1 1-2-1Zm56-5-3-2-3-2-2-1h-2v1c0 2-1 3-4 3a88 88 0 0 1-21-4H72c-7-4-3-5 7-2a280 280 0 0 0 19 3c8 3 10 0 3-3a94 94 0 0 1-9-3l-1-1h4a279 279 0 0 0 20 7c3 2 5 3 6 2s0-3-3-8l-3-3-2-3c-4-5-4-7 1-2a389 389 0 0 0 10 11c-3-3-3-2-1 1 2 5 0 8-5 6Zm28-8v-1l-2-2v-6a166 166 0 0 1-2-7l-1-9-2-5c-2-7-2-8-1-8l4 13 1 4 1 4 1 5 1 5c0 3 0 4 2 2 1-4 2-5 2-13 0-12 1-17 2-17v5c0 6 0 8 1 5l1-1c0-3 3-13 5-13 1-1 2 1 1 6v14l-1 5v6l-1-2v-12c0-4-1-4-1-2a83 83 0 0 1-9 23l-2 1Zm-15-1-3-5-1-2-2-5c-3-5-4-5-5-3s-2 1-1-2l1-4-2 2c0 3-2 8-3 8-1-1 2-11 3-11v-9l2 4 2 3 1 3 2 6a522 522 0 0 1 6 8c1-1 2 0 3 5 1 3 0 4-2 2h-1Zm7-4-1-7-1-4-1-4v-2l-1-1c0-5-2-6-3-1l-1 3-1-1-1-2v-18c-1-4 0-4 1-1 7 15 12 38 10 38a1 1 0 0 1-1 0Z" fill="#000"/>
</svg>
